<svg width="145" height="108" viewBox="0 0 145 108" fill="none" xmlns="http://www.w3.org/2000/svg">
<path d="M123.089 28.7688C118.732 28.9359 118.285 30.2561 114.758 26.7993C113.711 25.8793 112.664 24.9593 111.48 24.276C108.03 22.5994 104.11 23.6499 100.613 24.787C97.6757 25.774 94.7388 26.761 92.0386 27.8847C92.4486 27.1746 92.6219 26.3278 92.8452 25.6677C93.5517 23.0774 91.3445 20.0672 89.1275 19.2607C87.384 18.7274 85.0437 18.9543 83.5905 21.7448C82.1872 24.7219 78.2339 29.3828 75.3372 32.76C74.4171 33.8069 73.4971 34.8538 72.9505 35.8006L73.0005 35.9873C65.3733 39.6317 53.5658 45.5967 46.3254 49.9378C47.1087 49.1276 47.7054 48.3675 48.3021 47.6074C49.0854 46.7972 48.4986 45.3538 47.2784 45.2805C44.178 44.9108 41.6011 45.001 39.1742 45.6513C38.9875 45.7013 38.6142 45.8013 38.4775 46.038C37.3708 47.1349 32.8073 51.7592 30.0839 54.2897C26.7701 52.3764 26.2332 51.1197 19.7287 46.2597C17.685 44.6063 15.1215 45.4933 12.4213 46.617C10.0944 47.6407 8.22761 48.1409 5.93739 48.5544C4.58058 48.7179 3.86066 50.5115 5.0942 51.3815C6.32775 52.2515 11.7389 59.0051 11.9756 59.1418C14.3695 62.1019 19.5172 67.1254 21.2742 68.4554C19.0742 71.4459 16.9742 74.8098 15.2342 77.2769C14.5009 78.2737 15.2744 79.6671 16.4446 79.5537C19.2082 79.4134 21.6851 78.9498 24.2486 78.0628C24.4353 78.0128 24.7587 77.7261 24.9454 77.6761C25.6787 76.6792 26.922 75.3457 28.3021 73.7754C37.1834 77.7984 47.5046 78.2342 56.6387 74.9864C53.3856 82.2608 49.6323 87.6684 42.9421 94.063C41.002 95.7834 42.2258 98.857 44.6661 99.0034C51.7904 101.696 63.6944 93.1045 69.1278 87.2467C73.0285 90.6034 79.4856 87.0725 77.7983 81.522C77.4481 80.2152 76.588 79.2451 75.5911 78.5118C76.0011 77.8017 76.2244 77.1416 76.6344 76.4315C82.0518 77.9812 85.4549 71.2668 81.6909 67.6734C98.1324 64.0683 113.76 56.6794 126.994 46.3305C130.464 43.5999 133.971 40.2592 133.754 35.7154C133.914 34.0718 133.7 32.5283 132.977 31.3216C130.533 28.1748 126.176 28.3419 123.089 28.7688ZM119.532 31.9228C114.845 37.5805 107.365 38.7846 107.338 37.1911C107.424 36.7677 108.818 35.9942 109.141 35.7075C111.368 34.3105 113.021 32.2668 113.778 29.8631C115.535 31.1931 116.955 32.0131 119.532 31.9228ZM86.0942 22.8747C86.9141 21.4545 87.5742 21.6778 87.9976 21.7644C89.1311 22.261 90.1414 23.7911 90.0181 24.8246C89.5849 26.9415 87.8315 28.6118 87.6082 29.2719C84.5347 30.4957 81.6478 31.6694 78.8109 33.0298C81.7076 29.6525 84.8776 25.8018 86.0942 22.8747ZM40.0112 48.0281C41.318 47.678 42.5381 47.7512 43.8949 47.5877C42.2416 49.6314 40.2649 51.9619 38.4749 54.2423C36.5714 55.3526 34.6045 55.4794 32.911 55.1329C35.4477 52.6524 38.5811 49.4117 40.0112 48.0281ZM14.2891 57.3214C13.3789 56.1647 10.935 53.0178 8.92791 50.7544C10.6081 50.3042 12.0515 49.7174 13.6816 49.0805C16.9419 47.8068 17.7887 47.98 18.0254 48.1167C25.4767 53.5233 31.3747 61.347 40.1086 56.6057C40.2953 56.5557 69.4669 37.7344 101.636 27.1138C104.387 26.1768 107.747 25.2764 110.251 26.4063C110.724 26.6797 111.247 27.1397 111.721 27.413C110.184 33.6272 104.594 32.9242 104.661 36.908C104.638 38.3148 105.598 39.6582 107.105 40.0548C110.405 41.1713 119.079 38.4469 123.502 31.0591C127.199 30.6687 129.316 31.1019 130.277 32.4453C131.624 34.4854 129.984 37.3259 128.28 39.1829C119.727 49.0781 107.246 54.023 94.9516 58.918C89.8745 60.8786 86.7509 61.9157 80.1804 64.2765C80.527 62.5829 80.8235 60.7027 80.9834 59.0592C80.7967 59.1092 81.1701 59.0092 80.9834 59.0592C81.1066 58.0257 80.2965 57.2424 79.3631 57.4925C73.6125 58.4331 68.2853 59.4603 62.8715 60.9109C62.3115 61.061 61.9881 61.3477 61.9015 61.7711C60.5983 65.1216 59.6184 68.1854 58.3519 70.9258C52.1413 72.3898 41.4869 74.4443 35.3594 72.4846C34.0392 72.038 32.2956 71.5048 30.6887 70.7348C32.9888 68.1177 35.4255 65.2638 36.8921 63.2701C37.7621 62.0366 36.2785 60.2331 34.9351 61.1934C34.6117 61.4801 32.8815 61.7436 31.3381 61.9571C29.6079 62.2206 27.5043 62.5842 25.4508 63.1344C25.0775 63.2345 24.7541 63.5212 24.6175 63.7579C24.2075 64.468 23.6108 65.2281 23.2008 65.9382C21.2572 64.6583 16.2095 60.0082 14.2891 57.3214ZM23.175 75.5493L19.628 76.4997C21.778 73.3225 24.8479 69.0985 26.6746 66.208C28.3547 65.7578 30.2716 65.4442 31.8151 65.2308L32.0017 65.1807C28.645 69.0815 24.965 73.2689 23.175 75.5493ZM64.0952 63.9845C68.5756 62.784 72.7827 62.0569 77.3632 61.2297C76.4333 64.4802 77.5534 64.18 71.1839 78.4922C66.801 88.2703 56.5638 95.6154 44.9492 96.3265C55.4695 86.3044 59.2192 77.8965 64.0952 63.9845ZM74.6149 84.5759C73.8815 85.5728 71.9647 85.8863 70.9678 85.153C72.0245 83.8694 73.0312 82.3991 74.0378 80.9289C75.0346 81.6622 75.3482 83.5791 74.6149 84.5759ZM77.7143 73.7411C78.3476 72.3709 78.7942 71.0507 79.2408 69.7305C81.1844 71.0105 80.1546 73.8876 77.7143 73.7411Z" fill="black"/>
<path d="M43.0562 64.6197C43.9897 64.3696 44.3996 63.6595 44.1495 62.7261C43.8994 61.7926 43.0026 61.4327 42.2559 61.6328C41.5092 61.8328 40.9125 62.593 41.1626 63.5264C41.4127 64.4598 42.3095 64.8198 43.0562 64.6197ZM50.9836 62.0954L51.1202 61.8587C51.5302 61.1486 51.2801 60.2152 50.57 59.8052C49.8599 59.3952 48.9265 59.6453 48.5165 60.3554L48.5665 60.5421C48.1565 61.2522 48.4066 62.1856 49.1168 62.5956C49.8269 63.0056 50.7603 62.7555 50.9836 62.0954ZM58.1142 59.5845C58.8609 59.3844 59.4576 58.6243 59.2075 57.6909L59.1574 57.5042C58.9574 56.7574 58.1972 56.1608 57.2638 56.4109C56.3304 56.661 55.9204 57.3711 56.1705 58.3045L56.2205 58.4912C56.4706 59.4246 57.3674 59.7846 58.1142 59.5845ZM64.4346 56.2903C65.008 56.9369 65.8048 56.9235 66.4515 56.3501C67.0982 55.7766 67.0848 54.9799 66.5113 54.3332L66.2246 54.0098C65.6511 53.3631 64.8544 53.3766 64.2077 53.95C63.561 54.5235 63.5744 55.3202 64.1479 55.9669L64.4346 56.2903ZM74.3288 53.6391L74.4655 53.4024C74.8755 52.6923 74.6254 51.7589 73.9152 51.3489C73.2051 50.9389 72.2717 51.189 71.8617 51.8991L71.7251 52.1358C71.3151 52.8459 71.5652 53.7794 72.2753 54.1893C72.9854 54.5993 73.9188 54.3492 74.3288 53.6391ZM82.5929 51.6248L82.7296 51.3881C83.1395 50.678 82.8894 49.7446 82.1793 49.3346C81.4692 48.9246 80.5358 49.1747 80.1258 49.8849L79.9891 50.1216C79.5792 50.8317 79.8293 51.7651 80.5394 52.1751C81.2495 52.5851 82.1829 52.335 82.5929 51.6248ZM88.28 49.7008L88.4667 49.6508C89.2135 49.4507 89.8101 48.6906 89.56 47.7571C89.3099 46.8237 88.5998 46.4137 87.6664 46.6638L87.4797 46.7139C86.733 46.914 86.1363 47.6741 86.3864 48.6075C86.6365 49.5409 87.5333 49.9009 88.28 49.7008ZM96.0573 46.6165C96.804 46.4164 97.3507 45.4695 97.1506 44.7228C97.0005 44.1628 96.4771 43.7028 95.867 43.6661C94.8336 43.5429 94.0502 44.353 94.3504 45.4731C94.6005 46.4065 95.3106 46.8165 96.0573 46.6165ZM102.614 43.4589C103.361 43.2588 103.958 42.4986 103.708 41.5652L103.658 41.3785C103.458 40.6318 102.697 40.0351 101.764 40.2853C100.831 40.5354 100.421 41.2455 100.671 42.1789L100.721 42.3656C100.971 43.299 101.868 43.659 102.614 43.4589ZM34.4499 40.7144C34.8233 40.6144 35.1466 40.3276 35.4199 39.8542C35.8299 39.1441 35.3931 38.2607 34.683 37.8507L30.3357 35.8142C29.6256 35.4042 28.7422 35.841 28.3322 36.5511C27.9222 37.2613 28.359 38.1446 29.0691 38.5546C33.1297 40.2678 33.7032 40.9145 34.4499 40.7144ZM37.8066 36.8137C38.5533 36.6136 39.1 35.6668 38.7132 34.9701L35.5654 26.2094C35.3654 25.4626 34.4686 25.1027 33.7218 25.3027C32.9751 25.5028 32.6151 26.3996 32.8152 27.1464L35.963 35.9071C36.3498 36.6038 37.2466 36.9638 37.8066 36.8137ZM44.8872 34.1161C45.5205 32.7459 45.7304 31.2891 45.5169 29.7456C45.5035 28.9488 44.7433 28.3521 43.9466 28.3655C43.1498 28.3789 42.5531 29.1391 42.5665 29.9358C42.63 30.9193 42.5067 31.9527 42.1467 32.8495C41.7368 33.5597 42.1736 34.443 42.8837 34.853C43.7805 35.213 44.6639 34.7762 44.8872 34.1161Z" fill="black"/>
</svg>
