<svg width="90" height="96" viewBox="0 0 90 96" fill="none" xmlns="http://www.w3.org/2000/svg">
<path d="M25.7705 17.805C25.0982 14.8469 21.468 15.6537 19.7202 17.1327C17.4345 19.0152 17.0312 22.5111 17.4345 25.2003C18.1068 28.024 19.8546 30.7131 22.5437 31.9233C25.2327 33.2679 28.4595 32.8645 31.1485 31.3854C33.8376 29.9064 35.7199 27.2171 35.8543 24.1246C35.9888 21.032 34.3754 17.805 31.8208 16.057C28.9973 14.309 25.5016 14.7125 22.947 16.8638C20.3924 18.8807 19.3168 22.9145 21.3336 25.7381C23.3504 28.2928 27.7873 27.6205 29.1318 24.7969C29.9385 23.1834 29.4007 21.1665 28.1906 19.9564C27.115 18.7462 24.9638 17.9395 23.4848 19.0151C22.947 19.4185 23.2159 20.2253 23.8882 20.3597C24.9638 20.4942 26.0394 20.6287 26.8461 21.5699C27.5184 22.3766 27.7873 23.4523 27.115 24.3935C26.5772 25.0658 25.6361 25.3347 24.8293 25.3347C23.4848 25.3347 22.6781 24.3935 22.4092 23.0489C21.8714 20.7631 23.4848 18.6118 25.3671 17.6705C27.5184 16.4604 29.9385 16.9983 31.6863 18.6118C35.0476 21.8388 34.3754 27.0827 30.4763 29.5029C26.7116 31.9232 21.7369 30.8476 19.8546 26.6793C18.9135 24.528 18.779 22.1077 19.7202 19.9564C20.258 19.0151 20.9302 18.0739 22.0059 17.6705C23.0815 17.1327 24.5604 16.9982 25.2327 18.0739C25.5016 18.3428 25.9049 18.2084 25.7705 17.805Z" fill="black"/>
<path d="M24.8308 14.9817C25.9065 11.8891 26.9821 8.66209 26.0409 5.43507C25.3686 3.14926 23.4863 0.863418 21.0662 0.191121C15.957 -1.15347 13.1336 4.8972 14.6125 8.93098C15.6881 12.158 18.2427 14.3094 20.7973 16.3262C21.7385 16.9985 22.6796 15.5195 22.0073 14.7127C18.1083 9.73772 10.8479 7.58637 4.93199 9.33434C2.10851 10.1411 -0.849421 12.4269 0.226191 15.6539C1.0329 18.3431 4.12531 19.8222 6.67989 20.36C10.8479 21.1668 15.4192 20.36 19.4528 19.0154C20.5284 18.6121 20.3939 16.9985 19.1839 16.9985C15.6881 16.8641 12.1924 17.6709 9.1 19.1499C6.27652 20.4945 3.18412 22.6458 2.1085 25.7384C1.16734 28.2931 2.1085 31.6546 4.79753 32.7303C7.62102 33.9404 11.1168 32.7303 13.5369 31.3857C16.6293 29.7722 19.1839 27.2174 20.7973 24.1249C21.3351 23.1837 20.3939 21.9736 19.3183 22.6459C14.0747 26.0073 9.36892 31.9236 8.69666 38.3776C8.42776 41.0668 9.23443 44.2938 12.1924 45.1006C15.4192 46.0418 18.9149 43.487 21.0662 41.2012C23.6208 38.512 25.0997 35.1506 25.5031 31.3857C25.6375 30.579 24.4275 30.0411 23.7552 30.4445C19.4528 33.6715 20.2595 41.2013 25.3686 43.0837C30.8811 45.235 36.9314 40.3945 36.3936 34.6128C36.1247 31.2513 33.9735 28.0242 30.8812 26.6796C29.6711 26.1418 28.5955 27.3519 29.4022 28.4276C33.0324 32.8647 39.6205 32.5958 44.4607 31.1168C47.1498 30.31 49.7043 28.9655 49.8388 25.8729C49.8388 23.4526 48.2254 20.8979 46.0742 19.8222C42.444 17.9398 38.1415 19.4188 34.6458 20.7634C33.4357 21.3012 33.5702 22.9148 34.9147 22.9148C39.6205 23.3182 44.7296 19.6877 44.4607 14.7127C44.1918 9.87218 39.3516 5.83846 34.6458 8.39319C32.2257 9.73779 30.8811 12.427 31.419 15.1162C31.5534 16.0574 32.8979 16.1918 33.3013 15.385C35.5869 10.8134 35.587 5.56954 33.4357 0.997926C33.3013 0.594548 32.8979 0.325597 32.629 0.460056C25.2342 0.997894 20.5284 9.87223 24.1586 16.1918C24.8308 17.402 26.5787 16.3263 25.9064 15.2506C23.083 10.2756 26.8476 3.01478 32.629 2.47695C32.2705 2.38731 31.9567 2.25286 31.6878 2.07359C33.4357 5.83845 33.4357 10.41 31.5534 14.3094C32.1809 14.399 32.8083 14.4887 33.4357 14.5783C33.0324 12.2925 34.9147 10.2756 37.0659 9.73779C39.0827 9.33441 41.0994 10.8134 41.9062 12.6958C43.7885 17.2674 39.2171 21.1668 34.9147 20.7634C35.0043 21.4805 35.0939 22.1977 35.1836 22.9148C38.1415 21.8391 42.444 19.9566 45.5364 22.108C47.2842 23.3181 48.6288 26.4107 46.3431 27.8898C45.133 28.6966 43.654 29.0999 42.1751 29.3688C40.8306 29.6377 39.486 29.8171 38.1415 29.9067C35.4525 29.7722 32.7634 29.0999 31.0156 26.8141C30.5674 27.4415 30.1192 28.0243 29.6711 28.5621C32.2256 29.7722 34.108 32.3269 34.2424 35.1506C34.2424 37.9742 32.4945 40.26 29.8055 41.0668C27.5198 41.7391 24.8308 41.0668 23.7552 38.6465C22.814 36.6297 22.9485 33.806 24.9653 32.4614C24.4275 32.1028 23.8448 31.7443 23.2174 31.3857C22.9485 34.8817 21.3351 37.9742 18.7805 40.3945C16.8982 42.1425 12.1924 45.1005 11.1168 40.9323C10.3101 37.9742 11.9235 34.4783 13.268 31.9236C15.0159 28.9655 17.5704 26.2762 20.5284 24.3938C19.9906 23.9456 19.4976 23.4974 19.0494 23.0492C17.5704 25.7384 15.2848 28.0242 12.4613 29.5032C10.3101 30.7134 5.33534 32.5959 4.12528 29.2344C2.91521 26.0074 6.14208 23.1837 8.69666 21.7046C11.789 19.8222 15.4192 19.0154 19.1839 19.0154C19.0942 18.388 19.0046 17.7157 18.9149 16.9985C15.2848 18.3431 10.7134 19.1499 6.94877 18.3431C4.79754 17.8053 0.226183 15.5195 2.78076 12.8303C3.85637 11.6202 5.87315 11.2168 7.48656 10.9479C8.96553 10.8134 10.579 10.8135 12.0579 11.0824C15.4192 11.7547 18.3772 13.6371 20.5284 16.1918C20.9765 15.654 21.3799 15.1161 21.7384 14.5783C19.5872 12.9648 17.0326 10.9479 16.2259 8.25868C15.5537 6.24179 16.0915 3.55265 17.9738 2.34252C20.2595 0.863467 22.9485 2.74585 24.0241 4.8972C25.5031 7.8553 24.4275 11.6202 23.6207 14.5783C23.4863 15.385 24.5619 15.6539 24.8308 14.9817Z" fill="black"/>
<path d="M67.8564 26.0072C66.3775 28.0241 64.8985 31.1167 66.7808 33.4025C68.1253 35.016 70.411 34.8816 72.0244 33.9404C74.0412 32.5958 74.7134 30.4444 73.7723 28.2931C72.8311 25.8728 70.2765 24.5282 67.8564 24.3937C67.8564 25.0212 67.8564 25.6487 67.8564 26.2762C71.2177 26.1417 71.0832 21.3012 71.0832 18.8809C70.8143 15.385 69.6043 11.889 66.3774 10.2755C63.6884 8.79643 60.3271 9.33425 58.5792 12.0234C56.8314 14.4437 56.8314 17.9396 57.907 20.7633C59.2515 24.1248 61.9405 26.814 65.3018 28.1586C66.243 28.5619 66.7808 27.2174 66.243 26.5451C62.6128 21.839 55.218 20.4944 50.1088 23.587C47.4198 25.335 45.8063 28.562 47.8231 31.3856C49.571 33.9403 52.9323 35.016 55.8902 34.7471C59.2515 34.6126 62.3439 32.8647 64.2262 30.041C64.6296 29.5032 64.0918 28.562 63.4195 28.562C59.7893 28.8309 56.428 30.1755 53.4701 32.3268C50.9155 34.2093 47.8231 37.3019 47.1509 40.6633C46.4786 44.2938 49.8399 46.9829 53.2012 47.1174C56.9658 47.3863 60.7305 44.8315 63.4195 42.2768C64.764 41.0667 65.8396 39.5876 66.7808 38.1086C67.5875 36.764 68.2598 35.2849 67.722 33.8059C67.1842 32.3268 65.4363 31.9235 64.2262 32.7302C62.7472 33.8059 62.3439 35.9572 61.9405 37.5707C61.4027 39.7221 60.8649 41.739 60.596 43.8903C60.3271 45.6383 60.596 47.3863 61.9405 48.7309C64.0917 50.8823 67.722 50.3444 70.2765 49.1343C73.7723 47.5208 76.7302 44.2937 77.1336 40.3944C77.5369 36.764 75.5201 33.1336 72.1588 31.789C71.2177 31.3856 70.5454 32.5958 70.9488 33.4025C72.2933 36.3606 74.8479 38.6464 77.8058 39.7221C80.7638 40.7978 84.5284 40.7977 87.083 38.9153C90.0409 36.764 89.5031 32.9991 87.3519 30.4444C84.7973 27.7552 80.7638 26.1417 77.1336 25.6039C75.6546 25.335 73.9067 25.2005 72.6966 26.2762C71.621 27.3519 71.4866 28.8309 72.0244 30.041C72.6966 31.3856 73.9067 32.3268 75.2513 32.4613C77.268 32.7302 79.1503 31.9235 80.7637 30.9823C83.7217 29.3687 86.5452 27.3519 86.6796 23.587C86.8141 20.6289 85.0662 17.6707 82.3772 16.3262C79.0159 14.7126 74.8479 15.6538 72.1588 18.0741C69.0665 20.6288 67.8564 24.9315 68.2598 28.8309C68.2598 30.041 70.2765 30.1754 70.1421 28.8309C70.0076 23.8559 72.5622 18.0741 78.2092 17.6707C80.6293 17.5363 82.7805 18.6119 83.9906 20.7633C85.0662 22.7802 84.7973 25.2005 83.0494 26.814C82.2427 27.7552 81.1671 28.2931 80.0915 28.9654C78.747 29.6377 77.1336 30.7133 75.6546 30.4444C74.8479 30.3099 73.9067 29.5032 73.9067 28.562C73.9067 27.3519 75.7891 27.4863 76.5958 27.6208C79.2848 28.0241 82.3772 29.0998 84.5284 30.8477C86.4107 32.3268 88.293 35.1505 86.0074 37.0329C83.9906 38.7809 80.8982 38.512 78.6125 37.7052C76.058 36.764 73.9067 34.7471 72.8311 32.1923C72.3829 32.8198 71.9796 33.4025 71.621 33.9404C73.7723 34.7471 74.9823 37.3018 74.9823 39.5876C74.9823 42.0079 73.5034 44.2937 71.621 45.7728C69.8732 47.2518 67.3186 48.4619 65.0329 47.9241C61.9405 47.2518 62.6128 43.8903 63.1506 41.6045C63.4195 40.0806 63.778 38.5568 64.2262 37.0329C64.3607 36.764 65.4363 33.537 65.7052 34.7471C65.9741 35.6883 65.0329 37.0329 64.4951 37.7052C63.6884 38.9602 62.7473 40.0807 61.6716 41.0667C59.6549 42.9491 56.9658 44.6971 54.2768 45.1005C51.5878 45.3694 48.2265 43.487 49.4366 40.3944C50.3777 37.7052 52.6634 35.285 55.0835 33.6714C57.5037 31.9235 60.3271 30.8478 63.4195 30.5789C63.1506 30.0411 62.8369 29.548 62.4784 29.0998C60.8649 31.5201 57.907 32.8646 54.9491 32.8646C52.3945 32.7302 47.4198 30.7133 49.3021 27.3518C50.6466 24.6626 54.4112 23.8559 57.2347 23.9904C60.1927 24.2593 62.8817 25.6039 64.8985 27.8897C65.1674 27.3519 65.4811 26.814 65.8396 26.2762C62.8817 25.2005 60.596 22.6457 59.5204 19.6876C58.7137 17.2674 58.8481 13.6369 61.2683 12.0234C63.9573 10.141 67.3186 12.6957 68.3942 15.3849C68.932 16.9984 69.0665 18.8809 69.0665 20.7633C69.0665 21.5701 69.0665 24.3937 67.8564 24.3937C66.6464 24.3937 66.5119 26.2762 67.8564 26.2762C69.4698 26.4106 71.0833 27.2174 71.89 28.562C72.6967 29.9066 72.4278 31.5201 71.2177 32.3268C70.1421 32.9991 68.6631 33.268 67.8564 32.1923C66.7808 30.4444 68.1253 28.1586 69.0665 26.6795C69.4698 25.8728 68.3942 25.3349 67.8564 26.0072Z" fill="black"/>
<path d="M28.5936 39.0497C30.6104 53.5714 31.8204 68.093 31.9549 82.749C31.9549 86.7828 31.686 90.951 31.9549 94.9848C31.9549 96.195 33.5683 96.0605 33.7027 94.9848C34.1061 91.3544 33.9717 87.5895 33.8372 83.9591C33.8372 80.2839 33.7476 76.6087 33.5683 72.9335C33.2098 65.5831 32.5823 58.2326 31.686 50.8822C31.1482 46.7587 30.5207 42.725 29.8037 38.7808C29.5348 37.9741 28.4592 38.243 28.5936 39.0497Z" fill="black"/>
<path d="M58.174 46.5797C57.6362 54.2438 57.2329 61.908 56.5606 69.4378C56.0228 77.1019 55.0817 84.6317 54.006 92.2958C53.8716 93.6404 56.0228 94.3128 56.1573 92.8337C57.2329 85.2143 58.0396 77.5501 58.5774 69.8411C59.1152 62.1769 59.5185 54.3783 59.2496 46.5797C59.2496 45.9074 58.174 45.9074 58.174 46.5797Z" fill="black"/>
</svg>
