<svg width="158" height="64" viewBox="0 0 158 64" fill="none" xmlns="http://www.w3.org/2000/svg">
<path fill-rule="evenodd" clip-rule="evenodd" d="M158 32.2775C158 46.0201 143.754 57.2004 126.243 57.2004H31.7523C14.2459 57.2004 0 46.0201 0 32.2775C0 18.5348 14.2459 7.35449 31.7523 7.35449H126.243C143.754 7.35449 158 18.5348 158 32.2775ZM31.7523 10.7893C16.6355 10.7893 4.37661 20.4102 4.37661 32.2775C4.37661 44.1447 16.6355 53.7656 31.7523 53.7656H126.243C141.365 53.7656 153.623 44.1447 153.623 32.2775C153.623 20.4102 141.365 10.7893 126.243 10.7893H31.7523Z" fill="black"/>
<path d="M31.7515 55.4795C15.4486 55.4795 2.1875 45.0686 2.1875 32.2739C2.1875 19.4793 15.4486 9.06836 31.7515 9.06836H126.243C142.545 9.06836 155.811 19.4793 155.811 32.2739C155.811 45.0686 142.545 55.4795 126.243 55.4795H31.7515Z" fill="url(#paint0_radial_1397_279)"/>
<path d="M79.0018 20.7156C79.0018 12.7331 76.3846 10.6757 66.209 10.6757C76.3846 10.6757 79.0018 8.61824 79.0018 0.635742C79.0018 8.61824 81.6234 10.6757 91.7947 10.6757C81.6234 10.6757 79.0018 12.7331 79.0018 20.7156Z" fill="white"/>
<path d="M79.0018 63.741C79.0018 55.7585 76.3846 53.7011 66.209 53.7011C76.3846 53.7011 79.0018 51.6436 79.0018 43.6611C79.0018 51.6436 81.6234 53.7011 91.7947 53.7011C81.6234 53.7011 79.0018 55.7585 79.0018 63.741Z" fill="white"/>
<defs>
<radialGradient id="paint0_radial_1397_279" cx="0" cy="0" r="1" gradientTransform="matrix(275.307 0.359968 -0.458669 216.064 -29.2602 30.4816)" gradientUnits="userSpaceOnUse">
<stop stop-color="#AF65BF"/>
<stop offset="0.374" stop-color="#FD609D"/>
<stop offset="0.571" stop-color="#B7647B"/>
<stop offset="0.779" stop-color="#E5DCD5"/>
</radialGradient>
</defs>
</svg>
