<svg width="158" height="64" viewBox="0 0 158 64" fill="none" xmlns="http://www.w3.org/2000/svg">
<path fill-rule="evenodd" clip-rule="evenodd" d="M158 32.5362C158 46.2789 143.754 57.4592 126.243 57.4592H31.7523C14.2459 57.4592 0 46.2789 0 32.5362C0 18.7936 14.2459 7.61328 31.7523 7.61328H126.243C143.754 7.61328 158 18.7936 158 32.5362ZM31.7523 11.0481C16.6355 11.0481 4.37661 20.669 4.37661 32.5362C4.37661 44.4035 16.6355 54.0244 31.7523 54.0244H126.243C141.365 54.0244 153.623 44.4035 153.623 32.5362C153.623 20.669 141.365 11.0481 126.243 11.0481H31.7523Z" fill="white"/>
<path d="M31.7515 55.7383C15.4486 55.7383 2.1875 45.3274 2.1875 32.5327C2.1875 19.7381 15.4486 9.32715 31.7515 9.32715H126.243C142.545 9.32715 155.811 19.7381 155.811 32.5327C155.811 45.3274 142.545 55.7383 126.243 55.7383H31.7515Z" fill="url(#paint0_radial_1398_286)"/>
<path d="M79.0011 20.9744C79.0011 12.9919 76.3839 10.9345 66.2083 10.9345C76.3839 10.9345 79.0011 8.87702 79.0011 0.894531C79.0011 8.87702 81.6227 10.9345 91.7939 10.9345C81.6227 10.9345 79.0011 12.9919 79.0011 20.9744Z" fill="white"/>
<path d="M79.0011 63.9998C79.0011 56.0173 76.3839 53.9599 66.2083 53.9599C76.3839 53.9599 79.0011 51.9024 79.0011 43.9199C79.0011 51.9024 81.6227 53.9599 91.7939 53.9599C81.6227 53.9599 79.0011 56.0173 79.0011 63.9998Z" fill="white"/>
<defs>
<radialGradient id="paint0_radial_1398_286" cx="0" cy="0" r="1" gradientTransform="matrix(275.307 0.359968 -0.458669 216.064 -29.2602 30.7404)" gradientUnits="userSpaceOnUse">
<stop stop-color="#AF65BF"/>
<stop offset="0.374" stop-color="#FD609D"/>
<stop offset="0.571" stop-color="#B7647B"/>
<stop offset="0.779" stop-color="#E5DCD5"/>
</radialGradient>
</defs>
</svg>
