<svg width="68" height="68" viewBox="0 0 68 68" fill="none" xmlns="http://www.w3.org/2000/svg">
<path d="M31.687 51.2109C31.2763 50.1885 27.2212 39.7348 27.1602 25.8897C27.1553 24.7928 26.2648 23.9062 25.168 23.9062H14.543C14.2807 23.9063 14.0209 23.9581 13.7786 24.0588C13.5363 24.1595 13.3163 24.307 13.1312 24.4929C12.9461 24.6789 12.7995 24.8995 12.6999 25.1422C12.6004 25.385 12.5497 25.645 12.5508 25.9073C12.6146 40.0053 8.15925 51.2037 8.11476 51.3138C7.9921 51.6163 7.94565 51.9442 7.97948 52.2688C8.01332 52.5934 8.12641 52.9047 8.3088 53.1753C8.49106 53.4461 8.73706 53.6679 9.02516 53.8212C9.31325 53.9745 9.63462 54.0547 9.96099 54.0547H29.8855C30.9857 54.0547 31.8777 53.1627 31.8777 52.0625C31.8777 51.7578 31.8093 51.4691 31.687 51.2109Z" fill="#453D81"/>
<path d="M31.6869 51.2109C31.2763 50.1885 27.2211 39.7348 27.1602 25.8897C27.1552 24.7928 26.2647 23.9062 25.168 23.9062H19.9219V54.0547H29.8855C30.9857 54.0547 31.8777 53.1627 31.8777 52.0625C31.8777 51.7578 31.8093 51.4691 31.6869 51.2109Z" fill="#2E2654"/>
<path d="M30.5469 9.96094C30.3251 9.96094 29.1611 10.0041 28.0234 10.8574C27.309 11.3932 26.494 12.3343 26.1144 13.9453H21.9141V9.96094C21.9141 8.86072 21.0221 7.96875 19.9219 7.96875C18.8217 7.96875 17.9297 8.86072 17.9297 9.96094V13.9453H13.7294C13.3498 12.3343 12.5347 11.3932 11.8203 10.8574C10.6826 10.0041 9.51867 9.96094 9.29688 9.96094C8.19666 9.96094 7.30469 10.8529 7.30469 11.9531C7.30469 13.0243 8.15004 13.898 9.21002 13.9435C9.66676 14.0168 9.96094 14.7962 9.96094 15.9375V22.5781C9.96094 23.6783 10.8529 24.5703 11.9531 24.5703H27.8906C28.9908 24.5703 29.8828 23.6783 29.8828 22.5781V15.9375C29.8828 14.7962 30.177 14.0168 30.6337 13.9435C31.6937 13.898 32.5391 13.0243 32.5391 11.9531C32.5391 10.8529 31.6471 9.96094 30.5469 9.96094Z" fill="#453D81"/>
<path d="M30.5469 9.96094C30.3251 9.96094 29.1611 10.0041 28.0234 10.8574C27.309 11.3932 26.494 12.3343 26.1144 13.9453H21.9141V9.96094C21.9141 8.86072 21.0221 7.96875 19.9219 7.96875V24.5703H27.8906C28.9908 24.5703 29.8828 23.6783 29.8828 22.5781V15.9375C29.8828 14.7962 30.177 14.0168 30.6337 13.9435C31.6937 13.898 32.5391 13.0243 32.5391 11.9531C32.5391 10.8529 31.6471 9.96094 30.5469 9.96094Z" fill="#2E2654"/>
<path d="M7.96875 58.0391C5.77177 58.0391 3.98438 56.2517 3.98438 54.0547C3.98438 51.8577 5.77177 50.0703 7.96875 50.0703H31.875C34.072 50.0703 35.8594 51.8577 35.8594 54.0547C35.8594 56.2517 34.072 58.0391 31.875 58.0391V59.3672H7.96875V58.0391Z" fill="#5E54AC"/>
<path d="M31.875 50.0703H19.9219V59.3672H31.875V58.0391C34.072 58.0391 35.8594 56.2517 35.8594 54.0547C35.8594 51.8577 34.072 50.0703 31.875 50.0703Z" fill="#453D81"/>
<path d="M33.8672 58.0391H5.97656C2.68109 58.0391 0 60.7201 0 64.0156V66.0078C0 67.108 0.891969 68 1.99219 68H34.9739L39.8438 64.0156C39.8438 60.7201 37.1627 58.0391 33.8672 58.0391Z" fill="#453D81"/>
<path d="M33.8672 58.0391H19.9219V68H34.9739L39.8438 64.0156C39.8438 60.7201 37.1627 58.0391 33.8672 58.0391Z" fill="#2E2654"/>
<path d="M30.5469 25.8984H9.29688C8.19666 25.8984 7.30469 25.0065 7.30469 23.9062C7.30469 22.806 8.19666 21.9141 9.29688 21.9141H30.5469C31.6471 21.9141 32.5391 22.806 32.5391 23.9062C32.5391 25.0065 31.6471 25.8984 30.5469 25.8984Z" fill="#5E54AC"/>
<path d="M30.5469 21.9141H19.9219V25.8984H30.5469C31.6471 25.8984 32.5391 25.0065 32.5391 23.9062C32.5391 22.806 31.6471 21.9141 30.5469 21.9141Z" fill="#453D81"/>
<path d="M19.9219 11.9531C23.2226 11.9531 25.8984 9.27733 25.8984 5.97656C25.8984 2.6758 23.2226 0 19.9219 0C16.6211 0 13.9453 2.6758 13.9453 5.97656C13.9453 9.27733 16.6211 11.9531 19.9219 11.9531Z" fill="#5E54AC"/>
<path d="M19.9219 0V11.9531C23.2174 11.9531 25.8984 9.27204 25.8984 5.97656C25.8984 2.68109 23.2174 0 19.9219 0Z" fill="#453D81"/>
<path d="M61.4541 58.2481L61.4505 58.2464C61.0898 58.0229 56.5776 54.9657 56.5776 42.5885C56.5776 41.4882 55.6856 40.5963 54.5854 40.5963H46.6166C45.5164 40.5963 44.6245 41.4882 44.6245 42.5885C44.6245 54.9913 40.1087 58.0271 39.7553 58.2445C38.8936 58.6145 38.4536 59.5173 38.6367 60.4407C38.8219 61.3735 39.6893 62.0234 40.6401 62.0234H60.5646C60.6217 62.0234 60.6783 62.0211 60.7342 62.0163C61.6142 61.9435 62.3889 61.3185 62.564 60.4442C62.7483 59.5232 62.3119 58.6213 61.4541 58.2481Z" fill="#FFB454"/>
<path d="M61.4549 58.2481L61.4513 58.2464C61.0906 58.0229 56.5784 54.9657 56.5784 42.5885C56.5784 41.4882 55.6864 40.5963 54.5862 40.5963H50.6016V62.0234H60.5654C60.6225 62.0234 60.6791 62.0211 60.735 62.0163C61.615 61.9435 62.3897 61.3185 62.5648 60.4442C62.7491 59.5232 62.3127 58.6213 61.4549 58.2481Z" fill="#FF8659"/>
<path d="M57.0037 18.3062C55.3739 15.9287 53.0407 14.5651 50.6023 14.5651C48.1638 14.5651 45.8306 15.9287 44.2008 18.3062C42.7048 20.4887 41.8809 23.354 41.8809 26.3743C41.8809 29.7549 42.7244 30.9986 43.5627 32.6276L43.8246 33.533C43.9915 33.8601 44.2455 34.1348 44.5587 34.3265C44.8719 34.5183 45.232 34.6198 45.5992 34.6198H55.6053C55.9725 34.6198 56.3326 34.5183 56.6458 34.3265C56.959 34.1348 57.213 33.8601 57.3799 33.533C57.4345 33.426 57.4984 32.7197 57.5533 32.6132C58.3873 30.9943 59.3238 29.7593 59.3238 26.3744C59.3237 23.354 58.4997 20.4889 57.0037 18.3062Z" fill="#FFB454"/>
<path d="M57.0033 18.3062C55.3735 15.9287 53.0403 14.5651 50.6018 14.5651H50.6016V34.6198H55.6049C55.9721 34.6198 56.3322 34.5183 56.6454 34.3265C56.9585 34.1348 57.2126 33.8601 57.3795 33.533C57.4341 33.426 57.498 32.7197 57.5528 32.6132C58.3869 30.9943 59.3234 29.7593 59.3234 26.3744C59.3232 23.354 58.4993 20.4889 57.0033 18.3062Z" fill="#FF8659"/>
<path d="M62.0234 58.0391H39.1797C35.8842 58.0391 33.2031 60.7201 33.2031 64.0156V66.0078C33.2031 67.108 34.0951 68 35.1953 68H66.0078C67.108 68 68 67.108 68 66.0078V64.0156C68 60.7201 65.3189 58.0391 62.0234 58.0391Z" fill="#FFED6A"/>
<path d="M62.0237 58.0391H50.6016V68H66.0081C67.1083 68 68.0003 67.108 68.0003 66.0078V64.0156C68.0003 60.7201 65.3192 58.0391 62.0237 58.0391Z" fill="#FFB454"/>
<path d="M61.8906 38.6042H60.4505C59.6529 38.0978 57.5802 36.4168 57.5524 32.6132L43.562 32.6276C43.562 36.5204 41.5439 38.1307 40.7724 38.6042H39.3125C38.2123 38.6042 37.3203 39.4962 37.3203 40.5964C37.3203 41.6966 38.2123 42.5886 39.3125 42.5886H61.8906C62.9908 42.5886 63.8828 41.6966 63.8828 40.5964C63.8828 39.4962 62.9908 38.6042 61.8906 38.6042Z" fill="#FFED6A"/>
<path d="M61.8909 38.6042H60.4508C59.6531 38.0978 57.5805 36.4168 57.5527 32.6132L50.6016 32.6203V42.5886H61.8909C62.9911 42.5886 63.8831 41.6966 63.8831 40.5964C63.8831 39.4962 62.9911 38.6042 61.8909 38.6042Z" fill="#FFB454"/>
<path d="M50.6016 18.5495C53.9023 18.5495 56.5781 15.8737 56.5781 12.573C56.5781 9.2722 53.9023 6.5964 50.6016 6.5964C47.3008 6.5964 44.625 9.2722 44.625 12.573C44.625 15.8737 47.3008 18.5495 50.6016 18.5495Z" fill="#FFED6A"/>
<path d="M50.6018 6.5964H50.6016V18.5495H50.6017C53.8973 18.5495 56.5784 15.8684 56.5784 12.573C56.5784 9.27748 53.8973 6.5964 50.6018 6.5964Z" fill="#FFB454"/>
</svg>
