<svg width="21" height="21" viewBox="0 0 21 21" fill="none" xmlns="http://www.w3.org/2000/svg">
<path d="M19.0089 0.748166C19.1821 0.632647 19.39 0.580753 19.5972 0.601324C19.8044 0.621895 19.998 0.713659 20.1451 0.860983C20.2922 1.00831 20.3837 1.20208 20.404 1.40929C20.4243 1.61649 20.3721 1.82432 20.2563 1.99737L20.1411 2.13777L11.7765 10.5006L20.1411 18.8652L20.2563 19.0056C20.371 19.1786 20.4224 19.3861 20.4016 19.5927C20.3809 19.7993 20.2893 19.9924 20.1425 20.1392C19.9957 20.286 19.8026 20.3775 19.596 20.3983C19.3894 20.419 19.182 20.3677 19.0089 20.253L18.8685 20.1378L10.5039 11.7732L2.14111 20.1378C2.05809 20.2237 1.95878 20.2923 1.84897 20.3395C1.73917 20.3866 1.62107 20.4115 1.50157 20.4125C1.38207 20.4135 1.26356 20.3908 1.15295 20.3455C1.04234 20.3003 0.941858 20.2334 0.857354 20.1489C0.772851 20.0644 0.706023 19.9639 0.66077 19.8533C0.615517 19.7427 0.592746 19.6242 0.593784 19.5047C0.594822 19.3852 0.61965 19.2671 0.666818 19.1573C0.713986 19.0475 0.78255 18.9482 0.86851 18.8652L9.23131 10.5006L0.86851 2.13777L0.751509 1.99737C0.634919 1.82419 0.582155 1.61588 0.602252 1.40809C0.62235 1.20029 0.714058 1.00595 0.861676 0.858332C1.00929 0.710715 1.20364 0.619006 1.41143 0.598908C1.61922 0.578811 1.82754 0.631575 2.00071 0.748166L2.14111 0.865166L10.5039 9.22797L18.8685 0.865166L19.0089 0.748166Z" fill="black"/>
</svg>
