<svg width="29" height="22" viewBox="0 0 29 22" fill="none" xmlns="http://www.w3.org/2000/svg">
<path d="M25.6412 2.03419C27.2085 3.69881 28.0499 5.56581 28.0499 8.59226C28.0499 13.9178 24.3129 18.6911 18.8747 21.0511L17.5159 18.9543C22.5904 16.2093 23.5825 12.6473 23.9797 10.4014C23.1626 10.8244 22.0929 10.972 21.043 10.8746C18.298 10.6205 16.1343 8.36706 16.1343 5.56581C16.1343 4.15338 16.6954 2.7988 17.6941 1.80006C18.6929 0.80132 20.0475 0.240234 21.4599 0.240234C23.0926 0.240234 24.6552 0.985814 25.6412 2.03419ZM10.4253 2.03419C11.9925 3.69881 12.834 5.56581 12.834 8.59226C12.834 13.9178 9.09696 18.6911 3.65879 21.0511L2.30001 18.9543C7.37452 16.2093 8.3666 12.6473 8.76221 10.4014C7.94512 10.8244 6.87543 10.972 5.82706 10.8746C3.0821 10.6221 0.919922 8.36858 0.919922 5.56581C0.919922 4.15338 1.48101 2.7988 2.47975 1.80006C3.47848 0.80132 4.83307 0.240234 6.2455 0.240234C7.87816 0.240234 9.44084 0.985814 10.4268 2.03419" fill="#AF65BF"/>
</svg>
