<svg width="61" height="65" viewBox="0 0 61 65" fill="none" xmlns="http://www.w3.org/2000/svg">
<path d="M59.832 16.4111V48.1973L32.3047 64.0908L4.77637 48.1973V16.4111L32.3047 0.517578L59.832 16.4111Z" stroke="black" stroke-width="0.897349"/>
<path fill-rule="evenodd" clip-rule="evenodd" d="M39.6582 24.8305C40.1453 25.1394 39.6756 25.8793 39.189 25.5702L37.7921 24.682C37.3052 24.3728 37.7749 23.6334 38.2614 23.9424L39.6582 24.8305ZM40.1929 21.6002C40.7701 21.6002 40.7701 22.477 40.1929 22.477H38.58C38.0028 22.477 38.0028 21.6002 38.58 21.6002H40.1929ZM39.189 18.5069C39.6758 18.1981 40.1451 18.9373 39.6582 19.2465L38.2615 20.1347C37.7749 20.4436 37.3052 19.7043 37.7921 19.395L39.189 18.5069ZM24.3189 25.5703C23.832 25.879 23.3627 25.1397 23.8496 24.8305L25.2464 23.9424C25.7329 23.6335 26.2027 24.3728 25.7156 24.6821L24.3189 25.5703ZM23.3149 22.477C22.7378 22.477 22.7378 21.6002 23.3149 21.6002H24.9278C25.505 21.6002 25.505 22.477 24.9278 22.477H23.3149ZM23.8496 19.2466C23.3626 18.9377 23.8322 18.1978 24.3188 18.5069L25.7157 19.395C26.2027 19.7043 25.7329 20.4437 25.2465 20.1347L23.8496 19.2466ZM32.158 17.1042C32.0097 16.7508 31.5011 16.7433 31.3498 17.1042L30.05 20.1966L26.7078 20.4771C26.3291 20.5084 26.1623 20.9885 26.4577 21.2442L28.9978 23.4364L28.2311 26.7042C28.145 27.0726 28.551 27.3781 28.8835 27.1768L31.7539 25.4382L34.5952 27.1592C34.9193 27.3915 35.3688 27.0999 35.2767 26.7042L34.51 23.4363L37.0267 21.2643C37.345 21.0258 37.2041 20.5103 36.7999 20.4771L33.4577 20.1967L32.158 17.1042ZM32.7524 20.7806C32.7841 20.8562 32.8364 20.9214 32.9034 20.9688C32.9703 21.0162 33.0492 21.0438 33.1311 21.0486L35.6901 21.2633L33.7375 22.9485C33.6773 23.0007 33.6324 23.0683 33.6077 23.144C33.583 23.2197 33.5793 23.3007 33.5971 23.3784L34.1866 25.8912L31.9799 24.5546C31.9107 24.5127 31.8312 24.4909 31.7503 24.4915C31.6693 24.4922 31.5902 24.5154 31.5217 24.5584L29.3212 25.8912L29.9107 23.3784C29.9299 23.2961 29.9248 23.2101 29.8962 23.1306C29.8676 23.0512 29.8166 22.9817 29.7493 22.9305L27.8177 21.2633L30.3872 21.0477C30.4671 21.0411 30.5437 21.0127 30.6086 20.9656C30.6735 20.9185 30.7242 20.8545 30.7553 20.7806L31.7539 18.4046L32.7524 20.7806ZM29.8574 42.6743H17.9742C17.5272 42.6743 17.162 43.04 17.162 43.4864V46.896H46.3458V43.4864C46.3458 43.0396 45.9805 42.6743 45.5337 42.6743H33.6505V44.3037C33.6505 44.8804 32.7736 44.8804 32.7736 44.3037V39.5123C32.7736 38.9706 33.4232 39.0739 33.7886 39.0739L31.7539 36.3984L29.7192 39.0739C30.0846 39.0739 30.7342 38.9706 30.7342 39.5123V44.3038C30.7342 44.8804 29.8574 44.8804 29.8574 44.3038V42.6743ZM18.164 41.7974V38.9961C18.164 37.9027 19.0215 37.3071 20.0428 37.3071V34.5057C20.0428 33.414 20.9017 32.8167 21.9217 32.8167V30.0153C21.9217 29.0873 22.6827 28.3263 23.6106 28.3263H40.5234C41.4513 28.3263 42.2124 29.0874 42.2124 30.0153V32.8747C42.9432 33.0727 43.465 33.7411 43.465 34.5057V37.3071C44.485 37.3071 45.3438 37.9043 45.3438 38.9961V41.7974C46.3645 41.7974 47.2227 42.3939 47.2227 43.4864V47.3343C47.2227 47.3919 47.2114 47.4489 47.1894 47.5021C47.1673 47.5553 47.135 47.6036 47.0943 47.6443C47.0536 47.685 47.0053 47.7173 46.9521 47.7394C46.8989 47.7614 46.8419 47.7728 46.7843 47.7728H16.7236C16.6073 47.7728 16.4958 47.7266 16.4136 47.6444C16.3313 47.5621 16.2852 47.4506 16.2852 47.3344V43.4864C16.2852 42.3934 17.143 41.7974 18.164 41.7974ZM19.0408 41.7974V38.9961C19.0408 38.5511 19.4079 38.1839 19.8529 38.1839H29.2997L28.4899 39.2487C28.2701 39.5386 28.482 39.9489 28.8375 39.9487L29.8573 39.9507V41.7974H19.0408ZM33.6504 41.7974V39.9507H34.6701C35.0555 39.9507 35.248 39.4914 34.992 39.2147L34.208 38.1839H43.6547C44.1009 38.1839 44.4669 38.55 44.4669 38.9961V41.7974H33.6504ZM33.5413 37.3071L32.1015 35.4139C31.9238 35.1796 31.5729 35.1864 31.4017 35.4197L29.9665 37.3071H20.9197V34.5057C20.9197 34.0604 21.2861 33.6935 21.7318 33.6935H41.7759C42.2212 33.6935 42.5882 34.0598 42.5882 34.5057V37.3071H33.5413H33.5413ZM22.7985 32.8166H41.3355V30.0153C41.3355 29.571 40.9675 29.2031 40.5234 29.2031H23.6107C23.1664 29.2031 22.7985 29.571 22.7985 30.0152V32.8167V32.8166Z" fill="black"/>
</svg>
