<svg width="65" height="65" viewBox="0 0 65 65" fill="none" xmlns="http://www.w3.org/2000/svg">
<path d="M60.207 16.4111V48.1973L32.6797 64.0908L5.15137 48.1973V16.4111L32.6797 0.517578L60.207 16.4111Z" fill="#D9D9D9" stroke="black" stroke-width="0.897349"/>
<g clip-path="url(#clip0_1419_159)">
<path d="M41.7055 36.9858C41.7018 36.9821 41.338 36.6131 41.1481 36.0474C40.908 35.332 41.0502 34.6209 41.5707 33.934C41.6104 33.8816 41.6395 33.8218 41.6561 33.7581C41.6727 33.6945 41.6767 33.6282 41.6677 33.563C41.6587 33.4978 41.637 33.435 41.6037 33.3782C41.5704 33.3215 41.5263 33.2718 41.4739 33.2321C41.3679 33.1518 41.2345 33.1169 41.1028 33.1351C40.9712 33.1532 40.8521 33.2229 40.7718 33.3288C40.2825 33.9748 40.0737 34.6114 40.0388 35.1968C38.9395 36.1469 36.6253 36.3712 35.4578 35.6209C35.346 35.5515 35.2114 35.5288 35.0831 35.5578C34.9548 35.5868 34.843 35.6651 34.7719 35.7757C34.7008 35.8864 34.6761 36.0206 34.703 36.1493C34.73 36.2781 34.8065 36.3911 34.916 36.4639C36.2621 37.329 38.6264 37.2659 40.1819 36.3247C40.3708 36.9268 40.7077 37.4104 41.0015 37.6991C41.1982 37.8921 41.513 37.8893 41.7074 37.6935C41.9016 37.4977 41.9002 37.181 41.7055 36.9858ZM49.72 31.2434C49.386 29.3686 48.3124 27.7108 46.7487 26.6322C48.0306 23.383 45.8879 19.8113 42.4636 19.3607C41.3541 17.2261 39.211 15.8091 36.8043 15.639C36.5287 15.6189 36.2886 15.8274 36.2691 16.1036C36.2598 16.2361 36.3035 16.367 36.3906 16.4673C36.4777 16.5677 36.6011 16.6293 36.7337 16.6387C38.6144 16.7716 40.3069 17.7955 41.3091 19.3644C40.5307 19.4409 39.9622 19.6124 39.9308 19.622C39.8037 19.6606 39.6973 19.748 39.6347 19.8651C39.5721 19.9822 39.5586 20.1193 39.5971 20.2464C39.6771 20.511 39.9566 20.6607 40.2215 20.5811C45.3452 19.0612 48.272 25.3626 44.2406 28.118C43.5877 27.5179 42.7692 27.2791 42.2283 27.2459C42.0963 27.238 41.9665 27.2827 41.8673 27.3702C41.7681 27.4577 41.7076 27.5809 41.6989 27.7128C41.6806 27.988 41.8894 28.2263 42.1644 28.246C42.1695 28.2464 42.6863 28.2865 43.2004 28.5892C43.8506 28.972 44.2095 29.6021 44.2667 30.4621C44.2756 30.5947 44.3368 30.7183 44.4368 30.8058C44.5368 30.8933 44.6675 30.9375 44.8001 30.9287C44.8657 30.9243 44.9299 30.907 44.9889 30.8779C45.0478 30.8487 45.1005 30.8082 45.1438 30.7587C45.1872 30.7092 45.2203 30.6516 45.2414 30.5893C45.2625 30.5269 45.2711 30.4611 45.2667 30.3954C45.2271 29.8023 45.0767 29.3121 44.8584 28.9093C45.5616 28.4185 46.0124 27.8941 46.2743 27.5238C47.567 28.4518 48.4533 29.8469 48.7334 31.4194C48.7568 31.5502 48.8311 31.6664 48.9401 31.7424C49.049 31.8185 49.1837 31.8481 49.3146 31.8249C49.4454 31.8014 49.5616 31.7271 49.6376 31.618C49.7136 31.509 49.7432 31.3743 49.72 31.2434Z" fill="black"/>
<path d="M49.3157 33.1759C49.1849 33.1526 49.0502 33.1822 48.9412 33.2583C48.8322 33.3343 48.7579 33.4505 48.7346 33.5813C48.4447 35.2091 47.4856 36.6723 46.1034 37.5958C46.0401 37.6381 45.9873 37.6942 45.9489 37.76C45.9106 37.8257 45.8877 37.8993 45.8821 37.9752C45.5467 42.4755 40.4544 44.3059 38.4219 42.6798C38.3181 42.5985 38.1864 42.5613 38.0554 42.5764C37.9244 42.5915 37.8047 42.6576 37.7221 42.7604C37.6395 42.8632 37.6008 42.9944 37.6143 43.1256C37.6278 43.2567 37.6925 43.3773 37.7943 43.4611C37.8323 43.4916 38.6023 44.1028 39.587 44.2379C39.3463 46.5602 37.3789 48.3771 34.995 48.3771H33.01V16.6232H34.4322C34.498 16.6232 34.5631 16.6102 34.6239 16.585C34.6847 16.5599 34.74 16.523 34.7865 16.4764C34.833 16.4299 34.8699 16.3747 34.8951 16.3139C34.9203 16.2531 34.9332 16.1879 34.9332 16.1221C34.9332 16.0563 34.9203 15.9912 34.8951 15.9304C34.8699 15.8696 34.833 15.8143 34.7865 15.7678C34.74 15.7213 34.6847 15.6844 34.6239 15.6592C34.5631 15.634 34.498 15.6211 34.4322 15.6211H30.8885C30.187 15.6211 29.6163 16.1918 29.6163 16.8933V19.6249C28.1331 19.956 26.7352 20.5352 25.4506 21.3509L23.5186 19.419C23.0225 18.923 22.2156 18.923 21.7194 19.419L19.4278 21.7107C18.9306 22.2078 18.9305 23.0126 19.4277 23.5098L21.3596 25.4417C20.5438 26.7264 19.9645 28.1242 19.6336 29.6074H16.902C16.2005 29.6075 15.6299 30.1782 15.6299 30.8797V34.1206C15.6299 34.8221 16.2005 35.3928 16.902 35.3928H19.6336C19.9647 36.8761 20.5439 38.2741 21.3596 39.5586L19.4277 41.4904C18.9317 41.9864 18.9317 42.7935 19.4277 43.2895L21.7195 45.5814C22.2155 46.0773 23.0225 46.0773 23.5186 45.5814L25.4505 43.6494C26.7353 44.4653 28.1332 45.0445 29.6163 45.3754V48.107C29.6163 48.8085 30.1869 49.3792 30.8884 49.3792L34.9949 49.3792C37.9285 49.3792 40.3443 47.1185 40.5929 44.2473C43.8322 44.0504 46.4998 41.5346 46.8591 38.2913C48.3598 37.2123 49.3978 35.5728 49.7212 33.7572C49.7445 33.6263 49.7149 33.4916 49.6389 33.3826C49.5628 33.2736 49.4466 33.1992 49.3157 33.1759ZM32.008 23.0542C27.0243 23.3156 23.0499 27.4525 23.0499 32.5002C23.0499 37.5479 27.0242 41.6847 32.008 41.9462V48.3772H30.8885C30.8169 48.3771 30.7482 48.3486 30.6976 48.2979C30.6469 48.2473 30.6184 48.1786 30.6183 48.107V44.9674C30.6183 44.8508 30.5777 44.7379 30.5033 44.648C30.429 44.5582 30.3256 44.4971 30.2111 44.4753C28.5753 44.1634 27.0461 43.5298 25.6661 42.5922C25.5696 42.5267 25.4534 42.4969 25.3373 42.5079C25.2212 42.5188 25.1126 42.5699 25.0301 42.6524L22.81 44.8726C22.7592 44.9232 22.6906 44.9515 22.619 44.9516C22.5474 44.9516 22.4787 44.9232 22.4279 44.8727L20.1362 42.5808C20.1111 42.5558 20.0912 42.526 20.0776 42.4932C20.064 42.4605 20.057 42.4253 20.057 42.3899C20.057 42.3544 20.064 42.3192 20.0776 42.2865C20.0912 42.2537 20.1111 42.2239 20.1362 42.1989L22.3565 39.9786C22.4389 39.8962 22.49 39.7875 22.501 39.6715C22.5119 39.5554 22.4821 39.4391 22.4166 39.3427C21.4791 37.9629 20.8455 36.4337 20.5335 34.7977C20.5116 34.6832 20.4505 34.5798 20.3607 34.5055C20.2709 34.4312 20.1579 34.3905 20.0413 34.3905H16.902C16.8304 34.3904 16.7618 34.3619 16.7111 34.3113C16.6605 34.2607 16.632 34.192 16.6319 34.1204V30.8795C16.632 30.8079 16.6605 30.7392 16.7111 30.6886C16.7617 30.6379 16.8304 30.6094 16.902 30.6093H20.0415C20.1581 30.6093 20.2711 30.5687 20.3609 30.4943C20.4508 30.42 20.5119 30.3166 20.5337 30.2021C20.8456 28.5663 21.4792 27.0371 22.4168 25.6571C22.4823 25.5607 22.5121 25.4444 22.5012 25.3283C22.4902 25.2122 22.4391 25.1036 22.3567 25.0211L20.1364 22.8009C20.1113 22.7758 20.0914 22.7461 20.0778 22.7133C20.0642 22.6805 20.0572 22.6454 20.0572 22.6099C20.0572 22.5745 20.0642 22.5393 20.0778 22.5066C20.0914 22.4738 20.1113 22.444 20.1364 22.419L22.4281 20.1272C22.4532 20.1021 22.483 20.0822 22.5157 20.0686C22.5485 20.055 22.5836 20.0481 22.6191 20.0481C22.6546 20.0481 22.6897 20.055 22.7225 20.0686C22.7553 20.0822 22.785 20.1021 22.8101 20.1272L25.0303 22.3475C25.1128 22.4299 25.2214 22.4811 25.3375 22.492C25.4535 22.503 25.5698 22.4732 25.6662 22.4076C27.0461 21.47 28.5753 20.8365 30.2113 20.5245C30.3258 20.5027 30.4291 20.4415 30.5034 20.3517C30.5778 20.2619 30.6184 20.1489 30.6185 20.0323V16.8932C30.6185 16.8216 30.647 16.753 30.6976 16.7023C30.7483 16.6517 30.8169 16.6232 30.8885 16.6231H32.008V23.0542ZM29.2351 32.5001C29.2351 34.135 30.4397 35.4937 32.0079 35.7356V38.1296L27.6502 35.6135C27.5692 35.5666 27.5019 35.4992 27.455 35.4181C27.4082 35.337 27.3835 35.245 27.3834 35.1513V29.849C27.3835 29.7553 27.4082 29.6634 27.455 29.5823C27.5018 29.5012 27.5691 29.4338 27.6501 29.3868L32.0079 26.8708V29.2647C30.4397 29.5066 29.2351 30.8653 29.2351 32.5001ZM32.0079 30.2841V34.7162C30.9956 34.4874 30.2373 33.5806 30.2373 32.5001C30.2373 31.4196 30.9956 30.5129 32.0079 30.2841ZM31.7409 25.8678L27.149 28.519C26.9159 28.6541 26.7222 28.8481 26.5875 29.0814C26.4527 29.3148 26.3816 29.5795 26.3812 29.849V35.1513C26.3816 35.4208 26.4528 35.6855 26.5875 35.9189C26.7222 36.1523 26.9158 36.3463 27.149 36.4814C32.1545 39.3713 31.8089 39.1854 32.0078 39.254V40.9419C27.577 40.6817 24.0518 36.9951 24.0518 32.5001C24.0518 28.0051 27.5771 24.3184 32.0078 24.0582V25.7463C31.9152 25.7782 31.8258 25.8189 31.7409 25.8678Z" fill="black"/>
</g>
<defs>
<clipPath id="clip0_1419_159">
<rect width="34.0993" height="34.0993" fill="white" transform="translate(15.6299 15.4502)"/>
</clipPath>
</defs>
</svg>
