<svg width="65" height="65" viewBox="0 0 65 65" fill="none" xmlns="http://www.w3.org/2000/svg">
<path d="M59.832 16.4111V48.1973L32.3047 64.0908L4.77637 48.1973V16.4111L32.3047 0.517578L59.832 16.4111Z" stroke="black" stroke-width="0.897349"/>
<g clip-path="url(#clip0_1458_712)">
<path d="M25.6786 18.5691C27.1757 17.906 28.7718 17.4938 30.4028 17.349C30.5913 17.3321 30.7538 17.4811 30.7538 17.6704V18.6846C30.7538 19.5935 30.1128 20.3689 29.224 20.5594C28.3842 20.7395 27.5662 21.0097 26.7844 21.3655C26.6826 21.4119 26.6595 21.5465 26.7386 21.6255L28.5212 23.4087C28.6845 23.572 28.6281 23.8492 28.4137 23.9349C26.125 24.8494 24.2993 26.6756 23.3857 28.9644C23.3 29.1789 23.0227 29.2354 22.8594 29.0721L21.0758 27.2885C20.9967 27.2094 20.8621 27.2325 20.8157 27.3343C20.4601 28.1161 20.1898 28.9341 20.0098 29.7739C19.8192 30.6626 19.0439 31.3036 18.1349 31.3036H17.1206C16.9313 31.3036 16.7823 31.1411 16.7991 30.9526C17.2244 26.1856 19.8774 22.0598 23.7099 19.6236" stroke="black" stroke-width="0.966797" stroke-miterlimit="10" stroke-linecap="round" stroke-linejoin="round"/>
<path d="M18.072 20.9546C19.3604 20.9546 20.4048 19.9102 20.4048 18.6218C20.4048 17.3335 19.3604 16.2891 18.072 16.2891C16.7837 16.2891 15.7393 17.3335 15.7393 18.6218C15.7393 19.9102 16.7837 20.9546 18.072 20.9546Z" stroke="black" stroke-width="0.966797" stroke-miterlimit="10" stroke-linecap="round" stroke-linejoin="round"/>
<path d="M43.499 29.7738C43.319 28.934 43.0487 28.116 42.6929 27.3342C42.6466 27.2325 42.512 27.2093 42.4329 27.2884L40.6497 29.071C40.4864 29.2343 40.2092 29.1779 40.1236 28.9635C39.209 26.6748 37.3828 24.8491 35.094 23.9355C34.8795 23.8498 34.8231 23.5725 34.9864 23.4092L36.77 21.6256C36.8491 21.5465 36.826 21.4119 36.7242 21.3655C35.9423 21.0099 35.1244 20.7397 34.2845 20.5596C33.3959 20.369 32.7549 19.5937 32.7549 18.6847V17.6704C32.7549 17.4811 32.9174 17.3321 33.1059 17.349C40.3199 17.9925 46.0654 23.7379 46.7095 30.9526C46.7263 31.1411 46.5774 31.3036 46.3881 31.3036H45.3738C44.465 31.3036 43.6895 30.6626 43.499 29.7738Z" stroke="black" stroke-width="0.966797" stroke-miterlimit="10" stroke-linecap="round" stroke-linejoin="round"/>
<path d="M45.4392 20.9546C46.7275 20.9546 47.7719 19.9102 47.7719 18.6218C47.7719 17.3335 46.7275 16.2891 45.4392 16.2891C44.1509 16.2891 43.1064 17.3335 43.1064 18.6218C43.1064 19.9102 44.1509 20.9546 45.4392 20.9546Z" stroke="black" stroke-width="0.966797" stroke-miterlimit="10" stroke-linecap="round" stroke-linejoin="round"/>
<path d="M34.2846 44.0488C35.1245 43.8688 35.9424 43.5985 36.7242 43.2427C36.826 43.1964 36.8491 43.0618 36.7701 42.9827L34.9874 41.1996C34.8242 41.0362 34.8805 40.759 35.0949 40.6734C37.3836 39.7588 39.2093 37.9326 40.123 35.6438C40.2086 35.4293 40.4859 35.3729 40.6492 35.5362L42.4328 37.3198C42.5119 37.3989 42.6466 37.3758 42.6929 37.274C43.0486 36.4921 43.3188 35.6742 43.4989 34.8344C43.6895 33.9457 44.4648 33.3047 45.3737 33.3047H46.3881C46.5774 33.3047 46.7263 33.4672 46.7095 33.6557C46.066 40.8697 40.3205 46.6152 33.1059 47.2593C32.9174 47.2761 32.7549 47.1272 32.7549 46.9379V45.9236C32.7549 45.0148 33.3959 44.2394 34.2846 44.0488Z" stroke="black" stroke-width="0.966797" stroke-miterlimit="10" stroke-linecap="round" stroke-linejoin="round"/>
<path d="M45.4392 48.3218C46.7275 48.3218 47.7719 47.2773 47.7719 45.989C47.7719 44.7007 46.7275 43.6562 45.4392 43.6562C44.1509 43.6562 43.1064 44.7007 43.1064 45.989C43.1064 47.2773 44.1509 48.3218 45.4392 48.3218Z" stroke="black" stroke-width="0.966797" stroke-miterlimit="10" stroke-linecap="round" stroke-linejoin="round"/>
<path d="M25.1208 38.3994C26.0271 39.3851 27.1503 40.1681 28.4146 40.6728C28.6291 40.7584 28.6856 41.0357 28.5223 41.199L26.7387 42.9826C26.6596 43.0617 26.6826 43.1964 26.7845 43.2427C27.5663 43.5984 28.3843 43.8686 29.2241 44.0487C30.1128 44.2393 30.7538 45.0146 30.7538 45.9235V46.9379C30.7538 47.1272 30.5913 47.2761 30.4028 47.2593C23.1888 46.6158 17.4433 40.8703 16.7991 33.6557C16.7823 33.4672 16.9313 33.3047 17.1206 33.3047H18.1348C19.0437 33.3047 19.8191 33.9457 20.0096 34.8344C20.1897 35.6743 20.4599 36.4922 20.8157 37.274C20.8621 37.3758 20.9967 37.3989 21.0757 37.3199L22.8589 35.5372C23.0222 35.374 23.2994 35.4304 23.3851 35.6447C23.5094 35.9558 23.6511 36.2596 23.8093 36.5548" stroke="black" stroke-width="0.966797" stroke-miterlimit="10" stroke-linecap="round" stroke-linejoin="round"/>
<path d="M18.072 48.3218C19.3604 48.3218 20.4048 47.2773 20.4048 45.989C20.4048 44.7007 19.3604 43.6562 18.072 43.6562C16.7837 43.6562 15.7393 44.7007 15.7393 45.989C15.7393 47.2773 16.7837 48.3218 18.072 48.3218Z" stroke="black" stroke-width="0.966797" stroke-miterlimit="10" stroke-linecap="round" stroke-linejoin="round"/>
<path d="M34.8188 36.09L37.1002 34.1087H37.1002C37.9553 33.366 38.4692 32.2407 38.3751 30.9993C38.2358 29.1611 36.7339 27.681 34.8941 27.5661C33.7401 27.494 32.6903 27.9469 31.9602 28.7088C31.9335 28.7371 31.9012 28.7596 31.8654 28.7751C31.8297 28.7905 31.7911 28.7984 31.7522 28.7984C31.7132 28.7984 31.6747 28.7905 31.6389 28.7751C31.6031 28.7596 31.5709 28.7371 31.5441 28.7088C30.814 27.9469 29.7642 27.494 28.6102 27.5661C26.7704 27.681 25.2685 29.1612 25.1292 30.9993C25.0351 32.2408 25.549 33.366 26.4042 34.1087L31.3815 38.4315C31.4843 38.5208 31.616 38.57 31.7522 38.57C31.8884 38.57 32.02 38.5208 32.1229 38.4315L33.0919 37.5899" stroke="black" stroke-width="0.966797" stroke-miterlimit="10" stroke-linecap="round" stroke-linejoin="round"/>
</g>
<defs>
<clipPath id="clip0_1458_712">
<rect width="33" height="33" fill="white" transform="translate(15.2549 15.8047)"/>
</clipPath>
</defs>
</svg>
