<svg width="61" height="65" viewBox="0 0 61 65" fill="none" xmlns="http://www.w3.org/2000/svg">
<path d="M60.207 16.613V48.3992L32.6797 64.2927L5.15137 48.3992V16.613L32.6797 0.719482L60.207 16.613Z" stroke="black" stroke-width="0.897349"/>
<g clip-path="url(#clip0_77_4446)">
<path d="M41.7045 36.9917C41.7009 36.9881 41.337 36.6191 41.1472 36.0534C40.9071 35.338 41.0492 34.6269 41.5697 33.94C41.6095 33.8875 41.6385 33.8278 41.6551 33.7641C41.6718 33.7005 41.6757 33.6341 41.6667 33.569C41.6577 33.5038 41.636 33.441 41.6027 33.3842C41.5695 33.3274 41.5254 33.2778 41.4729 33.238C41.367 33.1578 41.2335 33.1229 41.1018 33.1411C40.9702 33.1592 40.8511 33.2289 40.7709 33.3348C40.2815 33.9808 40.0727 34.6174 40.0378 35.2027C38.9386 36.1529 36.6243 36.3772 35.4568 35.6268C35.345 35.5575 35.2105 35.5348 35.0821 35.5638C34.9538 35.5928 34.8421 35.671 34.7709 35.7817C34.6998 35.8924 34.6751 36.0266 34.702 36.1553C34.729 36.284 34.8055 36.397 34.9151 36.4699C36.2612 37.3349 38.6254 37.2719 40.1809 36.3307C40.3698 36.9328 40.7067 37.4164 41.0006 37.705C41.1972 37.8981 41.5121 37.8953 41.7064 37.6995C41.9006 37.5037 41.8993 37.187 41.7045 36.9917ZM49.719 31.2494C49.385 29.3746 48.3114 27.7168 46.7478 26.6382C48.0296 23.3889 45.887 19.8173 42.4626 19.3666C41.3532 17.2321 39.21 15.815 36.8033 15.645C36.5277 15.6249 36.2876 15.8334 36.2682 16.1096C36.2588 16.2421 36.3025 16.373 36.3896 16.4733C36.4767 16.5737 36.6001 16.6353 36.7327 16.6447C38.6134 16.7776 40.3059 17.8015 41.3081 19.3704C40.5298 19.4469 39.9612 19.6184 39.9298 19.628C39.8028 19.6666 39.6963 19.754 39.6337 19.8711C39.5712 19.9882 39.5576 20.1253 39.5961 20.2523C39.6762 20.5169 39.9556 20.6667 40.2205 20.5871C45.3442 19.0672 48.271 25.3686 44.2396 28.124C43.5867 27.5239 42.7682 27.2851 42.2273 27.2519C42.0953 27.244 41.9655 27.2887 41.8663 27.3762C41.7671 27.4637 41.7066 27.5868 41.6979 27.7188C41.6796 27.9939 41.8884 28.2323 42.1634 28.252C42.1685 28.2523 42.6853 28.2924 43.1994 28.5951C43.8497 28.978 44.2085 29.6081 44.2658 30.4681C44.2746 30.6007 44.3358 30.7243 44.4358 30.8118C44.5358 30.8993 44.6665 30.9435 44.7991 30.9347C44.8648 30.9303 44.9289 30.913 44.9879 30.8839C45.0469 30.8547 45.0995 30.8142 45.1429 30.7647C45.1862 30.7152 45.2193 30.6576 45.2404 30.5953C45.2615 30.5329 45.2701 30.4671 45.2657 30.4014C45.2261 29.8083 45.0757 29.3181 44.8574 28.9153C45.5606 28.4245 46.0114 27.9 46.2733 27.5298C47.566 28.4578 48.4523 29.8529 48.7324 31.4254C48.7558 31.5562 48.8301 31.6724 48.9391 31.7484C49.0481 31.8244 49.1828 31.8541 49.3136 31.8308C49.4444 31.8074 49.5606 31.733 49.6366 31.624C49.7126 31.515 49.7422 31.3803 49.719 31.2494Z" fill="black"/>
<path d="M49.3148 33.1823C49.1839 33.159 49.0492 33.1886 48.9402 33.2646C48.8313 33.3406 48.7569 33.4568 48.7336 33.5877C48.4437 35.2155 47.4847 36.6787 46.1024 37.6022C46.0391 37.6444 45.9863 37.7006 45.9479 37.7663C45.9096 37.8321 45.8867 37.9057 45.8811 37.9816C45.5457 42.4819 40.4534 44.3122 38.4209 42.6861C38.3171 42.6048 38.1854 42.5677 38.0545 42.5828C37.9235 42.5979 37.8037 42.664 37.7211 42.7668C37.6386 42.8696 37.5998 43.0008 37.6133 43.1319C37.6269 43.2631 37.6915 43.3836 37.7933 43.4674C37.8313 43.498 38.6014 44.1091 39.586 44.2442C39.3454 46.5665 37.3779 48.3834 34.994 48.3834H33.009V16.6295H34.4312C34.497 16.6295 34.5622 16.6166 34.623 16.5914C34.6837 16.5662 34.739 16.5293 34.7855 16.4828C34.832 16.4362 34.8689 16.381 34.8941 16.3202C34.9193 16.2594 34.9322 16.1943 34.9322 16.1285C34.9322 16.0627 34.9193 15.9975 34.8941 15.9367C34.8689 15.8759 34.832 15.8207 34.7855 15.7742C34.739 15.7276 34.6837 15.6907 34.623 15.6656C34.5622 15.6404 34.497 15.6274 34.4312 15.6274H30.8875C30.186 15.6274 29.6154 16.1981 29.6154 16.8996V19.6312C28.1321 19.9623 26.7342 20.5415 25.4496 21.3572L23.5177 19.4253C23.0216 18.9293 22.2146 18.9293 21.7184 19.4253L19.4268 21.717C18.9296 22.2141 18.9295 23.0189 19.4268 23.5161L21.3586 25.448C20.5429 26.7327 19.9636 28.1306 19.6326 29.6138H16.901C16.1995 29.6138 15.6289 30.1845 15.6289 30.886V34.127C15.6289 34.8285 16.1995 35.3992 16.901 35.3992H19.6326C19.9637 36.8825 20.5429 38.2804 21.3586 39.5649L19.4268 41.4967C18.9307 41.9928 18.9307 42.7999 19.4268 43.2959L21.7185 45.5877C22.2145 46.0836 23.0216 46.0836 23.5177 45.5877L25.4495 43.6558C26.7343 44.4716 28.1322 45.0508 29.6153 45.3818V48.1134C29.6153 48.8149 30.1859 49.3856 30.8874 49.3856L34.9939 49.3855C37.9275 49.3855 40.3433 47.1248 40.5919 44.2536C43.8312 44.0567 46.4989 41.541 46.8581 38.2976C48.3588 37.2187 49.3968 35.5792 49.7202 33.7635C49.7435 33.6327 49.7139 33.4979 49.6379 33.3889C49.5618 33.2799 49.4456 33.2056 49.3148 33.1823ZM32.007 23.0605C27.0233 23.3219 23.0489 27.4589 23.0489 32.5065C23.0489 37.5542 27.0232 41.6911 32.007 41.9525V48.3836H30.8876C30.8159 48.3834 30.7473 48.3549 30.6966 48.3043C30.646 48.2536 30.6175 48.1849 30.6174 48.1133V44.9738C30.6174 44.8572 30.5767 44.7442 30.5023 44.6544C30.428 44.5645 30.3247 44.5034 30.2101 44.4816C28.5743 44.1697 27.0451 43.5362 25.6651 42.5986C25.5687 42.5331 25.4524 42.5032 25.3363 42.5142C25.2202 42.5252 25.1116 42.5763 25.0292 42.6587L22.809 44.8789C22.7583 44.9295 22.6896 44.9579 22.618 44.9579C22.5464 44.9579 22.4777 44.9295 22.427 44.879L20.1353 42.5872C20.1102 42.5621 20.0902 42.5323 20.0766 42.4996C20.0631 42.4668 20.0561 42.4317 20.0561 42.3962C20.0561 42.3607 20.0631 42.3256 20.0766 42.2928C20.0902 42.2601 20.1102 42.2303 20.1353 42.2052L22.3555 39.985C22.4379 39.9025 22.489 39.7939 22.5 39.6778C22.511 39.5617 22.4811 39.4455 22.4156 39.349C21.4781 37.9692 20.8445 36.4401 20.5325 34.804C20.5107 34.6895 20.4496 34.5862 20.3597 34.5119C20.2699 34.4375 20.1569 34.3969 20.0404 34.3968H16.901C16.8294 34.3968 16.7608 34.3683 16.7102 34.3176C16.6595 34.267 16.6311 34.1984 16.631 34.1268V30.8858C16.631 30.8142 16.6595 30.7456 16.7101 30.6949C16.7608 30.6443 16.8294 30.6158 16.901 30.6157H20.0406C20.1572 30.6157 20.2701 30.575 20.36 30.5007C20.4498 30.4263 20.5109 30.323 20.5327 30.2084C20.8446 28.5727 21.4782 27.0435 22.4158 25.6635C22.4813 25.567 22.5112 25.4507 22.5002 25.3347C22.4892 25.2186 22.4381 25.11 22.3557 25.0275L20.1355 22.8073C20.1104 22.7822 20.0904 22.7524 20.0768 22.7196C20.0633 22.6869 20.0563 22.6518 20.0563 22.6163C20.0563 22.5808 20.0633 22.5457 20.0768 22.5129C20.0904 22.4801 20.1104 22.4504 20.1355 22.4253L22.4272 20.1336C22.4522 20.1085 22.482 20.0886 22.5148 20.075C22.5475 20.0614 22.5827 20.0544 22.6181 20.0544C22.6536 20.0544 22.6887 20.0614 22.7215 20.075C22.7543 20.0886 22.784 20.1085 22.8091 20.1336L25.0294 22.3538C25.1118 22.4363 25.2204 22.4874 25.3365 22.4984C25.4526 22.5094 25.5688 22.4795 25.6653 22.414C27.0451 21.4764 28.5743 20.8428 30.2103 20.5309C30.3248 20.509 30.4281 20.4479 30.5025 20.3581C30.5768 20.2682 30.6175 20.1553 30.6175 20.0387V16.8996C30.6176 16.828 30.646 16.7593 30.6967 16.7087C30.7473 16.658 30.8159 16.6295 30.8876 16.6294H32.007V23.0605ZM29.2341 32.5065C29.2341 34.1414 30.4387 35.5001 32.0069 35.742V38.1359L27.6492 35.6199C27.5682 35.5729 27.5009 35.5055 27.4541 35.4244C27.4073 35.3433 27.3825 35.2513 27.3824 35.1577V29.8553C27.3825 29.7617 27.4072 29.6697 27.4541 29.5886C27.5009 29.5075 27.5681 29.4401 27.6491 29.3932L32.0069 26.8772V29.271C30.4387 29.5129 29.2341 30.8716 29.2341 32.5065ZM32.0069 30.2904V34.7226C30.9946 34.4937 30.2363 33.587 30.2363 32.5065C30.2363 31.426 30.9946 30.5193 32.0069 30.2904ZM31.74 25.8741L27.148 28.5253C26.9149 28.6605 26.7213 28.8544 26.5865 29.0878C26.4518 29.3212 26.3806 29.5858 26.3802 29.8553V35.1577C26.3806 35.4272 26.4518 35.6918 26.5865 35.9252C26.7213 36.1586 26.9149 36.3526 27.148 36.4877C32.1535 39.3777 31.808 39.1917 32.0068 39.2603V40.9482C27.576 40.688 24.0509 37.0014 24.0509 32.5064C24.0509 28.0114 27.5761 24.3248 32.0068 24.0646V25.7526C31.9142 25.7845 31.8249 25.8252 31.74 25.8741Z" fill="black"/>
</g>
<defs>
<clipPath id="clip0_77_4446">
<rect width="34.0993" height="34.0993" fill="white" transform="translate(15.6289 15.4568)"/>
</clipPath>
</defs>
</svg>
