<svg width="62" height="65" viewBox="0 0 62 65" fill="none" xmlns="http://www.w3.org/2000/svg">
<path d="M60.7656 16.613V48.3992L33.2383 64.2927L5.70996 48.3992V16.613L33.2383 0.719482L60.7656 16.613Z" stroke="black" stroke-width="0.897349"/>
<g clip-path="url(#clip0_77_4484)">
<path d="M47.4213 31.317H43.8775C43.1003 31.3347 43.1033 32.481 43.8775 32.4963H47.4213C47.7462 32.4963 48.0109 32.7605 48.0109 33.086V43.6996C48.0109 44.0251 47.7462 44.2893 47.4213 44.2893C47.13 44.307 46.6288 44.2091 46.4148 44.462L43.8834 46.9934V44.8789C43.8834 44.7225 43.8213 44.5726 43.7107 44.462C43.6001 44.3514 43.4501 44.2893 43.2937 44.2893H35.6283C35.3034 44.2893 35.0387 44.0251 35.0387 43.6996V37.8031C35.0304 37.0319 33.87 37.026 33.8594 37.8031V43.6996C33.8594 44.6749 34.653 45.4686 35.6283 45.4686H42.7041V48.4168C42.6876 48.9239 43.3604 49.2081 43.7106 48.8337L47.0757 45.4686H47.4213C48.3966 45.4686 49.1902 44.6749 49.1902 43.6996V33.086C49.1902 32.1107 48.3966 31.317 47.4213 31.317Z" fill="black"/>
<path d="M23.8334 37.8032C23.4419 37.8262 21.2372 37.7206 20.8946 37.9093C18.6864 33.2741 19.6298 27.4065 23.1771 23.6899C23.8039 24.0089 24.548 23.9211 25.0994 23.4588C29.3154 19.8106 36.0409 19.81 40.2563 23.4588C40.8164 23.9299 41.5724 23.9971 42.1874 23.687C43.6162 25.2257 44.6516 27.0873 45.2052 29.1129C45.2242 29.189 45.2582 29.2605 45.3052 29.3233C45.3522 29.3861 45.4112 29.4389 45.4788 29.4786C45.5465 29.5182 45.6213 29.544 45.699 29.5544C45.7768 29.5648 45.8558 29.5596 45.9315 29.5391C46.0072 29.5186 46.078 29.4832 46.1398 29.435C46.2017 29.3868 46.2533 29.3267 46.2916 29.2583C46.33 29.1899 46.3543 29.1145 46.3631 29.0366C46.372 28.9587 46.3652 28.8798 46.3432 28.8045C45.7443 26.6112 44.6272 24.5938 43.086 22.9222L43.9074 22.1008C45.7164 24.0443 47.0419 26.4554 47.6398 29.1625C47.8097 29.9119 48.9506 29.6684 48.7914 28.9077C45.9257 16.2326 30.0736 11.6475 20.9854 20.8514C16.2163 25.4146 14.718 33.4946 17.7689 39.5898C16.8726 39.6753 16.168 40.423 16.168 41.341V45.4686C16.168 46.4439 16.9616 47.2375 17.9369 47.2375H19.7059C19.7059 48.2128 20.4995 49.0065 21.4748 49.0065H23.8334C24.8087 49.0065 25.6023 48.2128 25.6023 47.2375V39.5721C25.6023 38.5968 24.8087 37.8032 23.8334 37.8032ZM43.0736 21.2671L41.8495 22.4912C41.7473 22.6106 41.6019 22.6845 41.4452 22.6966C41.2885 22.7088 41.1334 22.6582 41.014 22.556C36.3764 18.5411 28.9793 18.5417 24.3417 22.556C24.2222 22.6579 24.0673 22.7083 23.9108 22.6961C23.7543 22.684 23.609 22.6103 23.5067 22.4912L22.2696 21.2541C27.8949 15.8482 37.4 15.834 43.0736 21.2671ZM21.4353 22.0879L22.2667 22.9193C18.3562 27.0509 17.3962 33.5984 19.9576 38.6776C19.7946 38.9476 19.7076 39.2567 19.7059 39.5721H19.0826C16.05 34.0329 17.1586 26.4849 21.4353 22.0879ZM24.423 47.2375C24.423 47.563 24.1583 47.8272 23.8334 47.8272H21.4748C21.1499 47.8272 20.8852 47.563 20.8852 47.2375V43.11C20.8852 42.9536 20.823 42.8036 20.7124 42.693C20.6019 42.5825 20.4519 42.5203 20.2955 42.5203C20.1391 42.5203 19.9891 42.5825 19.8786 42.693C19.768 42.8036 19.7059 42.9536 19.7059 43.11V46.0582H17.9369C17.612 46.0582 17.3473 45.7941 17.3473 45.4686V41.341C17.3473 41.0156 17.612 40.7514 17.9369 40.7514H20.2955C20.4519 40.7514 20.6019 40.6893 20.7124 40.5787C20.823 40.4681 20.8852 40.3181 20.8852 40.1617V39.5721C20.8852 39.2466 21.1499 38.9825 21.4748 38.9825H23.8334C24.1583 38.9825 24.423 39.2466 24.423 39.5721V47.2375Z" fill="black"/>
<path d="M41.5225 31.6119C41.5225 29.4986 39.8031 27.7792 37.6898 27.7792H28.2554C23.3578 27.9343 23.109 34.9127 27.9606 35.4334V38.3928C27.9447 38.9011 28.6163 39.183 28.9671 38.8097L32.3323 35.4446H37.6898C39.8031 35.4446 41.5225 33.7252 41.5225 31.6119ZM32.0882 34.2653C31.9318 34.2653 31.7818 34.3275 31.6713 34.4381L29.1399 36.9694V34.855C29.1399 34.6986 29.0778 34.5486 28.9672 34.438C28.8566 34.3274 28.7066 34.2653 28.5503 34.2653H28.2554C24.7512 34.155 24.7476 29.0693 28.2554 28.9585H37.6898C39.1527 28.9585 40.3432 30.149 40.3432 31.6119C40.3432 33.0748 39.1527 34.2653 37.6898 34.2653H32.0882Z" fill="black"/>
</g>
<defs>
<clipPath id="clip0_77_4484">
<rect width="33" height="33" fill="white" transform="translate(16.1875 16.0065)"/>
</clipPath>
</defs>
</svg>
