<svg width="57" height="65" viewBox="0 0 57 65" fill="none" xmlns="http://www.w3.org/2000/svg">
<path d="M55.832 16.4111V48.1973L28.3047 64.0908L0.776367 48.1973V16.4111L28.3047 0.517578L55.832 16.4111Z" stroke="black" stroke-width="0.897349"/>
<g clip-path="url(#clip0_82_39)">
<path fill-rule="evenodd" clip-rule="evenodd" d="M39.8377 33.9283C40.0657 34.4009 40.2495 34.8935 40.3868 35.3999L41.6974 35.9043C41.7951 35.9419 41.879 36.0082 41.9382 36.0944C41.9974 36.1806 42.0291 36.2828 42.0291 36.3874V38.9358C42.0291 39.0404 41.9974 39.1426 41.9382 39.2288C41.879 39.3151 41.7951 39.3813 41.6974 39.4189L40.3866 39.9234C40.196 40.6226 39.9163 41.2941 39.5571 41.9237L40.1267 43.2096C40.169 43.3052 40.1814 43.4114 40.1623 43.5141C40.1431 43.6169 40.0933 43.7114 40.0194 43.7853L38.2178 45.5869C38.1439 45.6608 38.0494 45.7106 37.9466 45.7298C37.8439 45.7489 37.7377 45.7365 37.6422 45.6942L36.3573 45.125C35.7282 45.4856 35.0556 45.7642 34.3559 45.9541L33.8515 47.2649C33.8139 47.3625 33.7476 47.4465 33.6613 47.5057C33.5751 47.565 33.4729 47.5967 33.3683 47.5966H30.8199C30.7153 47.5966 30.6131 47.5649 30.5269 47.5057C30.4407 47.4465 30.3744 47.3625 30.3368 47.2649L29.8324 45.9543C29.1312 45.7637 28.4593 45.4839 27.8294 45.1246L26.789 45.5855C26.5278 45.7011 26.2217 45.5831 26.106 45.3218C25.9903 45.0606 26.1085 44.7546 26.3697 44.6389L27.6538 44.0701C27.7304 44.0362 27.8141 44.0213 27.8978 44.0269C27.9814 44.0324 28.0624 44.0582 28.1338 44.102C28.816 44.5199 29.5581 44.8299 30.3387 45.0149C30.4206 45.0343 30.4965 45.0734 30.5599 45.1287C30.6233 45.1841 30.6722 45.2541 30.7025 45.3326L31.1754 46.5613H33.0129L33.4857 45.3326C33.516 45.2542 33.5648 45.1842 33.6282 45.1289C33.6915 45.0735 33.7674 45.0344 33.8492 45.015C34.6268 44.8302 35.3708 44.5231 36.05 44.1031C36.1216 44.0588 36.2029 44.0327 36.2868 44.0269C36.3708 44.0212 36.4549 44.036 36.5319 44.0701L37.7369 44.6038L39.0363 43.3043L38.5026 42.0994C38.4686 42.0227 38.4538 41.939 38.4594 41.8554C38.4649 41.7718 38.4907 41.6908 38.5345 41.6193C38.9525 40.9371 39.2625 40.1949 39.4475 39.4167C39.4669 39.3348 39.506 39.259 39.5614 39.1957C39.6167 39.1323 39.6867 39.0835 39.7652 39.0533L40.9938 38.5804V36.7428L39.7652 36.2699C39.6866 36.2397 39.6166 36.1908 39.5613 36.1274C39.5059 36.064 39.4668 35.9881 39.4474 35.9062C39.2636 35.1295 38.9566 34.3872 38.5383 33.7075L37.091 33.3955L36.1107 34.3758C36.8434 35.2701 37.283 36.4137 37.283 37.6603C37.283 40.5264 34.9589 42.8505 32.0927 42.8505C30.7511 42.8505 29.529 42.3413 28.6083 41.5057C28.5067 41.4134 28.4459 41.2845 28.4393 41.1474C28.4326 41.0103 28.4807 40.8762 28.5729 40.7745C28.7649 40.5629 29.0925 40.5471 29.3041 40.739C30.0409 41.4078 31.0191 41.8152 32.0927 41.8152C34.3872 41.8152 36.2477 39.9547 36.2477 37.6603C36.2477 36.6997 35.9216 35.8156 35.374 35.1124L34.0667 36.4199C34.3011 36.7913 34.4252 37.2218 34.4245 37.6611C34.4245 38.9482 33.3808 39.992 32.0936 39.992C30.8063 39.992 29.7637 38.9483 29.7637 37.6611C29.7637 36.3737 30.8063 35.3313 32.0936 35.3313C32.5495 35.3313 32.9749 35.462 33.3342 35.6882L34.6417 34.3807C33.9379 33.8336 33.0534 33.508 32.0927 33.508C31.7882 33.508 31.4912 33.5406 31.2053 33.6028C30.9262 33.6635 30.6503 33.4861 30.5896 33.2069C30.5289 32.9277 30.7063 32.6518 30.9855 32.5912C31.3493 32.5122 31.7205 32.4725 32.0927 32.4727C33.3394 32.4727 34.4835 32.9118 35.3784 33.644L36.3589 32.6635L36.0471 31.2183C35.3676 30.7999 34.6256 30.4927 33.8492 30.3082C33.7673 30.2887 33.6914 30.2496 33.6281 30.1942C33.5647 30.1388 33.5158 30.0688 33.4857 29.9902L33.0127 28.7593H31.8355C31.5498 28.7593 31.3178 28.5274 31.3178 28.2417C31.3178 27.9559 31.5498 27.724 31.8355 27.724H33.3683C33.473 27.724 33.5752 27.7557 33.6614 27.815C33.7477 27.8743 33.814 27.9583 33.8515 28.056L34.356 29.3691C34.8619 29.5067 35.354 29.6907 35.8261 29.9187C35.8498 29.8317 35.8958 29.7524 35.9595 29.6886L39.5415 26.1046C39.6073 26.0388 39.6896 25.9919 39.7798 25.9689C39.8699 25.9459 39.9646 25.9477 40.0539 25.9739C40.1432 26.0002 40.2237 26.0501 40.287 26.1183C40.3503 26.1865 40.3941 26.2705 40.4137 26.3615L40.8121 28.2102L41.0648 27.9576C41.1619 27.8605 41.2936 27.806 41.4308 27.806C41.5681 27.806 41.6997 27.8605 41.7968 27.9576C41.8938 28.0547 41.9483 28.1863 41.9483 28.3236C41.9483 28.4609 41.8938 28.5925 41.7968 28.6896L41.5442 28.9423L43.393 29.3408C43.4839 29.3604 43.5679 29.4041 43.6361 29.4674C43.7043 29.5307 43.7541 29.6113 43.7804 29.7005C43.8067 29.7897 43.8085 29.8844 43.7855 29.9746C43.7626 30.0647 43.7157 30.147 43.6499 30.2128L40.0679 33.7948C40.0041 33.8586 39.9248 33.9047 39.8377 33.9283ZM37.9622 32.5242L39.5353 32.8633L42.246 30.1526L40.6729 29.8136L37.9622 32.5242ZM32.5668 36.4556C32.416 36.3965 32.2555 36.3663 32.0936 36.3665C31.3783 36.3665 30.799 36.9458 30.799 37.6611C30.799 38.3764 31.3782 38.9567 32.0936 38.9567C32.809 38.9567 33.3892 38.3765 33.3892 37.6611C33.3892 37.4937 33.3574 37.3337 33.2996 37.187L32.4601 38.0263C32.363 38.1234 32.2314 38.1779 32.0941 38.1779C31.9568 38.1779 31.8252 38.1234 31.7281 38.0263C31.6311 37.9292 31.5766 37.7976 31.5766 37.6603C31.5766 37.523 31.6311 37.3914 31.7281 37.2943L32.5668 36.4556ZM39.9409 29.0815L39.6019 27.5088L36.8911 30.221L37.2301 31.7923L39.9409 29.0815ZM18.3494 39.1321C18.1457 35.6987 17.1657 34.408 16.4176 33.0843C15.8616 32.1009 15.4197 31.1014 15.4197 29.3672C15.4197 25.0644 18.9078 21.5763 23.2106 21.5763C27.5134 21.5763 31.0015 25.0644 31.0015 29.3672C31.0015 31.1014 30.5595 32.1009 30.0036 33.0843C29.2543 34.4099 28.2726 35.7025 28.0708 39.1472L28.0704 39.1548L28.0693 40.2991C28.0693 41.0542 27.5716 41.6972 26.8896 41.9175V42.6634C26.8896 43.43 26.3745 44.0813 25.6757 44.2918V45.0277C25.6757 45.9602 24.9109 46.7275 23.9784 46.7275H22.4428C21.5106 46.7275 20.743 45.96 20.743 45.0277V44.2914C20.0437 44.0806 19.5316 43.4295 19.5316 42.6634V41.918C18.8473 41.698 18.3494 41.0545 18.3494 40.2991V39.1321ZM27.0346 39.6346H19.3847V40.2991C19.3847 40.6649 19.6834 40.9636 20.0492 40.9636H26.3719C26.7361 40.9636 27.034 40.6646 27.034 40.2989L27.0346 39.6346ZM25.8543 41.9989H20.5669V42.6634C20.5669 43.0292 20.8656 43.3279 21.2314 43.3279H25.1898C25.5542 43.3279 25.8543 43.0292 25.8543 42.6634V41.9989ZM24.6404 44.3632H21.7783V45.0277C21.7783 45.3922 22.0783 45.6922 22.4428 45.6922H23.9784C24.3425 45.6922 24.6404 45.3919 24.6404 45.0277V44.3632ZM24.9835 38.5993H27.0717C27.3012 35.8285 28.0233 34.4357 28.7018 33.2649C29.3484 32.1495 29.9663 31.2624 29.9663 29.3672C29.9663 25.6362 26.9416 22.6116 23.2106 22.6116C19.4796 22.6116 16.455 25.6362 16.455 29.3672C16.455 31.2624 17.0728 32.1495 17.7193 33.2649C18.3979 34.4357 19.1199 35.8285 19.3495 38.5993H21.4376V31.6276H20.2637C19.0504 31.6276 18.0569 30.6341 18.0569 29.4208C18.0569 28.2045 19.0507 27.2116 20.2637 27.2116C21.4798 27.2116 22.4729 28.2048 22.4729 29.4208V30.5923H23.9482V29.4208C23.9482 28.2048 24.9414 27.2116 26.1574 27.2116C27.3705 27.2116 28.3642 28.2045 28.3642 29.4208C28.3642 30.6341 27.3707 31.6276 26.1574 31.6276H24.9835V38.5993ZM22.4729 38.5993H23.9482V31.6276H22.4729V38.5993ZM24.9835 30.5923H26.1574C26.8015 30.5923 27.3289 30.0649 27.3289 29.4208C27.3289 28.7749 26.8017 28.2469 26.1574 28.2469C25.5113 28.2469 24.9835 28.7747 24.9835 29.4208V30.5923ZM21.4376 30.5923V29.4208C21.4376 28.7747 20.9099 28.2469 20.2637 28.2469C19.6195 28.2469 19.0922 28.7749 19.0922 29.4208C19.0922 30.0649 19.6197 30.5923 20.2637 30.5923H21.4376ZM23.7282 19.6345C23.7282 19.9202 23.4962 20.1522 23.2106 20.1522C22.9249 20.1522 22.6929 19.9202 22.6929 19.6345V17.921C22.6929 17.6353 22.9249 17.4033 23.2106 17.4033C23.4962 17.4033 23.7282 17.6353 23.7282 17.921V19.6345ZM18.1724 20.8458C18.3151 21.0933 18.2299 21.4101 17.9824 21.5528C17.7349 21.6955 17.4181 21.6103 17.2754 21.3628L16.4199 19.8784C16.3514 19.7594 16.3329 19.6181 16.3686 19.4856C16.4042 19.353 16.491 19.24 16.6099 19.1714C16.8574 19.0287 17.1742 19.1139 17.3168 19.3614L18.1724 20.8458ZM13.9685 24.673C14.2159 24.816 14.3006 25.1329 14.1576 25.3802C14.0889 25.499 13.9758 25.5857 13.8432 25.6211C13.7106 25.6566 13.5693 25.638 13.4504 25.5693L11.966 24.7114C11.8472 24.6426 11.7606 24.5295 11.7251 24.3969C11.6896 24.2643 11.7083 24.123 11.7769 24.0042C11.9198 23.7568 12.2368 23.6721 12.4841 23.815L13.9685 24.673ZM29.143 21.3633C29.0742 21.4821 28.9611 21.5688 28.8285 21.6042C28.6959 21.6397 28.5547 21.6211 28.4358 21.5525C28.317 21.4837 28.2303 21.3706 28.1948 21.238C28.1594 21.1054 28.178 20.9641 28.2466 20.8452L29.1046 19.3609C29.1734 19.242 29.2865 19.1554 29.4191 19.1199C29.5517 19.0844 29.6929 19.1031 29.8118 19.1717C29.9306 19.2405 30.0173 19.3536 30.0528 19.4862C30.0882 19.6188 30.0696 19.76 30.0009 19.8789L29.143 21.3633ZM32.9711 25.5691C32.7238 25.7123 32.4068 25.6278 32.2637 25.3805C32.1206 25.1333 32.2051 24.8163 32.4523 24.6732L33.9343 23.8152C34.1815 23.6721 34.4985 23.7566 34.6416 24.0038C34.7848 24.2511 34.7003 24.568 34.453 24.7112L32.9711 25.5691Z" fill="black"/>
</g>
<defs>
<clipPath id="clip0_82_39">
<rect width="33" height="33" fill="white" transform="translate(15.2549 16)"/>
</clipPath>
</defs>
</svg>
