<svg width="61" height="65" viewBox="0 0 61 65" fill="none" xmlns="http://www.w3.org/2000/svg">
<path d="M60.3242 16.613V48.3992L32.7969 64.2927L5.26855 48.3992V16.613L32.7969 0.719482L60.3242 16.613Z" stroke="black" stroke-width="0.897349"/>
<g clip-path="url(#clip0_77_4497)">
<path d="M48.1961 16.3135H16.2961C16.1502 16.3135 16.0103 16.3714 15.9072 16.4746C15.804 16.5777 15.7461 16.7176 15.7461 16.8635V38.8635C15.7461 39.0093 15.804 39.1492 15.9072 39.2524C16.0103 39.3555 16.1502 39.4135 16.2961 39.4135H26.2274C26.2439 39.5966 26.2709 39.777 26.3033 39.9558L23.2866 43.5511C23.2263 43.623 23.1853 43.709 23.1676 43.8011C23.1499 43.8933 23.1561 43.9884 23.1855 44.0775C23.2149 44.1665 23.2667 44.2466 23.3358 44.31C23.4049 44.3735 23.489 44.4182 23.5803 44.4399L26.9012 45.233L28.2591 48.368C28.2964 48.4541 28.3551 48.5292 28.4296 48.5862C28.504 48.6432 28.5919 48.6802 28.6847 48.6937C28.7775 48.7072 28.8722 48.6968 28.9598 48.6633C29.0475 48.6299 29.1251 48.5747 29.1853 48.5028L32.1971 44.9135H32.295L35.3068 48.5028C35.3671 48.5747 35.4447 48.6299 35.5324 48.6633C35.62 48.6968 35.7147 48.7072 35.8075 48.6937C35.9003 48.6802 35.9882 48.6432 36.0626 48.5862C36.1371 48.5292 36.1958 48.4541 36.233 48.368L37.591 45.233L40.9119 44.4399C41.0032 44.4182 41.0873 44.3735 41.1564 44.31C41.2255 44.2466 41.2773 44.1665 41.3067 44.0775C41.3361 43.9884 41.3423 43.8933 41.3246 43.8011C41.3069 43.709 41.2659 43.623 41.2056 43.5511L38.1888 39.9558C38.2213 39.777 38.2482 39.5966 38.2647 39.4135H48.1961C48.342 39.4135 48.4819 39.3555 48.585 39.2524C48.6881 39.1492 48.7461 39.0093 48.7461 38.8635V16.8635C48.7461 16.7176 48.6881 16.5777 48.585 16.4746C48.4819 16.3714 48.342 16.3135 48.1961 16.3135ZM28.9147 47.1135L27.801 44.545C27.767 44.4666 27.7153 44.3973 27.6499 44.3424C27.5845 44.2875 27.5073 44.2486 27.4242 44.2287L24.7017 43.5781L26.6762 41.2246C26.6867 41.2488 26.7004 41.2708 26.7109 41.295C26.7824 41.46 26.8599 41.6168 26.9457 41.7724C26.9812 41.8371 27.0179 41.9011 27.0557 41.9644C27.1314 42.0903 27.2114 42.2136 27.2955 42.334C27.3544 42.4181 27.416 42.499 27.4792 42.5815C27.6325 42.7766 27.7975 42.9623 27.9731 43.1375C28.0408 43.2052 28.1106 43.2706 28.1821 43.335C28.2415 43.39 28.2949 43.4477 28.357 43.5C28.4192 43.5522 28.4775 43.5874 28.5369 43.6336C28.5638 43.6545 28.5869 43.6787 28.6144 43.6991C28.6639 43.7365 28.7162 43.7689 28.7668 43.8047C28.846 43.8597 28.9241 43.9191 29.006 43.9697C29.1617 44.069 29.3222 44.1608 29.4867 44.2447C29.5494 44.2766 29.6132 44.3057 29.677 44.3354C29.8222 44.4037 29.9699 44.4665 30.1198 44.5235C30.1627 44.5395 30.205 44.5576 30.2479 44.5725C30.4563 44.6457 30.6685 44.7072 30.8837 44.7567L30.8898 44.7584L28.9147 47.1135ZM33.279 43.6969C33.0268 43.7502 32.7708 43.7838 32.5134 43.7975H32.5062C32.4193 43.8019 32.3324 43.808 32.245 43.808C32.1575 43.808 32.0706 43.8019 31.9837 43.7975H31.9766C31.7198 43.7838 31.4644 43.7503 31.2126 43.6974L31.1664 43.6881C31.0685 43.6666 30.9717 43.6402 30.876 43.6127C30.8359 43.6012 30.7952 43.5907 30.7556 43.5781C30.6868 43.5566 30.6192 43.5313 30.5515 43.5071C30.4853 43.4839 30.4196 43.4589 30.3546 43.4323C30.3143 43.4152 30.2745 43.3969 30.2353 43.3773C30.1451 43.3366 30.0554 43.2954 29.968 43.2497L29.924 43.2255C29.6973 43.1043 29.4803 42.9656 29.275 42.8108C29.1606 42.7256 29.055 42.6315 28.951 42.5386C28.8281 42.4289 28.7108 42.3131 28.5996 42.1915C28.5556 42.1442 28.5083 42.0991 28.4665 42.0502C28.3129 41.8695 28.1728 41.6778 28.0474 41.4765C28.0287 41.4468 28.0127 41.4155 27.9924 41.3847C27.8755 41.1893 27.7725 40.9858 27.6844 40.7758C27.6767 40.7571 27.6679 40.7384 27.6607 40.7208C27.5633 40.4802 27.485 40.2323 27.4264 39.9794C27.4264 39.9695 27.4187 39.9618 27.416 39.9519C27.3361 39.5946 27.2959 39.2296 27.2961 38.8635C27.2944 36.1296 29.5093 33.9122 32.2431 33.9105C34.9769 33.9088 37.1944 36.1237 37.1961 38.8574C37.1963 39.2277 37.155 39.5968 37.0729 39.9579C37.0701 39.9673 37.0646 39.9755 37.0624 39.9849C37.004 40.2375 36.9258 40.4852 36.8287 40.7257C36.821 40.745 36.8122 40.7642 36.8039 40.7807C36.7161 40.9894 36.6135 41.1915 36.497 41.3857C36.4789 41.4165 36.4624 41.449 36.442 41.4798C36.3166 41.6807 36.1768 41.8722 36.0235 42.0529C35.9822 42.1013 35.9355 42.1453 35.892 42.1926C35.7794 42.3152 35.6606 42.4321 35.5362 42.5429C35.4317 42.6359 35.3277 42.7299 35.2139 42.8146C35.1078 42.8943 34.9988 42.9701 34.8872 43.0418L34.8806 43.0456C34.7813 43.1084 34.6797 43.1673 34.5759 43.2222C34.5555 43.2332 34.5357 43.2447 34.5154 43.2552C34.4323 43.2986 34.3504 43.3377 34.2629 43.3756C34.2189 43.3954 34.1755 43.4158 34.1309 43.4339C34.0693 43.4598 34.0066 43.4823 33.9439 43.5049C33.8812 43.5274 33.8037 43.5566 33.7322 43.5786C33.6942 43.5907 33.6557 43.6011 33.6172 43.6121C33.5199 43.6396 33.422 43.6671 33.323 43.688L33.279 43.6969ZM39.7904 43.5764L37.0679 44.2271C36.9849 44.2469 36.9076 44.2859 36.8423 44.3407C36.7769 44.3956 36.7251 44.465 36.6912 44.5433L35.5774 47.1135L33.6024 44.76H33.6073C33.8234 44.7107 34.0364 44.649 34.2453 44.5752C34.2866 44.5609 34.3262 44.5439 34.3674 44.529C34.5211 44.4709 34.6723 44.4065 34.8206 44.336C34.8811 44.3079 34.9416 44.281 35.001 44.2502C35.166 44.1644 35.331 44.0714 35.4894 43.9697C35.5659 43.9213 35.639 43.8668 35.7133 43.8146C35.7683 43.7766 35.8233 43.742 35.8783 43.7018C35.9074 43.6798 35.9333 43.654 35.9619 43.6314C36.0169 43.5863 36.0807 43.5484 36.1368 43.5011C36.1929 43.4538 36.2501 43.3911 36.3084 43.3394C36.381 43.2738 36.4521 43.2067 36.5218 43.1381C36.6968 42.9631 36.8614 42.778 37.0146 42.5837C37.0778 42.5028 37.1394 42.4187 37.1983 42.3362C37.2829 42.2166 37.3628 42.0937 37.4375 41.9677C37.4762 41.9043 37.5129 41.8397 37.5475 41.7741C37.6329 41.6192 37.7109 41.4605 37.7813 41.2983C37.7912 41.2703 37.8055 41.2477 37.8159 41.223L39.7904 43.5764ZM47.6461 38.3135H38.268C37.9696 34.9874 35.0312 32.5329 31.7051 32.8314C28.7926 33.0928 26.4844 35.401 26.223 38.3135H16.8461V17.4135H47.6461V38.3135Z" fill="black"/>
<path d="M18.4953 18.5134C18.3494 18.5134 18.2095 18.5714 18.1064 18.6745C18.0033 18.7777 17.9453 18.9176 17.9453 19.0634V21.2634H19.0453V19.6134H20.6953V18.5134H18.4953ZM45.9953 18.5134H43.7953V19.6134H45.4453V21.2634H46.5453V19.0634C46.5453 18.9176 46.4874 18.7777 46.3842 18.6745C46.2811 18.5714 46.1412 18.5134 45.9953 18.5134ZM45.4453 34.4634V36.1134H43.7953V37.2134H45.9953C46.1412 37.2134 46.2811 37.1555 46.3842 37.0523C46.4874 36.9492 46.5453 36.8093 46.5453 36.6634V34.4634H45.4453ZM19.0453 36.1134V34.4634H17.9453V36.6634C17.9453 36.8093 18.0033 36.9492 18.1064 37.0523C18.2095 37.1555 18.3494 37.2134 18.4953 37.2134H20.6953V36.1134H19.0453ZM25.6453 22.3634H38.8453V23.4634H25.6453V22.3634ZM22.3453 25.6634H42.1453V26.7634H22.3453V25.6634ZM32.2453 35.0134C30.119 35.0134 28.3953 36.7371 28.3953 38.8634C28.3977 40.9887 30.12 42.711 32.2453 42.7134C34.3716 42.7134 36.0953 40.9897 36.0953 38.8634C36.0953 36.7371 34.3716 35.0134 32.2453 35.0134ZM32.2453 41.6134C30.7266 41.6134 29.4953 40.3822 29.4953 38.8634C29.4971 37.3454 30.7273 36.1152 32.2453 36.1134C33.7641 36.1134 34.9953 37.3447 34.9953 38.8634C34.9953 40.3822 33.7641 41.6134 32.2453 41.6134Z" fill="black"/>
</g>
<defs>
<clipPath id="clip0_77_4497">
<rect width="33" height="33" fill="white" transform="translate(15.7461 16.0065)"/>
</clipPath>
</defs>
</svg>
