<svg width="1310" height="242" viewBox="0 0 1310 242" fill="none" xmlns="http://www.w3.org/2000/svg">
<mask id="path-1-inside-1_1468_1205" fill="white">
<path fill-rule="evenodd" clip-rule="evenodd" d="M190.404 113.486C93.5423 136.921 23.1089 182.488 0 202.342C17.1852 191.406 48.8216 173.7 62.4917 166.213C117.172 137.311 191.381 119.019 221.65 113.486C311.482 99.4259 404.894 99.1654 440.371 100.793C509.112 100.793 614.176 115.113 658.116 122.274C702.055 129.434 793.189 150.265 835.826 158.402C879.571 167.776 935.423 174.676 957.88 176.955C1048.69 181.893 1100.44 168.223 1116.06 162.365C1133.64 156.506 1151.68 149.763 1169.25 139.681C1182.78 156.874 1194.95 170.077 1201.99 176.955C1244.95 215.231 1285.96 233.646 1299.63 240.423C1304.51 243.411 1314.28 241.458 1306.47 236.517C1286.16 227.143 1261.55 211.781 1251.79 205.271C1218.61 185.24 1191.16 155.509 1175.87 135.779C1193.68 125.006 1205.89 115.496 1218.59 105.674C1252.76 73.5094 1270.01 38.6264 1275.22 22.6782C1283.03 -3.88075 1258.62 -2.65237 1243.98 4.12542C1226.79 9.59344 1201.99 37.3823 1190.27 50.9942C1184.67 57.5055 1182.2 52.3155 1181.48 50.9942C1161.95 14.9244 1146.21 5.16006 1137.54 2.17315C1114.89 -5.63831 1107.27 11.9951 1109.23 22.6782C1111.57 43.7692 1123.22 69.2215 1128.76 79.3113C1139.1 98.0577 1151.02 115.667 1162.44 130.84C1142.34 142.211 1133.64 144.791 1113.13 152.544C1061.58 173.635 941.281 166.609 886.601 155.473C795.793 136.979 655.186 109.639 587.812 100.793C395.651 71.8902 242.806 97.2124 190.404 113.486ZM1248.86 55.877C1225.7 87.4603 1196.01 110.814 1169.28 126.857C1168.38 125.563 1165.74 122.333 1164.88 121.356C1132.08 83.8615 1119.32 42.5324 1116.06 25.6076C1112.94 3.73477 1129.08 6.0792 1137.54 9.98551C1171.91 30.2953 1176.6 67.5374 1179.53 70.5243C1182.46 73.5113 1184.41 70.5243 1184.41 70.5243C1203.94 40.3126 1231.61 19.4238 1243.98 12.9139C1268.19 0.415595 1268.39 16.1687 1265.46 25.6076C1260.77 36.5436 1252.44 50.3439 1248.86 55.877Z"/>
</mask>
<path d="M1162.44 130.84L1158.01 123.006L1149.08 128.056L1155.25 136.252L1162.44 130.84ZM1175.87 135.779L1180.53 143.48L1189.17 138.251L1182.98 130.266L1175.87 135.779ZM1169.25 139.681L1162.18 145.248L1166.99 151.356L1173.73 147.487L1169.25 139.681ZM1169.28 126.857L1176.66 121.706L1171.85 114.816L1164.65 119.14L1169.28 126.857ZM1169.28 126.857L1161.9 132.008C1163.83 134.779 1166.13 137.904 1168.75 141.292L1175.87 135.779L1182.98 130.266C1180.52 127.093 1178.41 124.209 1176.66 121.706L1169.28 126.857ZM1169.25 139.681L1176.32 134.114C1174.12 131.322 1171.89 128.423 1169.63 125.428L1162.44 130.84L1155.25 136.252C1157.59 139.355 1159.9 142.357 1162.18 145.248L1169.25 139.681ZM1175.87 135.779L1171.21 128.078C1169.09 129.362 1166.94 130.63 1164.77 131.875L1169.25 139.681L1173.73 147.487C1176.02 146.17 1178.29 144.831 1180.53 143.48L1175.87 135.779ZM1162.44 130.84L1166.87 138.674C1169.19 137.362 1171.54 135.996 1173.91 134.573L1169.28 126.857L1164.65 119.14C1162.41 120.481 1160.2 121.77 1158.01 123.006L1162.44 130.84ZM0 202.342L-11.7301 188.689L9.66357 217.528L0 202.342ZM190.404 113.486L194.637 130.982L195.195 130.847L195.743 130.676L190.404 113.486ZM587.812 100.793L585.135 118.592L585.302 118.617L585.469 118.639L587.812 100.793ZM886.601 155.473L883.009 173.111L886.601 155.473ZM1113.13 152.544L1106.77 135.707L1106.54 135.793L1106.32 135.884L1113.13 152.544ZM1248.86 55.877L1263.37 66.5215L1263.68 66.0972L1263.97 65.6555L1248.86 55.877ZM1265.46 25.6076L1282 32.6981L1282.37 31.8372L1282.65 30.9427L1265.46 25.6076ZM1243.98 12.9139L1235.72 -3.08124L1235.66 -3.0481L1235.59 -3.01444L1243.98 12.9139ZM1184.41 70.5243L1199.48 80.3745L1199.5 80.3352L1199.53 80.2958L1184.41 70.5243ZM1137.54 9.98551L1146.7 -5.51117L1145.92 -5.97512L1145.09 -6.35733L1137.54 9.98551ZM1116.06 25.6076L1098.24 28.1531L1098.3 28.5817L1098.39 29.0068L1116.06 25.6076ZM1164.88 121.356L1178.43 109.503L1178.43 109.503L1164.88 121.356ZM1251.79 205.271L1261.77 190.294L1261.44 190.07L1261.09 189.862L1251.79 205.271ZM1306.47 236.517L1316.09 221.304L1315.09 220.671L1314.01 220.174L1306.47 236.517ZM1299.63 240.423L1309.03 225.07L1308.34 224.651L1307.63 224.296L1299.63 240.423ZM1201.99 176.955L1189.41 189.831L1189.71 190.12L1190.01 190.394L1201.99 176.955ZM1128.76 79.3113L1112.97 87.9663L1112.98 87.9865L1113 88.0067L1128.76 79.3113ZM1109.23 22.6782L1127.12 20.6905L1127.05 20.0628L1126.93 19.4415L1109.23 22.6782ZM1137.54 2.17315L1143.41 -14.8436L1143.41 -14.8436L1137.54 2.17315ZM1181.48 50.9942L1165.65 59.5642L1181.48 50.9942ZM1190.27 50.9942L1176.63 39.2511L1176.63 39.2511L1190.27 50.9942ZM1243.98 4.12542L1249.43 21.2781L1250.51 20.9355L1251.53 20.4611L1243.98 4.12542ZM1275.22 22.6782L1292.33 28.2655L1292.41 28.0125L1292.49 27.7572L1275.22 22.6782ZM1218.59 105.674L1229.6 119.911L1230.29 119.378L1230.92 118.782L1218.59 105.674ZM1116.06 162.365L1110.37 145.288L1110.05 145.394L1109.74 145.511L1116.06 162.365ZM957.88 176.955L956.064 194.863L956.483 194.905L956.903 194.928L957.88 176.955ZM835.826 158.402L839.598 140.801L839.4 140.759L839.201 140.721L835.826 158.402ZM440.371 100.793L439.546 118.774L439.959 118.793H440.371V100.793ZM221.65 113.486L218.867 95.7028L218.64 95.7383L218.414 95.7796L221.65 113.486ZM62.4917 166.213L54.0801 150.3L53.9625 150.362L53.8458 150.426L62.4917 166.213ZM1162.44 130.84L1171.3 146.508L1189.16 136.408L1176.83 120.016L1162.44 130.84ZM1175.87 135.779L1166.55 120.378L1149.26 130.836L1161.64 146.805L1175.87 135.779ZM1169.25 139.681L1183.39 128.547L1173.78 116.331L1160.29 124.069L1169.25 139.681ZM1169.28 126.857L1154.52 137.158L1164.13 150.937L1178.54 142.29L1169.28 126.857ZM0 202.342L11.7301 215.995C32.7217 197.96 100.597 153.733 194.637 130.982L190.404 113.486L186.172 95.991C86.4874 120.108 13.4961 167.015 -11.7301 188.689L0 202.342ZM190.404 113.486L195.743 130.676C245.392 115.257 395.486 90.0679 585.135 118.592L587.812 100.793L590.49 82.9928C395.815 53.7126 240.22 79.1675 185.066 96.2961L190.404 113.486ZM587.812 100.793L585.469 118.639C652.096 127.388 792.053 154.587 883.009 173.111L886.601 155.473L890.193 137.835C799.532 119.371 658.276 91.8905 590.156 82.9458L587.812 100.793ZM886.601 155.473L883.009 173.111C911.702 178.955 956.613 183.57 1000.83 184.092C1044.29 184.606 1090.51 181.248 1119.95 169.204L1113.13 152.544L1106.32 135.884C1084.2 144.93 1044.49 148.606 1001.25 148.095C958.758 147.593 916.18 143.128 890.193 137.835L886.601 155.473ZM1248.86 55.877L1263.97 65.6555C1267.72 59.8547 1276.71 45.0447 1282 32.6981L1265.46 25.6076L1248.91 18.517C1244.83 28.0425 1237.15 40.833 1233.75 46.0984L1248.86 55.877ZM1265.46 25.6076L1282.65 30.9427C1283.76 27.3513 1284.71 22.7989 1284.74 17.9899C1284.77 13.5194 1284.01 6.41486 1279.21 0.124582C1273.62 -7.21292 1265.27 -10.0052 1257.25 -9.68877C1250.08 -9.4059 1242.79 -6.73217 1235.72 -3.08124L1243.98 12.9139L1252.23 28.9091C1254.6 27.6858 1256.33 26.9915 1257.49 26.6157C1258.68 26.232 1259.01 26.2696 1258.67 26.2833C1258.28 26.2985 1256.97 26.2808 1255.23 25.5505C1253.38 24.7767 1251.76 23.4955 1250.58 21.944C1249.48 20.4997 1249.04 19.2063 1248.88 18.556C1248.72 17.9165 1248.74 17.6157 1248.74 17.7793C1248.74 18.1881 1248.62 19.1444 1248.27 20.2724L1265.46 25.6076ZM1243.98 12.9139L1235.59 -3.01444C1220.66 4.84213 1190.61 27.7815 1169.3 60.7529L1184.41 70.5243L1199.53 80.2958C1217.27 52.8436 1242.55 34.0054 1252.36 28.8423L1243.98 12.9139ZM1184.41 70.5243C1169.35 60.6742 1169.35 60.6657 1169.36 60.6573C1169.36 60.6545 1169.37 60.6461 1169.37 60.6405C1169.38 60.6293 1169.38 60.618 1169.39 60.6068C1169.41 60.5844 1169.42 60.562 1169.44 60.5395C1169.47 60.4947 1169.5 60.4499 1169.53 60.405C1169.59 60.3154 1169.65 60.2253 1169.71 60.1348C1169.84 59.9546 1169.98 59.7692 1170.13 59.5803C1170.42 59.2098 1170.77 58.7867 1171.21 58.3409C1171.99 57.5418 1173.51 56.1784 1175.86 55.1506C1178.47 54.0129 1181.93 53.3862 1185.65 54.263C1189.19 55.0962 1191.4 56.916 1192.38 57.921L1179.53 70.5243L1166.68 83.1277C1169.13 85.6261 1172.68 88.1927 1177.41 89.3059C1182.32 90.4627 1186.82 89.6493 1190.28 88.1383C1193.48 86.7371 1195.67 84.8136 1196.91 83.5478C1197.58 82.8687 1198.11 82.2355 1198.52 81.7134C1198.73 81.4486 1198.91 81.202 1199.07 80.9795C1199.15 80.8679 1199.22 80.7614 1199.29 80.6606C1199.32 80.6102 1199.36 80.5611 1199.39 80.5134C1199.4 80.4896 1199.42 80.4661 1199.43 80.4429C1199.44 80.4314 1199.45 80.4199 1199.46 80.4085C1199.46 80.4028 1199.47 80.3943 1199.47 80.3914C1199.47 80.383 1199.48 80.3745 1184.41 70.5243ZM1179.53 70.5243L1192.38 57.921C1193.62 59.1784 1194.34 60.3206 1194.66 60.8407C1195.01 61.4288 1195.22 61.8734 1195.3 62.0409C1195.44 62.3456 1195.44 62.3882 1195.26 61.8929C1194.88 60.803 1194.49 59.5368 1193.67 57.0464C1192.19 52.5455 1189.98 46.1327 1186.57 38.9972C1179.75 24.7031 1167.91 7.02101 1146.7 -5.51117L1137.54 9.98551L1128.39 25.4822C1141.55 33.2598 1149.24 44.3537 1154.08 54.5048C1156.51 59.5919 1158.17 64.3191 1159.47 68.2758C1160.04 70.0142 1160.76 72.3063 1161.33 73.9041C1161.63 74.7527 1162.06 75.9215 1162.61 77.1099C1162.95 77.8586 1164.2 80.5964 1166.68 83.1277L1179.53 70.5243ZM1137.54 9.98551L1145.09 -6.35733C1141.74 -7.90159 1137.57 -9.3389 1133.04 -10.0686C1128.66 -10.7739 1122.65 -11.0248 1116.47 -8.84472C1109.64 -6.4365 1103.68 -1.38786 1100.38 6.25705C1097.38 13.2205 1097.2 20.8707 1098.24 28.1531L1116.06 25.6076L1133.88 23.0621C1133.64 21.3454 1133.65 20.3439 1133.69 19.9069C1133.72 19.4802 1133.76 19.7857 1133.44 20.5224C1133.09 21.317 1132.45 22.3455 1131.41 23.3028C1130.38 24.2453 1129.3 24.8027 1128.45 25.1035C1127.64 25.3876 1127.1 25.4225 1126.98 25.4277C1126.86 25.4331 1126.96 25.4168 1127.32 25.4738C1128.09 25.5988 1129.11 25.9194 1130 26.3284L1137.54 9.98551ZM1116.06 25.6076L1098.39 29.0068C1102.08 48.2333 1115.93 92.7461 1151.34 133.21L1164.88 121.356L1178.43 109.503C1148.22 74.9768 1136.55 36.8315 1133.74 22.2083L1116.06 25.6076ZM1251.79 205.271L1241.8 220.248C1251.86 226.954 1277.37 242.91 1298.92 252.86L1306.47 236.517L1314.01 220.174C1294.95 211.376 1271.24 196.608 1261.77 190.294L1251.79 205.271ZM1306.47 236.517L1296.85 251.73C1297 251.83 1296.26 251.401 1295.27 250.305C1294.39 249.329 1292.12 246.511 1291.53 241.926C1290.84 236.536 1292.84 231.745 1295.73 228.581C1298.16 225.916 1300.73 224.852 1301.82 224.469C1304.05 223.683 1305.48 223.838 1305.79 223.872C1306.24 223.92 1307.43 224.093 1309.03 225.07L1299.63 240.423L1290.24 255.776C1294.27 258.246 1298.52 259.296 1301.92 259.664C1305.19 260.017 1309.5 259.935 1313.8 258.417C1315.92 257.668 1319.34 256.114 1322.32 252.843C1325.76 249.072 1328.03 243.559 1327.23 237.338C1326.54 231.921 1323.79 228.164 1321.96 226.146C1320.03 224.01 1317.88 222.439 1316.09 221.304L1306.47 236.517ZM1299.63 240.423L1307.63 224.296C1293.79 217.436 1254.88 199.966 1213.96 163.515L1201.99 176.955L1190.01 190.394C1235.03 230.495 1278.14 249.857 1291.64 256.55L1299.63 240.423ZM1128.76 79.3113L1144.54 70.6564C1139.37 61.2348 1129.07 38.2587 1127.12 20.6905L1109.23 22.6782L1091.34 24.666C1094.07 49.2797 1107.07 77.2083 1112.97 87.9663L1128.76 79.3113ZM1109.23 22.6782L1126.93 19.4415C1126.95 19.5133 1126.89 19.0696 1127.06 18.4234C1127.21 17.8198 1127.4 17.684 1127.26 17.8337C1127.17 17.9274 1127.02 18.0547 1126.83 18.163C1126.62 18.2751 1126.51 18.2883 1126.59 18.2742C1126.73 18.2481 1128.24 18.0064 1131.68 19.1899L1137.54 2.17315L1143.41 -14.8436C1127.01 -20.501 1111.47 -17.9084 1101.06 -6.85325C1092.08 2.67906 1089.67 15.8052 1091.52 25.915L1109.23 22.6782ZM1137.54 2.17315L1131.68 19.1899C1134.47 20.1543 1147.3 25.6574 1165.65 59.5642L1181.48 50.9942L1197.31 42.4242C1176.61 4.19137 1157.94 -9.83416 1143.41 -14.8436L1137.54 2.17315ZM1181.48 50.9942L1165.65 59.5642C1165.57 59.408 1166.53 61.3147 1167.87 63.129C1169.18 64.9112 1171.91 68.1592 1176.51 70.2773C1181.81 72.7241 1187.79 72.8291 1193.27 70.6609C1198.04 68.7682 1201.51 65.5301 1203.91 62.7372L1190.27 50.9942L1176.63 39.2511C1176.23 39.714 1177.29 38.2689 1180 37.193C1183.41 35.8417 1187.68 35.7876 1191.58 37.5855C1194.77 39.0549 1196.4 41.1646 1196.87 41.8056C1197.37 42.4786 1197.75 43.241 1197.31 42.4242L1181.48 50.9942ZM1190.27 50.9942L1203.91 62.7372C1209.68 56.0402 1218.34 46.2433 1227.48 37.5494C1237.37 28.1453 1245.21 22.6226 1249.43 21.2781L1243.98 4.12542L1238.52 -13.0272C1225.56 -8.90374 1212.41 2.20202 1202.67 11.4623C1192.18 21.4329 1182.58 32.3364 1176.63 39.2511L1190.27 50.9942ZM1243.98 4.12542L1251.53 20.4611C1253.77 19.4281 1256.43 18.599 1258.88 18.2188C1260.08 18.0334 1261.06 17.9821 1261.79 18.0052C1262.53 18.0288 1262.79 18.1231 1262.67 18.0872C1262.53 18.0438 1261.85 17.8046 1261 17.0887C1260.09 16.3157 1259.39 15.3268 1259 14.3614C1258.31 12.6404 1259.31 12.9895 1257.95 17.5992L1275.22 22.6782L1292.49 27.7572C1295.04 19.0875 1295.92 9.63049 1292.38 0.881954C1288.55 -8.62695 1280.89 -13.9444 1273.37 -16.2861C1266.37 -18.4658 1259.2 -18.257 1253.39 -17.3586C1247.39 -16.4322 1241.51 -14.5661 1236.42 -12.2103L1243.98 4.12542ZM1275.22 22.6782L1258.11 17.0909C1253.79 30.3096 1238.13 62.566 1206.25 92.5669L1218.59 105.674L1230.92 118.782C1267.4 84.4528 1286.23 46.9433 1292.33 28.2655L1275.22 22.6782ZM1116.06 162.365L1109.74 145.511C1096.85 150.344 1047.65 163.81 958.858 158.981L957.88 176.955L956.903 194.928C1049.72 199.976 1104.03 186.102 1122.38 179.219L1116.06 162.365ZM957.88 176.955L959.697 159.047C937.519 156.796 882.41 149.975 839.598 140.801L835.826 158.402L832.055 176.002C876.732 185.576 933.326 192.556 956.064 194.863L957.88 176.955ZM835.826 158.402L839.201 140.721C798.19 132.894 704.913 111.662 661.011 104.508L658.116 122.274L655.221 140.039C699.198 147.206 788.187 167.635 832.452 176.083L835.826 158.402ZM658.116 122.274L661.011 104.508C616.949 97.3278 510.665 82.7926 440.371 82.7926V100.793V118.793C507.559 118.793 611.403 132.899 655.221 140.039L658.116 122.274ZM440.371 100.793L441.196 82.8115C404.852 81.1445 310.186 81.4096 218.867 95.7028L221.65 113.486L224.434 131.27C312.778 117.442 404.936 117.186 439.546 118.774L440.371 100.793ZM221.65 113.486L218.414 95.7796C187.36 101.456 111.1 120.16 54.0801 150.3L62.4917 166.213L70.9033 182.127C123.243 154.461 195.401 136.582 224.887 131.193L221.65 113.486ZM62.4917 166.213L53.8458 150.426C40.1982 157.9 8.08139 175.864 -9.66357 187.156L0 202.342L9.66357 217.528C26.289 206.948 57.4451 189.499 71.1376 182.001L62.4917 166.213ZM1113.13 152.544L1119.5 169.381C1139.67 161.753 1149.76 158.691 1171.3 146.508L1162.44 130.84L1153.58 115.172C1134.91 125.73 1127.6 127.829 1106.77 135.707L1113.13 152.544ZM1162.44 130.84L1176.83 120.016C1165.78 105.346 1154.36 88.4527 1144.52 70.616L1128.76 79.3113L1113 88.0067C1123.84 107.663 1136.26 125.989 1148.06 141.664L1162.44 130.84ZM1218.59 105.674L1207.57 91.4383C1194.89 101.255 1183.39 110.192 1166.55 120.378L1175.87 135.779L1185.19 151.18C1203.97 139.819 1216.9 129.737 1229.6 119.911L1218.59 105.674ZM1175.87 135.779L1161.64 146.805C1177.67 167.489 1206.7 199.077 1242.48 220.68L1251.79 205.271L1261.09 189.862C1230.52 171.402 1204.65 143.53 1190.1 124.753L1175.87 135.779ZM1201.99 176.955L1214.57 164.078C1208.17 157.828 1196.52 145.224 1183.39 128.547L1169.25 139.681L1155.11 150.815C1169.05 168.524 1181.73 182.327 1189.41 189.831L1201.99 176.955ZM1169.25 139.681L1160.29 124.069C1144.28 133.253 1127.59 139.549 1110.37 145.288L1116.06 162.365L1121.75 179.441C1139.69 173.463 1159.07 166.273 1178.21 155.293L1169.25 139.681ZM1248.86 55.877L1234.34 45.2324C1212.96 74.3869 1185.3 96.2474 1160.02 111.423L1169.28 126.857L1178.54 142.29C1206.72 125.381 1238.43 100.534 1263.37 66.5215L1248.86 55.877ZM1169.28 126.857L1184.04 116.555C1182.59 114.482 1179.47 110.69 1178.43 109.503L1164.88 121.356L1151.34 133.21C1151.34 133.21 1151.34 133.215 1151.35 133.226C1151.36 133.238 1151.38 133.253 1151.39 133.273C1151.43 133.314 1151.47 133.367 1151.53 133.434C1151.64 133.567 1151.78 133.735 1151.94 133.931C1152.27 134.325 1152.66 134.796 1153.04 135.278C1153.44 135.764 1153.8 136.228 1154.1 136.616C1154.45 137.058 1154.56 137.215 1154.52 137.158L1169.28 126.857Z" fill="#C6AF52" mask="url(#path-1-inside-1_1468_1205)"/>
</svg>
