<svg width="1310" height="242" viewBox="0 0 1310 242" fill="none" xmlns="http://www.w3.org/2000/svg">
<path d="M1195.83 164.812C1200.51 169.641 1205.56 174.564 1210.93 179.434C1208.87 177.678 1206.8 175.877 1204.72 174.029C1202.32 171.683 1199.31 168.577 1195.83 164.812ZM1256.95 4.35254C1260.75 3.78879 1264.18 3.89573 1266.83 4.71973C1269.41 5.52269 1271.1 6.93762 1271.98 9.11914C1272.93 11.4627 1273.2 15.3378 1271.4 21.4941C1266.37 36.8441 1249.51 71.0252 1215.98 102.634C1203.34 112.411 1191.32 121.758 1173.8 132.356L1170.26 134.497L1170.26 134.492L1167.26 136.212C1150.04 146.094 1132.3 152.738 1114.8 158.569L1114.72 158.593L1114.66 158.619C1099.65 164.248 1048.49 177.865 958.188 172.964C935.73 170.682 880.14 163.806 836.664 154.49L836.62 154.48L836.576 154.473L832.471 153.679C788.621 145.11 701.318 125.261 658.76 118.325C614.808 111.163 509.531 96.802 440.443 96.792C405.193 95.1847 313.72 95.4295 224.831 108.948C294.276 94.3947 426.979 80.6473 587.217 104.748L587.254 104.754L587.291 104.759C654.499 113.584 794.962 140.892 885.803 159.393C913.443 165.022 957.448 169.579 1000.99 170.093C1044.32 170.604 1087.96 167.131 1114.56 156.28C1134.98 148.558 1143.99 145.871 1164.41 134.321L1168.38 132.076L1168.37 132.067L1171.34 130.286C1197.97 114.305 1227.59 91.1039 1250.98 59.7422L1252.16 58.1484L1252.22 58.0498C1255.84 52.4567 1264.31 38.4329 1269.14 27.1846L1269.22 26.9922L1269.28 26.793C1270.1 24.1593 1270.73 21.005 1270.74 17.9072C1270.76 14.8845 1270.2 11.3897 1268.08 8.60938C1265.78 5.59637 1262.21 4.12683 1257.8 4.30078C1257.52 4.3118 1257.24 4.32851 1256.95 4.35254ZM1175.5 48.4629C1176.31 49.8935 1177.14 51.3708 1177.96 52.8984L1177.97 52.9082C1178.09 53.1252 1178.53 53.9954 1179.15 54.8398C1179.77 55.6785 1180.8 56.8421 1182.37 57.5645C1184.1 58.3597 1186.09 58.4453 1188.11 57.6455C1188.34 57.5538 1188.57 57.4511 1188.8 57.3389C1186.5 60.3536 1184.27 63.4823 1182.12 66.7188C1182.1 66.6683 1182.08 66.6167 1182.06 66.5635C1181.61 65.2761 1181.09 63.6109 1180.37 61.4131C1179.22 57.9132 1177.68 53.4361 1175.5 48.4629ZM1244.69 8.10547C1243.86 8.49369 1243.02 8.91041 1242.15 9.35938L1242.13 9.36719L1242.12 9.37402C1238.1 11.4892 1232.61 15.0074 1226.35 19.7764C1233.01 14.2131 1239.38 9.9313 1244.69 8.10547Z" stroke="#C6AF52" stroke-width="8"/>
</svg>
