<svg width="1310" height="242" viewBox="0 0 1310 242" fill="none" xmlns="http://www.w3.org/2000/svg">
<path fill-rule="evenodd" clip-rule="evenodd" d="M190.404 113.486C93.5423 136.92 23.1089 182.487 0 202.341C17.1852 191.406 48.8216 173.699 62.4917 166.213C117.172 137.31 191.381 119.019 221.65 113.486C311.482 99.4255 404.894 99.165 440.371 100.792C509.112 100.792 614.176 115.113 658.116 122.273C702.055 129.434 793.189 150.264 835.826 158.401C879.571 167.775 935.423 174.676 957.88 176.954C1048.69 181.893 1100.44 168.223 1116.06 162.364C1133.64 156.506 1151.68 149.763 1169.25 139.681C1182.78 156.873 1194.95 170.077 1201.99 176.954C1244.95 215.23 1285.96 233.646 1299.63 240.422C1304.51 243.41 1314.28 241.457 1306.47 236.517C1286.16 227.143 1261.55 211.78 1251.79 205.271C1218.61 185.239 1191.16 155.509 1175.87 135.779C1193.68 125.005 1205.89 115.496 1218.59 105.674C1252.76 73.509 1270.01 38.626 1275.22 22.6778C1283.03 -3.88114 1258.62 -2.65277 1243.98 4.12502C1226.79 9.59305 1201.99 37.3819 1190.27 50.9938C1184.67 57.5051 1182.2 52.3151 1181.48 50.9938C1161.95 14.924 1146.21 5.15966 1137.54 2.17276C1114.89 -5.63871 1107.27 11.9947 1109.23 22.6778C1111.57 43.7688 1123.22 69.2211 1128.76 79.3109C1139.1 98.0573 1151.02 115.667 1162.44 130.839C1142.34 142.21 1133.64 144.79 1113.13 152.543C1061.58 173.634 941.281 166.609 886.601 155.473C795.793 136.979 655.186 109.639 587.812 100.792C395.651 71.8898 242.806 97.212 190.404 113.486ZM1248.86 55.8766C1225.7 87.4599 1196.01 110.814 1169.28 126.856C1168.38 125.562 1165.74 122.333 1164.88 121.356C1132.08 83.8611 1119.32 42.532 1116.06 25.6072C1112.94 3.73437 1129.08 6.0788 1137.54 9.98511C1171.91 30.2949 1176.6 67.537 1179.53 70.5239C1182.46 73.5109 1184.41 70.5239 1184.41 70.5239C1203.94 40.3122 1231.61 19.4234 1243.98 12.9135C1268.19 0.415197 1268.39 16.1683 1265.46 25.6072C1260.77 36.5432 1252.44 50.3435 1248.86 55.8766Z" fill="#C6AF52"/>
</svg>
