<svg width="119" height="164" viewBox="0 0 119 164" fill="none" xmlns="http://www.w3.org/2000/svg">
<path d="M77.208 0.620117L77.2178 0.621094L77.5322 0.655273C80.1683 0.992332 82.8022 2.5537 83.8623 5.08984C86.6655 3.74543 89.9651 3.8174 92.8359 4.91797C95.9628 6.11677 98.6378 8.55932 99.6426 11.8105C101.272 11.8819 103.033 12.0033 104.672 12.4209C106.673 12.9306 108.535 13.8887 109.782 15.7588L109.786 15.7637C110.641 17.0853 111.067 18.7893 110.911 20.3838C110.848 21.0354 110.684 21.6734 110.411 22.2617C112.256 22.6805 113.993 23.6246 115.37 24.9111C117.385 26.7929 118.664 29.4412 118.354 32.3057V32.3096C118.045 34.9356 116.429 37.2691 114.277 38.7354C113.016 39.5948 111.555 40.1623 110.047 40.3164C110.233 41.3257 110.091 42.4333 109.674 43.4111L109.675 43.4121C109.031 45.022 107.739 45.8969 106.296 46.3066C104.863 46.7132 103.258 46.6712 101.903 46.4453V46.4443C98.8393 46.0062 95.03 45.2634 92.7227 42.6484L92.7168 42.6416C91.4019 41.0873 90.7884 38.6521 91.625 36.6562C89.1945 35.6307 86.8653 34.3782 84.6387 32.8965C82.888 35.1517 79.6084 35.7176 77.0332 34.6875V34.6865C75.0095 33.9063 73.6615 32.3527 72.7881 30.5488C72.3595 29.6637 72.0429 28.7133 71.8135 27.7549C68.3142 30.9763 63.3296 32.4478 58.6279 31.4834C56.9181 35.3472 52.5194 37.4617 48.4697 36.7393C48.3043 39.1634 47.2126 41.5584 45.1758 43.126L44.9561 43.3096C42.6671 45.1603 39.6896 45.5619 37.0137 44.6699C35.6907 44.2289 34.2915 43.6192 33.3369 42.5195C32.7951 41.9777 32.3353 41.3246 31.8994 40.707C31.4554 40.078 31.0355 39.4838 30.5508 38.999L30.3652 38.8135C28.5201 37.0677 25.6092 37.7079 24.2891 40.084L24.2842 40.0938L24.2773 40.1035C23.4788 41.368 23.4652 42.8498 23.9346 44.2754C24.2217 45.1474 24.6863 45.9835 25.2432 46.71C25.4794 46.1828 25.6991 45.6722 25.9189 45.1592L25.9229 45.1484L25.9287 45.1387C26.1263 44.7436 26.4433 44.5031 26.8086 44.4258C27.1608 44.3513 27.5179 44.4365 27.8076 44.6055C28.383 44.9412 28.814 45.7024 28.4043 46.5225L28.3994 46.5332L28.3936 46.542C27.79 47.5983 27.2257 48.4412 26.6445 49.6035L26.6328 49.625L26.6191 49.6465C26.1559 50.341 25.2879 50.2667 24.7441 49.9043L24.7217 49.8887L24.7012 49.8711C22.1375 47.6088 20.2685 43.7893 21.3564 40.2139C21.9962 37.5476 24.4871 35.5548 27.2471 35.0947L27.2568 35.0938C27.3175 35.0851 27.3778 35.079 27.4375 35.0723C25.4574 32.3579 24.7355 28.7858 25.9082 25.3848L25.9092 25.3809C27.3028 21.4786 30.9854 18.7243 34.9912 18.3965C35.201 16.882 35.4974 15.2651 36.0293 13.7578C36.7064 11.8392 37.7755 10.0633 39.5615 8.89844C42.175 7.12122 45.6769 7.51098 47.957 9.5127C49.4359 5.59199 53.0817 2.87884 56.9688 1.66406C59.3559 0.773132 62.5336 0.305749 65.002 1.23145C66.2712 1.70749 67.341 2.69648 67.8994 3.87305C67.9579 3.9963 68.0096 4.12254 68.0566 4.25C68.9598 3.5421 69.9119 2.86164 70.9141 2.28613C72.6891 1.26674 74.6422 0.559431 76.7783 0.601562L77.208 0.620117ZM79.9072 4.09277C78.8081 3.42292 77.4227 3.10964 76.1777 3.17871L76.1729 3.17969C74.5785 3.24901 73.0311 3.87416 71.5596 4.77148C70.1488 5.63178 68.831 6.72847 67.6279 7.78516L67.417 8.10156L67.334 8.01855C66.8333 8.33761 66.2289 8.27046 65.8223 7.9834C65.5981 7.82509 65.4158 7.58807 65.3525 7.29102C65.3016 7.05144 65.3349 6.80188 65.4482 6.56152L65.3525 6.50391L65.5859 6.30371C65.9773 5.50267 65.6363 4.47926 64.8096 4.00684L64.7979 4L64.7861 3.99219C64.0073 3.47297 62.933 3.32617 61.9277 3.32617C60.0796 3.32618 58.0801 3.75249 56.3662 4.46582C53.1222 5.87648 50.2354 8.64211 49.877 12.3066L49.8809 12.3154H49.876C49.8704 12.3735 49.8637 12.4317 49.8594 12.4902L49.8574 12.5146L49.8525 12.5391C49.7479 13.0621 49.3409 13.4602 48.8906 13.6104C48.6598 13.6873 48.3983 13.7057 48.1445 13.626C47.8852 13.5445 47.6612 13.3686 47.5039 13.1064L47.4922 13.0859L47.4824 13.0645C47.468 13.0324 47.4516 13.0013 47.4365 12.9697L47.252 13.0322L47.2812 12.6748C45.9044 10.2772 42.5071 9.53144 40.3428 11.4355C39.3147 12.3967 38.6476 13.7165 38.2012 15.1807C37.7545 16.6457 37.5376 18.2279 37.3916 19.6875C37.3832 19.9805 37.2825 20.282 37.0723 20.5186C36.846 20.7731 36.5152 20.9277 36.1133 20.9277C32.7561 20.9278 29.3975 23.1726 28.2803 26.3711C27.3349 29.4864 28.3583 32.9989 30.8369 35.1211L31.0811 35.3223L31.0996 35.3369L31.1162 35.3535C31.378 35.6154 31.4495 35.93 31.416 36.2266C32.1969 36.831 32.8656 37.6027 33.4756 38.3936L34.0889 39.2139L34.0908 39.2158C35.9326 41.7661 38.8412 43.2462 41.8438 42.1543L41.8477 42.1523C44.4014 41.2585 46.128 38.5762 45.9219 35.8896L45.9072 35.8838L45.9209 35.8721C45.9049 35.6716 45.8788 35.4712 45.8408 35.2715V35.2705C45.6294 34.1975 46.7044 33.399 47.7021 33.7979L47.7148 33.8027L47.7266 33.8086C47.9097 33.8965 48.0968 33.9715 48.2852 34.0371L48.29 34.0342V34.0381C49.8512 34.5803 51.5688 34.3729 53.0586 33.6279C54.7312 32.7915 56.0751 31.2998 56.5547 29.5186L56.5576 29.5068L56.5615 29.4961C56.676 29.1528 56.9474 28.8965 57.2383 28.751C57.5254 28.6074 57.8872 28.5442 58.2266 28.6523H58.2275C62.9212 30.0327 68.2929 28.32 71.3252 24.4395L71.3076 24.2109L71.46 24.2617C71.4987 24.2101 71.5392 24.1598 71.5771 24.1074C71.945 23.5647 72.5063 23.3172 73.0488 23.46C73.518 23.5836 73.8685 23.9726 74.0098 24.4941L74.0576 24.7256L74.0605 24.7432L74.0615 24.7607C74.0641 24.8098 74.0682 24.8589 74.0713 24.9082L74.209 24.9316L74.085 25.1064C74.179 26.3738 74.4297 27.7277 74.9297 28.9375C75.4742 30.255 76.3022 31.3795 77.5176 32.0566C78.3764 32.5191 79.5608 32.6603 80.6338 32.4219C81.6377 32.1987 82.4831 31.6604 82.8945 30.8193L82.9707 30.6475C83.0932 30.3066 83.4007 30.0252 83.7129 29.8691C84.0291 29.711 84.4918 29.6148 84.8838 29.876L84.8916 29.8809V29.8818C85.175 30.0802 85.461 30.2738 85.748 30.4648L85.8213 30.4287L85.7959 30.4961C88.4392 32.2499 91.2376 33.6924 94.1924 34.8223L94.1914 34.8232C94.6318 34.9533 94.9218 35.3298 95.0381 35.7246C95.1603 36.1402 95.1154 36.642 94.8096 37.0498L94.7803 37.0889L94.7422 37.1191C94.0681 37.6708 93.8753 38.4329 94.0039 39.2207C94.1184 39.922 94.4876 40.6217 94.9775 41.1406L95.1953 41.3516L95.1982 41.3545C96.5253 42.5609 98.3923 43.0373 100.238 43.4375L101.026 43.6064L101.032 43.6074C101.986 43.8276 103.154 44.0731 104.255 44.0557C105.357 44.0382 106.316 43.7591 106.942 43.0078L106.946 43.0029C107.328 42.5568 107.623 41.8381 107.639 41.2002C107.647 40.8859 107.585 40.619 107.464 40.418C107.362 40.2504 107.207 40.1071 106.964 40.0176L106.83 39.9766L106.443 39.8711L106.477 39.7695C106.004 39.389 105.899 38.7606 106.041 38.2744C106.128 37.9766 106.315 37.689 106.611 37.5176C106.809 37.4031 107.035 37.3527 107.275 37.3701L107.291 37.3262L107.665 37.4551C107.666 37.4556 107.668 37.4565 107.669 37.457H107.67C107.674 37.4583 107.678 37.4596 107.682 37.4609C109.445 38.0684 111.402 37.6675 112.966 36.6074C114.532 35.546 115.661 33.8522 115.798 31.9404L115.799 31.9307C116.004 29.8098 115.05 27.9126 113.514 26.5684C112.047 25.2849 110.074 24.531 108.151 24.582L108.052 24.6406L108.033 24.5869C107.977 24.5894 107.92 24.5899 107.864 24.5938L107.851 24.5947H107.836C106.525 24.5943 106.132 22.8737 107.19 22.2383C107.251 22.2018 107.309 22.1629 107.365 22.123L107.354 22.0615L107.454 22.0557C108.197 21.4776 108.491 20.593 108.445 19.6113C108.395 18.5149 107.919 17.3552 107.242 16.5391C106.222 15.4562 104.851 14.897 103.322 14.5947C101.782 14.2903 100.134 14.2548 98.5771 14.1807V14.1787C98.3073 14.1727 98.0781 14.0419 97.9141 13.9014C97.7417 13.7536 97.5999 13.563 97.5049 13.373L97.4824 13.3281L97.4717 13.2793C96.8462 10.4305 94.6148 8.24939 91.9092 7.22363C89.4475 6.2904 86.6463 6.33337 84.3818 7.65723L84.3867 7.70996L84.3369 7.68457C84.1293 7.8079 83.9253 7.94066 83.7275 8.08594L83.7285 8.08691C83.5196 8.24353 83.2875 8.32426 83.0508 8.32031C82.8171 8.31632 82.6091 8.2304 82.4424 8.10547C82.1284 7.87 81.9292 7.47409 81.917 7.07227C81.7854 5.75944 81.0005 4.75907 79.9072 4.09277Z" fill="black" stroke="black" stroke-width="0.8"/>
<path d="M104.569 49.4238C104.569 49.6519 104.447 49.8228 104.3 49.9209C104.164 50.0111 104.009 50.0439 103.876 50.0439C103.743 50.0439 103.587 50.0111 103.452 49.9209C103.315 49.8296 103.201 49.6754 103.186 49.4707L103.143 48.9795C102.998 46.5137 103.913 43.8459 105.804 42.2363C106.107 41.9341 106.636 41.443 107.211 41.0596C107.501 40.866 107.818 40.6901 108.134 40.583C108.44 40.4792 108.787 40.4276 109.118 40.5322L109.119 40.5312C109.121 40.5317 109.122 40.5327 109.124 40.5332C109.128 40.5344 109.132 40.5349 109.136 40.5361L109.135 40.5371C109.756 40.7199 110.292 41.1911 110.713 41.708C111.139 42.2304 111.483 42.8426 111.715 43.3789C112.959 45.7221 112.643 48.5314 110.93 50.5586L110.931 50.5596C110.141 51.5076 108.901 52.2748 107.684 52.7314L107.676 52.7344L107.669 52.7363C107.204 52.8912 106.536 53.0508 105.874 53.0508C105.222 53.0507 104.488 52.8946 104.009 52.3203V52.3193C103.807 52.1048 103.685 51.8194 103.716 51.5107C103.748 51.1854 103.942 50.9033 104.241 50.7041L104.262 50.6904L104.284 50.6797C104.661 50.4912 105.106 50.4538 105.488 50.4355C105.902 50.4159 106.256 50.4171 106.584 50.3516L106.597 50.3486C107.401 50.2146 108.203 49.8104 108.727 49.2871L108.734 49.2803L108.742 49.2725C110.067 48.0799 110.343 46.3605 109.667 44.7373L109.651 44.7002L109.644 44.6611C109.558 44.234 109.394 43.9194 109.167 43.6924C109.102 43.6279 109.027 43.5248 108.969 43.4434C108.898 43.3446 108.834 43.2516 108.76 43.1494C108.689 43.0528 108.628 42.9732 108.579 42.9189C108.51 42.9226 108.402 42.9473 108.249 43.0195C108.052 43.1123 107.831 43.2588 107.604 43.4336C107.15 43.7824 106.727 44.2047 106.506 44.4258C105.113 45.819 104.431 47.469 104.568 49.3955L104.569 49.4092V49.4238Z" fill="black" stroke="black" stroke-width="0.8"/>
<path d="M26.7441 48.6572C26.9604 48.6572 27.2668 48.7392 27.4521 48.9834L27.5244 49.0986L27.5488 49.1494L27.5596 49.2051C28.2995 53.2013 28.7309 57.1021 30.1816 61.0195C31.5435 64.5595 33.4142 67.9692 35.793 71.0098L36.2764 71.6133L36.2793 71.6162C40.9227 77.4208 47.1598 81.6273 54.1191 83.6572H54.1201C61.5201 85.8338 69.5029 85.69 76.7598 83.3691L77.3955 83.1445C83.9493 80.7587 89.8023 76.2268 94.0225 70.5996L94.0283 70.5918L94.4307 70.0713C96.4164 67.4415 98.0237 64.4406 99.25 61.3066C100.407 57.9747 100.988 54.4927 101.575 50.9717C101.63 50.6042 101.825 50.3247 102.104 50.1611C102.373 50.0032 102.688 49.9711 102.973 50.0205C103.529 50.1173 104.13 50.5711 104.13 51.3311C104.13 55.5151 102.787 59.9731 101.164 63.8086C99.5321 67.8126 97.1603 71.5179 94.1982 74.7764C83.5234 86.9297 65.6 91.0721 50.4893 85.1465V85.1475C43.2207 82.3289 36.9994 77.1408 32.5586 70.7754L32.5557 70.7715C30.3325 67.5106 28.7043 63.9576 27.5215 60.2637L27.3037 59.6211C26.2348 56.3866 25.4748 52.7519 26.0361 49.2256C26.0533 49.0212 26.1697 48.8662 26.3115 48.7754C26.451 48.6863 26.6101 48.6573 26.7441 48.6572Z" fill="black" stroke="black" stroke-width="0.8"/>
<path d="M53.0342 41.623C53.659 41.1544 54.4896 40.8 55.3613 40.957C57.1673 40.9734 58.6611 42.3082 58.6611 44.29C58.6611 44.8388 58.4509 45.2801 58.1104 45.5801C57.7773 45.8733 57.3449 46.0107 56.9229 46.0107C56.3018 46.0107 55.6465 45.7067 55.3057 45.0977C55.0791 45.3275 54.7746 45.489 54.3975 45.5576C54.0084 45.6548 53.548 45.6049 53.1592 45.4219C52.7639 45.2358 52.4001 44.8894 52.2959 44.3682L52.293 44.3555C52.1344 43.4036 52.2797 42.3717 52.9912 41.6602L53.0117 41.6406L53.0342 41.623Z" fill="black" stroke="black" stroke-width="0.8"/>
<path d="M76.3467 43.0986C77.1814 42.4308 78.2142 42.2482 79.2373 42.7461C80.2332 43.0884 81.1556 44.1272 80.7969 45.4131L80.7979 45.4141C80.3054 47.3839 78.3519 48.6628 76.2725 48.5029V48.502C76.0225 48.4987 75.7665 48.4563 75.541 48.3154C75.2982 48.1636 75.1385 47.931 75.043 47.6445L75.0391 47.6299L75.0352 47.6143C74.8851 47.0137 74.7218 46.1081 74.8438 45.2949C74.9054 44.8842 75.0438 44.4698 75.3184 44.1309C75.5062 43.899 75.7484 43.7165 76.0459 43.5938C76.0869 43.431 76.1707 43.2707 76.3135 43.1279L76.3291 43.1123L76.3467 43.0986Z" fill="black" stroke="black" stroke-width="0.8"/>
<path d="M43.832 55.6172C44.1826 55.4089 44.6249 55.4007 44.9902 55.4893C45.2157 55.544 45.4502 55.6461 45.6475 55.7979L45.8184 55.5703L45.9883 56.1943C46.0579 56.3252 46.1009 56.4709 46.1074 56.6289C46.4955 58.0323 46.8907 59.278 47.5869 60.4053L47.7402 60.6436L47.751 60.6592L47.7598 60.6758C48.4247 61.9108 49.2807 63.053 50.3301 64.1025L50.3398 64.1123L50.0479 64.3857L50.3398 64.1133C52.3437 66.2603 54.9232 67.8369 57.6465 68.6973C60.6422 69.5512 63.7923 69.4111 66.6709 68.6914C69.4024 67.9083 71.6689 66.4108 73.9336 64.7109C73.5571 63.6262 72.8982 62.6035 72.2852 61.5L72.2754 61.4814L72.2676 61.4629C72.2667 61.4609 72.2655 61.459 72.2646 61.457L72.1514 61.3203L72.2061 61.292C72.0152 60.6608 72.2547 60.0441 72.6719 59.6963C72.9012 59.5052 73.1999 59.3824 73.5234 59.4004C73.8486 59.4185 74.1526 59.577 74.3955 59.8613H74.3965C74.4442 59.9134 74.4929 59.9654 74.541 60.0176L74.6172 59.9727L74.6826 60.1699C76.2032 61.8143 77.8654 63.5289 78.9961 65.5078H78.9951C79.1526 65.7741 79.1947 66.0589 79.1182 66.3252C79.0434 66.5849 78.8686 66.7858 78.6689 66.9189C78.2836 67.1759 77.6917 67.2484 77.2354 66.9062C76.8719 66.6337 76.5211 66.3294 76.1797 66.0049C74.0385 68.91 70.6504 70.5047 67.4766 71.5146L67.4658 71.5176L67.4561 71.5205C64.0154 72.4181 60.2756 72.4172 56.6846 71.3701V71.3711C50.401 69.5757 44.2487 63.5983 43.3438 56.8115L43.3447 56.8105C43.3018 56.5584 43.3173 56.3203 43.4043 56.1084C43.4947 55.8884 43.6495 55.7257 43.832 55.6172Z" fill="black" stroke="black" stroke-width="0.8"/>
<path d="M44.9053 53.0234C45.1365 53.0506 45.3853 53.1505 45.5605 53.3643C45.7335 53.5754 45.7925 53.8474 45.7529 54.1406C45.7501 55.7898 45.4499 57.6059 44.6846 59.1367C44.434 59.6378 43.921 59.7502 43.5205 59.6357C43.1454 59.5285 42.7731 59.1946 42.7559 58.7002C42.6009 56.9939 43.2215 55.2808 43.6475 53.7188L43.6582 53.6807L43.6758 53.6455C43.9152 53.1667 44.4686 52.9722 44.9053 53.0234Z" fill="black" stroke="black" stroke-width="0.8"/>
<path d="M82.3379 105.497L82.3369 105.498C83.7439 105.503 85.0883 106.011 86.3203 106.683C87.2478 107.189 88.1328 107.799 88.9463 108.38L89.7354 108.944L89.7432 108.95L89.751 108.957C91.2739 110.163 92.6346 111.492 93.834 112.942C95.0317 110.543 97.8375 109.028 100.4 109.312H100.399C104.179 109.699 106.475 112.141 107.922 115.128C109.183 117.731 109.822 120.795 110.257 123.385L110.432 124.463L110.434 124.471C110.653 126.081 110.878 127.839 110.803 129.548C110.728 131.256 110.351 132.945 109.349 134.417L109.35 134.418C108.191 136.271 106.142 137.632 103.979 137.784C103.011 140.093 101.875 142.519 100.229 144.577L100.222 144.586C98.548 146.564 95.9053 147.996 93.0625 147.206L93.0596 147.205C91.9899 146.899 90.925 146.278 90.165 145.408C89.1832 146.865 88.013 148.209 86.4717 149.076L86.4658 149.08C84.4454 150.168 81.9381 150.179 80.04 148.914V148.913C78.5988 148.013 77.9068 146.858 77.7812 145.576C77.686 144.604 77.9216 143.597 78.3408 142.615C77.3868 143.027 76.4017 143.383 75.3887 143.684L75.3809 143.687L75.3721 143.688C74.4925 143.908 73.503 144.138 72.5225 144.177C71.5373 144.215 70.5314 144.062 69.6338 143.491V143.49C68.4983 142.833 67.7052 141.552 67.5449 140.27L67.5459 140.269C67.0841 137.012 68.7919 134.099 71.0654 132.28L71.0703 132.276C71.6673 131.815 72.2841 131.403 72.915 131.031C72.6529 130.904 72.3943 130.759 72.1416 130.592L71.8701 130.427C70.5454 129.578 69.6867 128.388 69.333 127.048C68.9564 125.621 69.1599 124.051 69.9346 122.579L69.9404 122.567C72.4252 118.189 77.2037 115.77 82.041 115.565C80.6094 114.112 79.3126 112.444 78.5723 110.595V110.596C78.0095 109.229 78.201 107.903 78.9355 106.938C79.6665 105.977 80.9007 105.417 82.3379 105.497ZM82.4697 108.271C82.075 108.206 81.7283 108.214 81.4619 108.312C81.2394 108.442 81.1451 108.595 81.1074 108.753C81.0644 108.934 81.086 109.166 81.1748 109.44C81.3088 109.855 81.5685 110.283 81.8105 110.622L82.041 110.928L82.0498 110.938L82.0576 110.949C83.3205 112.774 84.8613 114.466 86.5479 116.027L86.6104 116.042L86.5928 116.069L86.6924 116.163L86.6992 116.169L86.7051 116.175C87.2146 116.684 87.2151 117.363 86.9336 117.85C86.6613 118.32 86.0919 118.655 85.4512 118.46C81.0603 117.47 75.9381 119.316 73.0977 122.863C72.3794 123.872 71.7439 125.064 71.8564 126.208C72.1203 127.085 72.8939 127.88 73.7246 128.437C74.9294 129.1 76.2859 129.146 77.7002 128.898C77.7395 128.892 77.7781 128.881 77.8174 128.874C79.1856 128.417 80.5627 128.038 81.9072 127.661L82.2754 127.539L82.2998 127.614C82.5784 127.613 82.8325 127.684 83.0479 127.818C83.349 128.007 83.5475 128.301 83.6357 128.616C83.7856 129.152 83.6221 129.787 83.082 130.153L83.1074 130.24L82.7207 130.337C81.3005 130.853 79.7126 131.377 78.1084 131.623C76.9414 132.015 75.7775 132.481 74.7139 133.055C72.1858 134.417 70.3164 136.331 70.248 139.203C70.2486 139.624 70.2853 140.044 70.4092 140.4C70.5156 140.706 70.6816 140.951 70.9385 141.116L71.0537 141.183L71.0674 141.189L71.0811 141.197C71.6885 141.562 72.4854 141.581 73.3516 141.422C74.214 141.263 75.0558 140.947 75.7354 140.721L75.7412 140.719C78.4888 139.844 80.9186 138.313 83.0312 136.497C83.3663 136.184 83.6796 135.902 83.9619 135.662C83.9633 135.661 83.9644 135.659 83.9658 135.658L84.2314 135.409L84.2725 135.45C84.8809 135.126 85.5356 135.287 85.9463 135.676C86.1833 135.9 86.3512 136.211 86.375 136.558C86.3903 136.78 86.3446 137.003 86.2363 137.212L86.3037 137.266L85.96 137.581L85.3203 138.181C83.861 139.581 82.6339 140.998 81.6299 142.63L81.627 142.635C81.1198 143.432 80.7244 144.244 80.6602 144.95C80.6289 145.294 80.6783 145.598 80.8184 145.864C80.9406 146.096 81.1447 146.324 81.4756 146.529L81.625 146.615L81.6299 146.618C82.5424 147.125 83.3503 147.214 84.0723 147.05C84.8049 146.883 85.4893 146.446 86.127 145.835C87.411 144.604 88.4103 142.756 89.1484 141.354L89.1582 141.336L89.1699 141.318C89.58 140.703 90.2905 140.568 90.8613 140.734C91.4301 140.9 91.9561 141.396 91.9561 142.127V142.146L91.9541 142.167C91.9495 142.213 91.9488 142.259 91.9473 142.304L92.0068 142.321L91.9453 142.429C91.9596 142.91 92.1541 143.297 92.4619 143.604C92.7875 143.93 93.2475 144.174 93.7646 144.32L93.9893 144.377L93.999 144.379L94.0078 144.381C95.4134 144.764 96.5885 144.151 97.7188 143.023C99.1991 141.443 100.347 139.302 101.153 137.072C100.925 136.838 100.768 136.545 100.697 136.191L100.694 136.177L100.693 136.162C100.529 134.844 101.311 133.591 102.347 132.8C102.846 130.526 103.003 128.097 102.184 125.99L102.182 125.983C101.701 124.679 100.876 123.743 99.8828 122.928C99.3843 122.518 98.8467 122.141 98.2891 121.762C97.737 121.386 97.1599 121.005 96.6035 120.597C95.2321 119.617 93.9179 118.201 93.4492 116.522C90.9865 113.244 87.4377 110.023 83.6436 108.618L83.6338 108.615C83.2813 108.474 82.8707 108.338 82.4697 108.271ZM99.7891 112.311H99.7695C98.5918 112.311 97.4672 112.97 96.8584 113.892C96.2624 114.794 96.1725 115.92 97 116.938L97.0078 116.948L97.0156 116.959C97.7016 117.919 98.6709 118.618 99.7324 119.313C100.644 119.911 101.637 120.513 102.485 121.269L102.84 121.602L102.845 121.607L102.851 121.613C104.686 123.602 105.597 126.196 105.597 128.926C105.697 130.786 105.444 132.707 104.987 134.591C105.539 134.344 106.052 133.959 106.527 133.483C107.728 132.282 108.023 130.518 108.023 128.632C108.023 126.765 107.737 124.891 107.301 123.002L107.297 122.987L107.295 122.973C107.004 121.084 106.571 119.211 105.854 117.491L105.851 117.482C105.354 116.206 104.54 114.866 103.491 113.869C102.443 112.874 101.188 112.244 99.7891 112.311Z" fill="black" stroke="black" stroke-width="0.8"/>
<path d="M66.2939 95.5459C71.2065 88.5489 80.8125 84.4311 88.6836 89.2734L89.0742 89.5176C97.1628 94.739 98.3756 105.478 95.6025 113.798L95.5996 113.805L95.5977 113.812C95.2908 114.63 94.4723 114.864 93.8496 114.721C93.5347 114.648 93.2246 114.472 93.0322 114.18C92.835 113.88 92.7941 113.506 92.9336 113.115C94.3889 108.312 94.9485 103.284 93.0918 98.7139L93.0898 98.709C91.8024 95.4186 89.375 92.5677 86.1035 91.0029C82.8587 89.451 79.0228 89.7239 75.7285 91.1562H75.7266C68.8411 94.1268 65.3534 101.466 64.2539 108.778C64.2254 109.306 64.171 109.835 64.083 110.363L64.0791 110.386L64.0723 110.407C63.8502 111.184 63.0847 111.409 62.5068 111.316C62.2088 111.269 61.9069 111.135 61.6865 110.904C61.4791 110.687 61.3562 110.395 61.375 110.057L61.3066 110.047L61.3887 109.633C62.0231 106.46 61.0734 103.09 59.1143 100.472C57.1558 97.8542 54.2159 96.0235 50.9102 95.8828L50.8926 95.8809C47.66 95.5999 44.3971 97.0034 41.9688 99.2852L41.9697 99.2861C40.8155 100.44 39.6911 101.855 39.1328 103.53L39.1299 103.539L39.127 103.547C38.7792 104.451 38.6365 105.363 38.5273 106.327C38.4203 107.272 38.3437 108.287 38.1221 109.331C38.1029 109.493 38.0101 109.615 37.9033 109.687C37.7955 109.758 37.6761 109.781 37.5801 109.781C37.4842 109.781 37.3655 109.758 37.2578 109.687C37.1757 109.632 37.1014 109.546 37.0625 109.437C36.4481 108.554 36.2266 107.501 36.2266 106.466C36.2266 105.403 36.458 104.332 36.7607 103.424C37.2191 101.757 38.123 100.105 39.1709 98.7578L39.1758 98.751L39.1816 98.7451C43.114 94.0844 49.8862 91.9396 55.6787 94.4277L56.2363 94.6836L56.2441 94.6865C59.3214 96.2669 61.7066 98.9464 63.0527 102.093C63.8233 99.7659 64.8704 97.5396 66.2939 95.5459Z" fill="black" stroke="black" stroke-width="0.8"/>
<path d="M40.5684 105.306C41.2923 105.134 42.0569 105.048 42.8008 105.213C44.2816 105.542 45.1255 106.548 45.3955 107.753C45.6604 108.935 45.3726 110.29 44.6631 111.394V111.395C44.3103 111.94 43.88 112.372 43.4072 112.731C43.5066 112.741 43.6063 112.75 43.7061 112.762L44.2432 112.836L44.25 112.837L44.7314 112.93C47.0839 113.422 49.7577 114.542 51.4951 116.438L51.6709 116.638L51.6758 116.644L51.8721 116.898C52.2949 117.493 52.483 118.086 52.4609 118.664C52.4359 119.32 52.1419 119.898 51.7266 120.385C50.9067 121.345 49.5439 122.034 48.4141 122.411L48.4023 122.415C47.7552 122.609 47.1079 122.737 46.4648 122.813C47.5716 124.509 47.8979 126.636 46.7334 128.82L46.7314 128.824C45.9906 130.182 44.592 131.061 43.0439 131.183C43.3445 132.733 43.1398 134.345 41.8232 135.662C41.0022 136.483 39.8351 137.025 38.6826 137.107C38.7535 139.015 37.9603 140.94 36.5332 142.272L36.5254 142.279C35.1304 143.519 33.2898 144.202 31.4062 144.484C29.5269 144.766 27.5763 144.654 25.9209 144.28C24.1786 143.963 22.7206 142.841 22.2344 140.916C21.931 139.854 21.7815 138.725 21.6709 137.601C21.559 136.463 21.4884 135.351 21.3428 134.259L21.3408 134.247V134.246C20.9011 129.937 20.4202 125.667 19.9014 121.437C19.7983 121.484 19.6875 121.507 19.5742 121.501C19.4006 121.491 19.2518 121.416 19.1387 121.326C18.1667 121.295 17.1947 121.275 16.2227 121.266C14.8485 129.111 14.185 136.952 14.4414 144.789C17.0518 144.071 19.6636 143.589 22.2764 143.344L22.4238 143.332C22.761 143.323 23.054 143.436 23.2686 143.65C23.5045 143.886 23.6064 144.207 23.6064 144.511C23.6064 145.117 23.1958 145.794 22.376 145.896L22.377 145.897C19.3723 146.285 16.4656 146.964 13.6562 147.933L13.6396 147.938L13.623 147.942C13.1671 148.056 12.7409 147.878 12.4492 147.61C12.1956 147.378 12.0055 147.046 11.9619 146.685L11.9521 146.527C11.5125 137.556 12.1012 128.437 13.7188 119.467C13.7328 119.327 13.7832 119.201 13.8428 119.099C13.9148 118.975 14.0122 118.86 14.1221 118.763C14.3351 118.573 14.6453 118.404 14.9922 118.404H15.002L15.0117 118.405C16.7347 118.487 18.4577 118.532 20.1807 118.545C21.9054 116.237 23.8048 114.263 26.1807 112.479C28.5437 110.559 31.216 108.776 34.1953 107.583C35.5759 106.894 37.0054 106.351 38.4844 105.955C39.1266 105.741 39.8503 105.476 40.5684 105.306ZM41.7559 107.562C41.2687 107.578 40.7666 107.676 40.3154 107.752C38.769 108.236 37.2715 108.769 35.8223 109.349L35.8213 109.348C30.6703 111.433 26.0318 114.766 22.1729 118.912C22.1951 118.933 22.2175 118.954 22.2383 118.978C22.4812 119.248 22.5705 119.596 22.5771 119.938C23.0659 123.555 23.5064 127.222 23.8975 130.938C24.0929 132.795 24.2879 134.603 24.4834 136.362L24.4844 136.366C24.5223 136.746 24.5411 137.171 24.5615 137.598C24.5822 138.029 24.6049 138.468 24.6494 138.896C24.7393 139.759 24.9139 140.501 25.2783 140.995C25.6217 141.388 26.2615 141.625 27.0625 141.75C27.8521 141.873 28.7018 141.874 29.3662 141.874C30.8129 141.874 32.1963 141.727 33.4258 141.044L33.4316 141.041C34.4486 140.499 35.2984 139.545 35.7031 138.482C36.0432 137.589 36.0632 136.638 35.6289 135.778C35.5231 135.633 35.4243 135.476 35.3359 135.304L35.0918 134.969L35.165 134.924C35.0208 134.379 35.2901 133.84 35.6543 133.533C35.8862 133.338 36.1898 133.201 36.5186 133.201C36.8144 133.201 37.102 133.313 37.3398 133.542L37.4746 133.453L37.6582 133.911C37.6833 133.974 37.7111 134.029 37.7412 134.078C37.7453 134.084 37.7499 134.09 37.7539 134.097C37.8513 134.246 37.9706 134.332 38.0977 134.38C38.2831 134.45 38.5252 134.456 38.8027 134.387C39.3719 134.244 39.934 133.827 40.166 133.421L40.1729 133.41L40.2568 133.26C40.6394 132.498 40.5056 131.542 40.0879 130.506C40.0678 130.456 40.0446 130.407 40.0234 130.357C39.0171 129.648 38.3241 128.547 38.2207 127.22L38.0918 127.017L38.209 126.997C38.2078 126.956 38.207 126.914 38.207 126.872C38.2071 125.441 40.0586 125 40.7061 126.22C40.7365 126.264 40.766 126.31 40.7969 126.355L40.9131 126.317V126.527C41.2881 127.09 41.6834 127.735 42.0381 128.427C42.2091 128.49 42.3882 128.525 42.5674 128.525H42.5889L42.6113 128.528C43.6606 128.645 44.5508 127.834 44.8164 126.639C45.0721 125.273 44.5294 124.165 43.5684 123.322C43.272 123.062 42.937 122.83 42.5771 122.626C41.5599 122.414 40.5685 122.086 39.6182 121.664L39.5996 121.655L39.5898 121.649L39.3242 121.608L39.375 121.505C39.1553 121.33 39.0053 121.113 38.9336 120.867C38.8427 120.556 38.8881 120.24 39.0156 119.972C39.2432 119.494 39.7574 119.118 40.375 119.127L40.4268 118.974L40.8389 119.181C40.8468 119.185 40.8553 119.187 40.8633 119.191C41.6903 119.341 42.5109 119.624 43.2783 120.017C44.5626 120.277 45.8887 120.282 47.1641 120.029C47.631 119.875 48.1242 119.744 48.6172 119.551C49.1078 119.358 49.4968 119.136 49.7236 118.86C49.8396 118.696 49.8488 118.571 49.8203 118.459C49.786 118.324 49.6856 118.165 49.5078 117.987C49.148 117.628 48.6154 117.326 48.2285 117.094L48.2148 117.086C44.9704 114.97 40.7328 114.678 37.1934 116.22L37.0869 116.32L37.0596 116.284C36.5181 116.519 35.9457 116.276 35.6289 115.914C35.4499 115.709 35.3216 115.439 35.3145 115.138C35.3082 114.872 35.3975 114.61 35.583 114.381L35.4775 114.249L35.9004 114.062C37.0993 112.96 38.5472 112.383 39.917 111.835C40.5741 111.543 41.232 111.229 41.7773 110.82C42.3193 110.414 42.729 109.929 42.917 109.302L42.9268 109.27L42.9424 109.238C43.1701 108.783 43.1696 108.237 42.8652 107.796C42.6124 107.615 42.2354 107.545 41.7559 107.562Z" fill="black" stroke="black" stroke-width="0.8"/>
<path d="M42.3828 134.228C42.645 134.108 43.0664 134.057 43.376 134.309L43.4355 134.363L43.4512 134.379L43.4658 134.396C45.2424 136.617 46.5885 139.154 48.0322 141.465C49.5915 143.804 51.2 146.094 52.8564 148.336C56.1771 152.625 59.7619 156.782 63.4824 160.687C66.6313 159.003 69.5288 156.842 72.0586 154.312C73.5088 152.862 74.8127 151.364 75.9717 149.82C76.9761 148.241 77.8813 146.59 79.0693 145.104C79.2412 144.88 79.4707 144.751 79.7197 144.719C79.9634 144.687 80.1972 144.752 80.3867 144.86C80.7414 145.063 81.0653 145.508 80.9443 146.023L80.9463 146.024C80.485 148.177 79.1087 150 77.7939 151.607C76.6117 153.184 75.3316 154.711 73.9531 156.188L73.9453 156.197L73.9365 156.205C70.9792 159.015 67.5756 161.531 63.8721 163.457L63.8662 163.46C63.4564 163.665 62.8202 163.681 62.3779 163.238C58.2565 159.117 54.4784 154.701 51.0439 149.99V149.989C49.282 147.64 47.6166 145.242 46.0498 142.794L45.4482 141.9C44.0625 139.799 42.812 137.576 41.9004 135.231L41.8965 135.223L41.8936 135.213C41.8166 134.982 41.8571 134.758 41.9678 134.58C42.0718 134.413 42.2288 134.298 42.3828 134.228Z" fill="black" stroke="black" stroke-width="0.8"/>
<path d="M50.7061 95.002C50.8969 94.8748 51.1162 94.8276 51.3281 94.873C51.5348 94.9174 51.7029 95.0436 51.8105 95.2051C52.03 95.5345 51.993 95.9852 51.6699 96.3262L51.6719 96.3281C51.2079 96.8694 50.634 97.3658 50.0664 97.8418C49.4903 98.325 48.9214 98.7876 48.4238 99.2852C47.4415 100.268 46.4587 101.201 45.4756 102.086C43.4338 104.129 41.5367 106.172 39.6338 108.222L39.623 108.232C39.4009 108.454 38.9909 108.605 38.6914 108.306C38.4095 108.024 38.5277 107.645 38.7275 107.416C40.4988 105.054 42.4175 102.839 44.4844 100.772C44.9564 100.3 45.4297 99.8001 45.9141 99.2881C46.397 98.7777 46.8908 98.2557 47.3994 97.7471C48.4131 96.7333 49.4991 95.759 50.7061 95.0029V95.002Z" fill="black" stroke="black" stroke-width="0.8"/>
<path d="M54.8701 94.9111C55.0412 94.9484 55.1706 95.0548 55.249 95.1855C55.3891 95.4192 55.3606 95.7013 55.2588 95.9238C54.6439 97.4612 53.5718 98.6823 52.5547 99.8447L52.5557 99.8457C51.5773 101.02 50.5497 102.243 49.4736 103.515C47.4163 106.013 45.2127 108.511 43.1621 110.854L43.1533 110.864L43.1436 110.874C42.9935 111.024 42.8009 111.098 42.6035 111.086C42.4159 111.075 42.2529 110.989 42.1377 110.874C42.0225 110.759 41.9369 110.596 41.9258 110.408C41.9147 110.22 41.9815 110.037 42.1172 109.891C44.0213 107.401 46.0707 104.765 48.1191 102.131L48.127 102.12C49.1012 100.951 50.076 99.733 51.0508 98.4658L51.0586 98.4561L51.0674 98.4463C51.3189 98.1588 51.5624 97.861 51.8105 97.5576C52.0572 97.2561 52.3087 96.9485 52.5703 96.6494C53.0941 96.0507 53.6711 95.4709 54.373 95.0029L54.3936 94.9893L54.416 94.9785C54.5469 94.9131 54.7051 94.8753 54.8701 94.9111Z" fill="black" stroke="black" stroke-width="0.8"/>
<path d="M57.0557 99.5254C57.4169 99.3079 57.814 99.3625 58.085 99.5996C58.3494 99.8311 58.4733 100.219 58.3477 100.596L58.3389 100.622L58.3262 100.647C58.0034 101.293 57.4893 101.88 56.9678 102.401C56.7052 102.664 56.4339 102.916 56.1777 103.154C55.9252 103.389 55.6886 103.608 55.4785 103.817C54.5987 104.892 53.6701 105.918 52.6934 106.896C50.7796 109.25 48.8913 111.429 47.1406 113.764L47.124 113.786L47.1035 113.807C46.8203 114.09 46.4375 114.101 46.1641 113.944C45.9047 113.796 45.6825 113.438 45.876 113.051L45.8867 113.031L45.8984 113.013C47.5153 110.514 49.1373 108.154 50.9092 105.939L50.9141 105.934C51.8953 104.756 52.8766 103.627 53.8584 102.547C54.2873 102.046 54.7756 101.446 55.2969 100.906C55.8218 100.362 56.409 99.8478 57.0557 99.5244V99.5254Z" fill="black" stroke="black" stroke-width="0.8"/>
<path d="M60.2383 103.51C60.4314 103.381 60.6496 103.337 60.8613 103.38C61.0642 103.421 61.229 103.537 61.3467 103.669C61.5722 103.923 61.6987 104.325 61.5732 104.702L61.5645 104.729L61.5518 104.755C61.1612 105.536 60.5829 106.264 59.9893 106.932C59.6914 107.267 59.3853 107.593 59.0928 107.903C58.7987 108.216 58.5196 108.513 58.2686 108.8C57.1944 110.069 56.12 111.339 55.0459 112.608L55.0391 112.616C53.8637 113.939 52.6886 115.224 51.5156 116.507C50.3497 117.782 49.185 119.055 48.0215 120.363C47.9773 120.432 47.9187 120.497 47.8389 120.545C47.7341 120.608 47.6204 120.627 47.5176 120.619C47.3273 120.604 47.1788 120.499 47.0869 120.407C46.9884 120.309 46.9056 120.178 46.8623 120.031C46.8186 119.883 46.8095 119.691 46.9023 119.505L46.9229 119.464L46.9531 119.428C49.149 116.793 51.3454 114.01 53.5459 111.223L53.5547 111.212C54.6309 109.94 55.7558 108.619 56.9297 107.249L56.9326 107.246C57.4398 106.666 57.8931 106.036 58.4248 105.371C58.9445 104.721 59.5178 104.07 60.2148 103.527L60.2266 103.518L60.2383 103.51Z" fill="black" stroke="black" stroke-width="0.8"/>
<path d="M71.9014 100.779C72.2062 100.386 72.6933 100.427 72.9863 100.603C73.1439 100.697 73.2897 100.85 73.3574 101.053C73.4295 101.269 73.4003 101.507 73.2607 101.717C71.1889 104.825 68.6714 107.49 66.1904 110.263C63.8419 113.003 61.4453 115.743 58.999 118.483C54.1595 124.203 49.3139 129.783 44.1729 135.071L44.1689 135.075C43.8966 135.347 43.5036 135.384 43.2246 135.198C43.0849 135.105 42.9661 134.946 42.9512 134.738C42.9377 134.55 43.0156 134.386 43.127 134.259H43.126C47.5351 128.38 52.3904 122.935 57.0742 117.373L57.0771 117.369L64.4111 108.861L64.416 108.856C66.868 106.116 69.1025 103.145 71.9014 100.779Z" fill="black" stroke="black" stroke-width="0.8"/>
<path d="M74.3438 107.471C74.6391 107.503 74.8895 107.671 75.0645 107.871C75.4046 108.26 75.6009 108.956 75.1494 109.521L75.1396 109.532C66.045 120.094 56.8013 130.66 47.2627 140.933L47.2305 140.968L47.1914 140.993C46.7762 141.27 46.3103 141.118 46.0625 140.87C45.9358 140.743 45.8263 140.555 45.8262 140.331C45.8262 140.111 45.9321 139.92 46.1016 139.785C54.8994 128.79 64.1346 118.235 73.5127 107.83V107.831C73.735 107.563 74.0321 107.437 74.3438 107.471Z" fill="black" stroke="black" stroke-width="0.8"/>
<path d="M68.9688 121.484C69.1639 121.484 69.4138 121.531 69.6035 121.683C69.706 121.765 69.8007 121.887 69.835 122.051C69.8652 122.196 69.8377 122.334 69.7852 122.457C69.3128 124.015 68.3646 124.964 67.3633 126.108C66.2931 127.373 65.2714 128.638 64.2988 129.902L64.2939 129.909L64.2881 129.916C62.235 132.36 60.2307 134.756 58.2754 137.103L58.2734 137.104C57.1985 138.375 56.1233 139.597 55.0479 140.771C54.7897 141.095 54.3803 141.696 53.9541 142.159C53.5254 142.625 52.9451 143.113 52.248 143.113C51.8241 143.113 51.4777 142.969 51.2373 142.722C51.0022 142.48 50.8945 142.166 50.8945 141.87C50.8945 141.578 51.0005 141.269 51.2383 141.055C51.4593 140.856 51.7539 140.777 52.0732 140.831L52.2119 140.862L52.2471 140.872L52.2803 140.889C52.3418 140.919 52.3931 140.958 52.4385 140.999C52.5925 140.815 52.7606 140.595 52.9307 140.355C53.1749 140.012 53.4129 139.652 53.625 139.34C53.8066 139.072 53.9888 138.812 54.1279 138.659C54.7146 137.877 55.302 137.095 55.8887 136.312L55.8936 136.306L55.8994 136.299C57.2684 134.636 58.6379 132.974 60.0068 131.312C61.3787 129.646 62.7989 127.979 64.2686 126.313C65.5536 124.741 66.9263 122.766 68.7471 121.552L68.8477 121.484H68.9688Z" fill="black" stroke="black" stroke-width="0.8"/>
<path d="M69.1924 130.202C69.3839 130.077 69.5993 130.033 69.8086 130.076C70.0114 130.118 70.1754 130.233 70.293 130.365C70.5186 130.619 70.6459 131.022 70.5205 131.398L70.5107 131.426L70.498 131.451C70.0352 132.377 69.3483 133.251 68.6494 134.079C67.9391 134.92 67.2257 135.704 66.6504 136.495L66.6436 136.505L66.6357 136.514C65.2614 138.183 63.8378 139.803 62.3652 141.374C59.5296 144.698 56.6454 147.925 53.7119 151.055L53.7031 151.064L53.7021 151.063C53.5375 151.228 53.3317 151.337 53.1016 151.337C52.871 151.337 52.6792 151.228 52.5508 151.081C52.3022 150.797 52.2545 150.341 52.5 149.973L52.5078 149.961L52.5166 149.95C55.1607 146.522 57.9023 143.143 60.7422 139.813C62.1128 138.052 63.5327 136.339 65.001 134.675L65.0029 134.672C65.6615 133.94 66.2513 133.137 66.9375 132.317C67.6042 131.521 68.3324 130.748 69.1924 130.201V130.202Z" fill="black" stroke="black" stroke-width="0.8"/>
<path d="M69.9805 139.27C70.3464 139.06 70.7699 139.123 71.0498 139.372C71.3593 139.647 71.4552 140.103 71.2334 140.547L71.2256 140.562C70.454 141.951 69.0703 143.029 67.9336 144.022C66.8651 145.188 65.7965 146.404 64.7275 147.667L64.7217 147.674C62.4819 150.206 60.3879 152.835 58.4404 155.562L58.4219 155.589L58.3984 155.612C58.0371 155.974 57.5459 155.974 57.209 155.79C57.0412 155.699 56.8847 155.547 56.8105 155.34C56.7315 155.118 56.7626 154.877 56.9023 154.667C58.6706 151.722 60.6355 148.972 62.7969 146.417C63.8753 145.045 65.0023 143.769 66.1797 142.591C66.6827 142.016 67.2472 141.34 67.8652 140.74C68.4836 140.141 69.1836 139.591 69.9805 139.27Z" fill="black" stroke="black" stroke-width="0.8"/>
<path d="M75.2002 141.008C75.4297 141.034 75.605 141.164 75.7197 141.293C75.8363 141.424 75.921 141.586 75.9639 141.747C76.0039 141.898 76.0235 142.11 75.9258 142.306C75.166 143.825 73.9473 145.049 72.9482 146.189C71.9676 147.562 70.9379 148.885 69.8594 150.16L69.8545 150.166C67.655 152.659 65.4505 155.157 63.0986 157.656L63.0898 157.665C62.7464 158.008 62.2867 157.877 62.0537 157.702C61.9274 157.607 61.8032 157.46 61.7578 157.268C61.7109 157.068 61.761 156.863 61.9023 156.699C63.8146 153.906 65.8719 151.261 67.9258 148.767L67.9307 148.761C69.1004 147.396 70.2211 146.031 71.293 144.667L71.2998 144.659L71.3066 144.65C71.5581 144.363 71.8017 144.066 72.0498 143.763C72.2966 143.461 72.5478 143.153 72.8096 142.854C73.3266 142.263 73.8962 141.691 74.5859 141.227C74.7576 141.07 74.9692 140.982 75.2002 141.008Z" fill="black" stroke="black" stroke-width="0.8"/>
<path d="M74.4668 149.421C74.8868 149.141 75.3441 149.305 75.5957 149.528C75.7252 149.643 75.8397 149.805 75.8828 149.996C75.9258 150.187 75.8913 150.403 75.7412 150.579L75.7422 150.58C75.0644 151.484 74.2774 152.308 73.4863 153.099C72.689 153.896 71.8957 154.653 71.1709 155.45C69.6147 157.298 68.1065 159.146 66.6475 160.994C66.2841 161.479 65.7095 161.483 65.3359 161.234C65.1519 161.112 64.9996 160.918 64.9473 160.674C64.893 160.42 64.9561 160.157 65.1279 159.928C66.5035 158.061 67.9773 156.244 69.5488 154.476C71.0083 152.724 72.6477 150.784 74.4482 149.434L74.457 149.427L74.4668 149.421Z" fill="black" stroke="black" stroke-width="0.8"/>
<path d="M29.6807 69.5801C30.1978 69.4077 30.8175 69.3993 31.3291 69.6318C31.8693 69.8774 32.2598 70.3828 32.2598 71.1328C32.2598 71.5198 32.1161 71.9191 31.8311 72.2041C31.5344 72.5007 31.1055 72.6512 30.6084 72.5518L30.5557 72.541L30.5078 72.5176C30.1799 72.3536 30.0532 71.9862 30.0879 71.707C30.0898 71.6915 30.0945 71.6754 30.0977 71.6592C30.0925 71.6602 30.0873 71.6611 30.082 71.6621C29.9095 71.7484 29.737 71.8346 29.5645 71.9209C29.2791 72.1111 28.9943 72.3019 28.709 72.4922L28.6973 72.5L28.6855 72.5068C28.0081 72.894 27.38 73.2805 26.8018 73.666C25.5419 74.5384 24.281 75.4584 23.0205 76.4277C20.7878 78.2723 18.6507 80.3114 16.6104 82.5459L16.6113 82.5469C9.47557 90.557 4.6719 100.75 3.3623 111.372C2.81722 116.694 3.04002 122.143 4.14844 127.477L4.38184 128.542L4.38379 128.548C4.89255 130.922 5.58642 133.222 6.46582 135.447L6.85449 136.396V136.397C7.43326 137.772 8.12143 139.077 8.81934 140.399C9.51471 141.717 10.2199 143.053 10.8145 144.465L10.8174 144.472C11.0252 144.991 10.877 145.535 10.5332 145.851C10.359 146.01 10.1253 146.117 9.8623 146.113C9.59557 146.109 9.34451 145.991 9.13672 145.783L9.12891 145.775L9.12109 145.767C6.57084 142.916 5.08321 139.183 3.90918 135.808C2.62999 132.265 1.69519 128.672 1.10449 125.029L1.10254 125.02C-0.670744 112.162 2.28496 99.0114 9.37695 88.0771L9.37793 88.0752C12.7765 82.9032 17.0608 78.324 21.9326 74.4854L21.9395 74.4795C23.1173 73.596 24.3441 72.762 25.6191 71.9766C26.7862 71.1017 28.2957 70.0418 29.6807 69.5801Z" fill="black" stroke="black" stroke-width="0.8"/>
<path d="M93.8525 72.79C94.539 72.7043 95.1657 72.8793 95.7334 73.1338C96.0112 73.2583 96.2877 73.4086 96.5557 73.5625L97.3271 74.0127L97.3516 74.0273L97.374 74.0449L100.015 76.0986L100.021 76.1035L100.027 76.1084C101.964 77.7473 103.595 79.6786 105.067 81.5918L105.614 82.291C108.303 85.8092 110.362 89.6854 112.153 93.5439L112.589 94.4307C114.589 98.5789 116.134 102.851 117.119 107.346L117.321 108.312L117.322 108.314C118.156 112.625 118.209 116.94 117.355 121.257L117.173 122.12C116.677 124.302 115.933 126.386 114.94 128.371C114.502 129.248 113.978 130.297 113.339 131.256C112.701 132.212 111.927 133.114 110.971 133.672L110.945 133.687L110.918 133.697C110.438 133.889 109.951 133.823 109.646 133.484C109.36 133.166 109.329 132.708 109.515 132.306L109.605 132.077C110.073 130.957 110.795 130.077 111.459 129.148C112.035 128.187 112.564 127.178 113.045 126.12L113.047 126.116C114.054 123.958 114.63 121.798 114.919 119.488L114.921 119.478C116.368 110.072 113.043 100.926 108.799 92.584L108.798 92.5811C106.896 88.777 104.856 85.1369 102.24 81.7939V81.793C100.986 80.2502 99.5863 78.8039 98.042 77.4521C97.1793 76.782 96.2685 76.1594 95.3096 75.584C95.2537 75.5505 95.199 75.5152 95.1445 75.4814C95.1977 75.6521 95.2507 75.8234 95.3076 75.9941L95.3281 76.0557V76.1201C95.3281 76.2267 95.3004 76.3334 95.2383 76.4268C95.1778 76.5176 95.0999 76.5735 95.0342 76.6064C94.97 76.6386 94.9101 76.6525 94.8701 76.6592C94.8493 76.6626 94.831 76.665 94.8164 76.666C94.8091 76.6665 94.8026 76.6668 94.7969 76.667H94.5215L94.416 76.4297C94.0396 75.5827 93.6429 74.6867 93.2656 73.8379L92.9873 73.4902L93.1572 73.4053C93.17 73.3098 93.2028 73.2203 93.2471 73.1465C93.3672 72.9462 93.5876 72.8068 93.8525 72.791V72.79Z" fill="black" stroke="black" stroke-width="0.8"/>
<path d="M35.4346 89.8008C35.7364 89.8008 36.0461 89.9062 36.2822 90.1318C36.523 90.362 36.6601 90.6908 36.6602 91.0811H36.6592C36.8055 95.1014 35.9135 99.2524 34.7344 102.938C33.548 106.792 31.7684 110.351 29.3965 113.612L29.3945 113.611C29.1473 113.969 28.7235 114.089 28.3809 113.918C28.2111 113.833 28.0696 113.676 28.0225 113.464C27.9784 113.265 28.0291 113.069 28.1328 112.898H28.1318C29.8795 109.549 31.3355 105.907 32.3545 102.268C33.3704 98.6391 33.8078 94.8569 34.1006 91.0508L34.1025 91.0312C34.2025 90.233 34.8234 89.8009 35.4346 89.8008Z" fill="black" stroke="black" stroke-width="0.8"/>
<path d="M91.6631 90.9346C91.6631 91.1827 91.7041 91.4337 91.7891 91.6885L91.8096 91.75V91.8154C91.8095 92.0699 91.7682 92.3318 91.6465 92.5449C91.5123 92.7797 91.2794 92.9481 90.9697 92.9482C90.6926 92.9482 90.4248 92.8116 90.2588 92.5791C90.097 92.3525 90.0488 92.0602 90.1318 91.7549C90.1378 91.4507 90.1897 91.1494 90.2852 90.8506C90.3044 90.7006 90.3711 90.5634 90.4893 90.4639C90.6202 90.3536 90.7779 90.3145 90.9141 90.3145C91.182 90.3145 91.4738 90.4635 91.6201 90.7559L91.6631 90.8408V90.9346Z" fill="black" stroke="black" stroke-width="0.8"/>
<path d="M31.125 69.9619C31.2973 69.9619 31.4754 70.0272 31.6104 70.1621C31.7464 70.2983 31.815 70.4827 31.8174 70.6816H31.8184C31.9625 76.3029 34.2711 81.936 38.0283 86.2715H38.0273C39.7896 88.1676 41.9287 89.9318 44.2021 91.2109L44.6602 91.4609L44.6729 91.4678L44.6846 91.4756C45.2408 91.8233 45.8747 92.106 46.5479 92.3789C47.2033 92.6447 47.9159 92.9077 48.5781 93.2012C49.1474 93.4144 49.7546 93.5937 50.3789 93.7773C50.8444 93.9143 51.3195 94.0543 51.7822 94.2109L52.2402 94.374L52.2598 94.3809L52.2783 94.3906C52.4121 94.4575 52.5275 94.5575 52.5986 94.6934C52.6697 94.8293 52.6827 94.9739 52.6572 95.1016C52.6325 95.2253 52.5707 95.3375 52.4854 95.4229C52.413 95.4952 52.3018 95.5631 52.1611 95.5801L52.1621 95.583C49.2412 96.0442 45.916 94.8183 43.543 93.4834V93.4824C40.7071 91.9878 38.3256 89.9018 36.3965 87.6758L36.3936 87.6719C32.3794 82.914 29.9839 76.9473 30.4326 70.6641H30.4346C30.4408 70.4718 30.5085 70.2943 30.6406 70.1621C30.7755 70.0273 30.9528 69.962 31.125 69.9619Z" fill="black" stroke="black" stroke-width="0.8"/>
<path d="M92.0938 75.3379C92.3333 75.3645 92.6144 75.4792 92.7725 75.7617H92.7744C93.2445 76.5141 93.0749 77.4825 92.8164 78.2949C92.682 78.7173 92.511 79.1355 92.3496 79.5137C92.1848 79.8999 92.0355 80.2325 91.9297 80.5146L91.9238 80.5293L91.918 80.543C91.2166 82.0461 90.3135 83.4005 89.21 84.6045C86.9649 87.1469 84.12 88.9443 80.9736 89.8467L80.9717 89.8477C80.967 89.849 80.9627 89.8512 80.958 89.8525L80.957 89.8516C80.7671 89.9108 80.5664 89.9058 80.3896 89.8115C80.2113 89.7164 80.0996 89.5537 80.0566 89.3818C79.9696 89.0337 80.1548 88.659 80.5459 88.5137V88.5127C83.2653 87.3676 85.7025 85.5058 87.5684 83.2129C88.4338 82.0588 89.147 80.9168 89.7168 79.4922L89.7227 79.4766L89.7305 79.4619C90.0102 78.9025 90.2448 78.2939 90.4336 77.6357C90.5047 77.2799 90.5821 76.8955 90.6992 76.5439C90.8189 76.185 90.9906 75.8258 91.2725 75.5439L91.3184 75.498L91.376 75.4688C91.5862 75.3636 91.8465 75.3105 92.0938 75.3379Z" fill="black" stroke="black" stroke-width="0.8"/>
</svg>
