<svg width="19" height="19" viewBox="0 0 19 19" fill="none" xmlns="http://www.w3.org/2000/svg">
<path d="M10.4076 8.59408V1.04199C10.4076 0.80164 10.3121 0.571131 10.1421 0.401177C9.97216 0.231222 9.74165 0.135742 9.5013 0.135742C9.26095 0.135742 9.03044 0.231222 8.86049 0.401177C8.69053 0.571131 8.59505 0.80164 8.59505 1.04199V8.59408H1.04297C0.802616 8.59408 0.572108 8.68956 0.402153 8.85951C0.232198 9.02946 0.136719 9.25997 0.136719 9.50033C0.136719 9.74068 0.232198 9.97118 0.402153 10.1411C0.572108 10.3111 0.802616 10.4066 1.04297 10.4066H8.59505V17.9587C8.59818 18.198 8.69467 18.4267 8.86395 18.596C9.03323 18.7653 9.26192 18.8618 9.5013 18.8649C9.74165 18.8649 9.97216 18.7694 10.1421 18.5995C10.3121 18.4295 10.4076 18.199 10.4076 17.9587V10.4066H17.9596C18.2 10.4066 18.4305 10.3111 18.6005 10.1411C18.7704 9.97118 18.8659 9.74068 18.8659 9.50033C18.8628 9.26095 18.7663 9.03225 18.597 8.86297C18.4277 8.69369 18.199 8.5972 17.9596 8.59408H10.4076Z" fill="black"/>
</svg>
