<svg width="162" height="162" viewBox="0 0 162 162" fill="none" xmlns="http://www.w3.org/2000/svg">
<g clip-path="url(#clip0_89_6956)">
<path d="M132.089 55.769C127.732 55.936 127.285 57.2562 123.758 53.7994C122.711 52.8794 121.664 51.9594 120.48 51.2761C117.03 49.5996 113.11 50.65 109.613 51.7871C106.676 52.7741 103.739 53.7612 101.039 54.8849C101.449 54.1747 101.622 53.328 101.845 52.6679C102.552 50.0775 100.345 47.0674 98.1275 46.2608C96.384 45.7276 94.0437 45.9545 92.5905 48.7449C91.1872 51.722 87.2339 56.3829 84.3372 59.7602C83.4171 60.807 82.4971 61.8539 81.9505 62.8007L82.0005 62.9874C74.3733 66.6318 62.5658 72.5968 55.3254 76.9379C56.1087 76.1278 56.7054 75.3676 57.3021 74.6075C58.0854 73.7973 57.4986 72.3539 56.2784 72.2807C53.178 71.9109 50.6011 72.0011 48.1742 72.6514C47.9875 72.7014 47.6142 72.8015 47.4775 73.0382C46.3708 74.135 41.8073 78.7593 39.0839 81.2898C35.7701 79.3765 35.2332 78.1198 28.7287 73.2598C26.685 71.6064 24.1215 72.4934 21.4213 73.6171C19.0944 74.6408 17.2276 75.141 14.9374 75.5546C13.5806 75.718 12.8607 77.5116 14.0942 78.3816C15.3278 79.2516 20.7389 86.0052 20.9756 86.1419C23.3695 89.102 28.5172 94.1255 30.2742 95.4555C28.0742 98.446 25.9742 101.81 24.2342 104.277C23.5009 105.274 24.2744 106.667 25.4446 106.554C28.2082 106.414 30.6851 105.95 33.2486 105.063C33.4353 105.013 33.7587 104.726 33.9454 104.676C34.6787 103.679 35.922 102.346 37.3021 100.775C46.1834 104.799 56.5046 105.234 65.6387 101.987C62.3856 109.261 58.6323 114.669 51.9421 121.063C50.002 122.784 51.2258 125.857 53.6661 126.004C60.7904 128.697 72.6944 120.105 78.1278 114.247C82.0285 117.604 88.4856 114.073 86.7983 108.522C86.4481 107.215 85.588 106.245 84.5911 105.512C85.0011 104.802 85.2244 104.142 85.6344 103.432C91.0518 104.981 94.4549 98.267 90.6909 94.6735C107.132 91.0684 122.76 83.6796 135.994 73.3306C139.464 70.6 142.971 67.2593 142.754 62.7155C142.914 61.072 142.7 59.5285 141.977 58.3217C139.533 55.1749 135.176 55.342 132.089 55.769ZM128.532 58.9229C123.845 64.5807 116.365 65.7848 116.338 64.1913C116.424 63.7679 117.818 62.9943 118.141 62.7076C120.368 61.3106 122.021 59.2669 122.778 56.8632C124.535 58.1932 125.955 59.0132 128.532 58.9229ZM95.0942 49.8748C95.9141 48.4546 96.5742 48.6779 96.9976 48.7645C98.1311 49.2611 99.1414 50.7912 99.0181 51.8247C98.5849 53.9416 96.8315 55.612 96.6082 56.2721C93.5347 57.4958 90.6478 58.6695 87.8109 60.0299C90.7076 56.6526 93.8776 52.8019 95.0942 49.8748ZM49.0112 75.0282C50.318 74.6781 51.5381 74.7513 52.8949 74.5879C51.2416 76.6316 49.2649 78.962 47.4749 81.2424C45.5714 82.3527 43.6045 82.4796 41.911 82.133C44.4477 79.6525 47.5811 76.4119 49.0112 75.0282ZM23.2891 84.3215C22.3789 83.1648 19.935 80.018 17.9279 77.7546C19.6081 77.3044 21.0515 76.7175 22.6816 76.0806C25.9419 74.8069 26.7887 74.9802 27.0254 75.1168C34.4767 80.5234 40.3747 88.3471 49.1086 83.6059C49.2953 83.5558 78.4669 64.7346 110.636 54.1139C113.387 53.1769 116.747 52.2765 119.251 53.4065C119.724 53.6798 120.247 54.1398 120.721 54.4131C119.184 60.6273 113.594 59.9243 113.661 63.9081C113.638 65.3149 114.598 66.6583 116.105 67.0549C119.405 68.1714 128.079 65.447 132.502 58.0592C136.199 57.6688 138.316 58.102 139.277 59.4454C140.624 61.4855 138.984 64.326 137.28 66.183C128.727 76.0782 116.246 81.0232 103.952 85.9181C98.8745 87.8787 95.7509 88.9158 89.1804 91.2766C89.527 89.5831 89.8235 87.7028 89.9834 86.0593C89.7967 86.1093 90.1701 86.0093 89.9834 86.0593C90.1066 85.0258 89.2965 84.2425 88.3631 84.4926C82.6125 85.4332 77.2853 86.4604 71.8715 87.9111C71.3115 88.0611 70.9881 88.3479 70.9015 88.7712C69.5983 92.1217 68.6184 95.1855 67.3519 97.9259C61.1413 99.3899 50.4869 101.444 44.3594 99.4847C43.0392 99.0381 41.2956 98.5049 39.6887 97.7349C41.9888 95.1178 44.4255 92.2639 45.8921 90.2702C46.7621 89.0367 45.2785 87.2333 43.9351 88.1935C43.6117 88.4802 41.8815 88.7437 40.3381 88.9572C38.6079 89.2207 36.5043 89.5843 34.4508 90.1345C34.0775 90.2346 33.7541 90.5213 33.6175 90.758C33.2075 91.4681 32.6108 92.2283 32.2008 92.9384C30.2572 91.6584 25.2095 87.0083 23.2891 84.3215ZM32.175 102.549L28.628 103.5C30.778 100.323 33.8479 96.0986 35.6746 93.2081C37.3547 92.7579 39.2716 92.4444 40.8151 92.2309L41.0017 92.1809C37.645 96.0816 33.965 100.269 32.175 102.549ZM73.0952 90.9846C77.5756 89.7841 81.7827 89.057 86.3632 88.2299C85.4333 91.4803 86.5534 91.1802 80.1839 105.492C75.801 115.27 65.5638 122.615 53.9492 123.327C64.4695 113.305 68.2192 104.897 73.0952 90.9846ZM83.6149 111.576C82.8815 112.573 80.9647 112.886 79.9678 112.153C81.0245 110.87 82.0312 109.399 83.0378 107.929C84.0346 108.662 84.3482 110.579 83.6149 111.576ZM86.7143 100.741C87.3476 99.371 87.7942 98.0508 88.2408 96.7307C90.1844 98.0106 89.1546 100.888 86.7143 100.741Z" fill="black"/>
<path d="M52.0562 91.6196C52.9897 91.3695 53.3996 90.6593 53.1495 89.7259C52.8994 88.7925 52.0026 88.4325 51.2559 88.6326C50.5092 88.8327 49.9125 89.5929 50.1626 90.5263C50.4127 91.4597 51.3095 91.8197 52.0562 91.6196ZM59.9836 89.0953L60.1202 88.8586C60.5302 88.1485 60.2801 87.215 59.57 86.8051C58.8599 86.3951 57.9265 86.6452 57.5165 87.3553L57.5665 87.542C57.1565 88.2521 57.4066 89.1855 58.1168 89.5955C58.8269 90.0055 59.7603 89.7554 59.9836 89.0953ZM67.1142 86.5844C67.8609 86.3843 68.4576 85.6242 68.2075 84.6907L68.1574 84.5041C67.9574 83.7573 67.1972 83.1606 66.2638 83.4108C65.3304 83.6609 64.9204 84.371 65.1705 85.3044L65.2205 85.4911C65.4706 86.4245 66.3674 86.7845 67.1142 86.5844ZM73.4346 83.2901C74.008 83.9368 74.8048 83.9234 75.4515 83.35C76.0982 82.7765 76.0848 81.9798 75.5113 81.3331L75.2246 81.0097C74.6511 80.363 73.8544 80.3764 73.2077 80.9499C72.561 81.5233 72.5744 82.3201 73.1479 82.9668L73.4346 83.2901ZM83.3288 80.639L83.4655 80.4023C83.8755 79.6922 83.6254 78.7587 82.9152 78.3488C82.2051 77.9388 81.2717 78.1889 80.8617 78.899L80.7251 79.1357C80.3151 79.8458 80.5652 80.7792 81.2753 81.1892C81.9854 81.5992 82.9188 81.3491 83.3288 80.639ZM91.5929 78.6247L91.7296 78.388C92.1395 77.6779 91.8894 76.7445 91.1793 76.3345C90.4692 75.9245 89.5358 76.1746 89.1258 76.8847L88.9891 77.1214C88.5792 77.8316 88.8293 78.765 89.5394 79.1749C90.2495 79.5849 91.1829 79.3348 91.5929 78.6247ZM97.28 76.7007L97.4667 76.6507C98.2135 76.4506 98.8101 75.6904 98.56 74.757C98.3099 73.8236 97.5998 73.4136 96.6664 73.6637L96.4797 73.7137C95.733 73.9138 95.1363 74.674 95.3864 75.6074C95.6365 76.5408 96.5333 76.9008 97.28 76.7007ZM105.057 73.6163C105.804 73.4162 106.351 72.4694 106.151 71.7227C106.001 71.1626 105.477 70.7026 104.867 70.666C103.834 70.5428 103.05 71.3529 103.35 72.473C103.6 73.4064 104.311 73.8164 105.057 73.6163ZM111.614 70.4587C112.361 70.2587 112.958 69.4985 112.708 68.5651L112.658 68.3784C112.458 67.6317 111.697 67.035 110.764 67.2851C109.831 67.5352 109.421 68.2454 109.671 69.1788L109.721 69.3655C109.971 70.2989 110.868 70.6588 111.614 70.4587ZM43.4499 67.7143C43.8233 67.6142 44.1466 67.3275 44.4199 66.8541C44.8299 66.144 44.3931 65.2606 43.683 64.8506L39.3357 62.8141C38.6256 62.4041 37.7422 62.8409 37.3322 63.551C36.9222 64.2611 37.359 65.1445 38.0691 65.5545C42.1297 67.2677 42.7032 67.9144 43.4499 67.7143ZM46.8066 63.8136C47.5533 63.6135 48.1 62.6667 47.7132 61.9699L44.5654 53.2092C44.3654 52.4625 43.4686 52.1025 42.7218 52.3026C41.9751 52.5027 41.6151 53.3995 41.8152 54.1462L44.963 62.907C45.3498 63.6037 46.2466 63.9636 46.8066 63.8136ZM53.8872 61.116C54.5205 59.7458 54.7304 58.2889 54.5169 56.7454C54.5035 55.9487 53.7433 55.352 52.9466 55.3654C52.1498 55.3788 51.5531 56.139 51.5665 56.9357C51.63 57.9192 51.5067 58.9526 51.1467 59.8494C50.7368 60.5595 51.1736 61.4429 51.8837 61.8529C52.7805 62.2129 53.6639 61.7761 53.8872 61.116Z" fill="black"/>
</g>
<defs>
<clipPath id="clip0_89_6956">
<rect width="131.423" height="131.423" fill="white" transform="translate(0.794922 34.7246) rotate(-15)"/>
</clipPath>
</defs>
</svg>
