<svg width="22" height="17" viewBox="0 0 22 17" fill="none" xmlns="http://www.w3.org/2000/svg">
<path d="M18.3043 0.693208C18.6211 0.309689 19.0752 0.0649896 19.5697 0.0111995C20.0643 -0.0425907 20.5604 0.0987762 20.9523 0.405208C21.1447 0.554259 21.3054 0.74038 21.4247 0.952568C21.544 1.16476 21.6195 1.39871 21.6469 1.6406C21.6742 1.88248 21.6528 2.1274 21.5839 2.36087C21.5149 2.59434 21.3999 2.81162 21.2456 2.99987L11.2189 15.3199C11.0511 15.5234 10.8429 15.69 10.6074 15.8089C10.372 15.9279 10.1144 15.9967 9.85095 16.011C9.58753 16.0252 9.32401 15.9847 9.07706 15.8919C8.83011 15.7991 8.6051 15.6561 8.41626 15.4719L0.896261 8.08521L0.765595 7.94654C0.162928 7.22121 0.205594 6.15188 0.896261 5.47454C1.58693 4.79721 2.67759 4.75454 3.41626 5.34654L3.55759 5.47454L9.61093 11.3945L18.3309 0.701208L18.3043 0.693208Z" fill="white"/>
</svg>
