<svg width="20" height="15" viewBox="0 0 20 15" fill="none" xmlns="http://www.w3.org/2000/svg">
<path d="M16.828 0.740969C17.1118 0.397481 17.5185 0.178323 17.9614 0.130148C18.4043 0.0819721 18.8486 0.208583 19.1996 0.48303C19.372 0.616523 19.5158 0.783217 19.6227 0.973258C19.7295 1.1633 19.7972 1.37283 19.8217 1.58947C19.8462 1.80611 19.827 2.02546 19.7653 2.23456C19.7036 2.44366 19.6005 2.63826 19.4623 2.80687L10.4822 13.8409C10.3319 14.0232 10.1455 14.1724 9.93456 14.2789C9.72367 14.3855 9.49297 14.4471 9.25704 14.4599C9.02111 14.4727 8.7851 14.4364 8.56392 14.3533C8.34275 14.2701 8.14123 14.1421 7.9721 13.9771L1.23703 7.3614L1.12 7.23721C0.58024 6.58759 0.618452 5.62987 1.23703 5.02323C1.8556 4.4166 2.83243 4.37839 3.49399 4.90859L3.62058 5.02323L9.04207 10.3253L16.8519 0.748134L16.828 0.740969Z" fill="white"/>
</svg>
