<svg width="215" height="90" viewBox="0 0 215 90" fill="none" xmlns="http://www.w3.org/2000/svg">
<path d="M144.757 20.046C122.986 16.8297 100.473 19.5511 79.9388 27.2209C70.785 30.6847 61.1365 34.8908 54.9516 42.808C49.7562 49.4881 47.7771 59.6319 52.725 66.8068C57.9204 74.724 67.8163 75.7138 76.4752 76.2086C87.6081 76.7034 98.741 76.2085 109.874 74.724C121.007 73.2396 132.14 70.7655 142.778 67.0543C147.891 65.4049 152.921 63.5081 157.869 61.3639C162.57 59.3846 167.023 56.9103 170.486 53.1992C173.95 49.2406 176.176 44.045 175.187 38.6019C174.445 33.4063 170.486 29.4476 166.28 26.4787C157.374 19.7986 145.499 16.5822 134.366 18.5615C132.634 19.0563 132.882 22.2727 134.861 22.0253C144.262 21.2831 153.168 22.7675 161.085 27.7158C164.796 29.9425 168.754 32.9114 170.486 36.87C172.465 41.076 171.228 45.7769 168.507 49.2406C165.786 52.9518 161.827 55.426 157.622 57.1579C153.168 59.3846 148.468 61.1165 143.767 62.6009C134.201 65.8998 124.47 68.4563 114.574 70.2707C104.514 71.9201 94.4527 72.7448 84.3919 72.7448C79.6913 72.7448 74.7434 72.4974 70.0429 72.0026C66.0845 71.5077 61.8787 70.518 58.6626 68.0439C51.9828 62.8482 52.4776 52.9518 56.6834 46.2717C61.6314 38.6019 70.5376 34.3959 78.7018 31.1796C99.4832 22.7676 122.244 19.7986 144.51 21.5305C145.499 21.7779 145.746 20.046 144.757 20.046Z" fill="black"/>
<path d="M164.056 24.7463C169.004 16.3343 176.178 9.40689 185.332 5.69571C187.476 4.871 189.703 4.21111 192.012 3.71629C193.001 3.46888 193.991 3.22153 194.981 3.46894C196.96 3.71635 195.97 5.44826 195.475 6.43791C192.754 12.1284 189.538 17.8188 186.569 23.2619C185.827 24.7464 187.064 26.2308 188.548 25.9834C194.238 24.7463 201.165 24.9938 205.866 28.9523C210.072 32.1687 212.298 38.354 209.082 43.0549C205.866 48.2505 199.186 49.4876 193.496 48.9928C190.033 48.7454 186.569 48.003 183.353 47.0134C181.374 46.5186 178.652 45.2816 178.405 42.8075C178.405 41.323 176.673 40.8281 175.683 42.0652C172.22 47.5082 180.631 50.7247 184.59 51.4669C191.022 52.704 197.949 53.9411 204.382 51.4669C209.33 49.4876 213.783 45.2815 214.277 39.591C214.772 34.148 211.804 28.705 207.598 25.736C201.908 21.2826 194.238 21.2826 187.559 22.5197C188.218 23.3444 188.878 24.2515 189.538 25.2412C191.517 21.6125 193.414 17.9838 195.228 14.3551C196.053 12.7057 196.877 11.1387 197.702 9.65424C198.444 8.16977 199.434 6.68523 199.681 4.95335C200.423 -1.97419 191.517 0.00510848 187.559 1.24217C176.426 4.70594 166.53 12.6231 161.829 23.5092C161.334 24.7463 163.066 25.9834 164.056 24.7463Z" fill="black"/>
<path d="M168.753 29.9408C170.732 28.1264 172.876 26.5594 175.185 25.2399C177.659 24.0028 180.133 23.2607 182.113 21.7762C183.102 21.2814 182.855 19.7968 181.618 19.7968C176.175 19.302 170.238 24.0028 166.774 27.714C165.29 29.1985 167.516 31.4252 168.753 29.9408Z" fill="black"/>
<path d="M172.963 37.8595C176.18 36.3751 179.643 34.8906 182.117 32.4165C182.859 31.6742 182.117 30.932 181.375 31.1794C177.911 31.6742 174.695 33.6534 171.479 35.1379C169.747 36.1276 171.232 38.8492 172.963 37.8595Z" fill="black"/>
<path d="M46.5447 48.9942C44.3181 38.8503 35.4118 30.933 25.5159 28.7063C15.62 26.4796 0.281306 29.4485 0.528704 42.0665C0.528704 49.4889 5.97143 55.1794 11.4142 59.8802C11.4142 59.0555 11.4142 58.2308 11.4142 57.4061C6.71363 61.3647 1.76569 66.5603 0.528704 72.993C-0.460886 78.4361 1.2709 84.6214 6.21885 87.8377C11.6616 91.5489 18.8361 89.8171 24.5263 87.5904C30.9586 85.1162 37.1435 81.4051 42.5863 76.9517C45.3077 74.9724 48.5238 72.4983 49.0186 68.7871C49.266 65.8182 47.7816 62.6017 44.5654 61.8595C42.3389 61.612 41.3493 64.8284 43.5759 65.5706C44.8128 65.818 45.3077 67.3026 45.0603 68.5396C44.8129 70.2715 43.3284 71.756 42.0915 72.7456C39.6175 74.9724 36.6487 76.9516 33.9274 78.9309C28.2372 82.3947 21.5575 85.8585 14.8778 86.3533C11.909 86.6007 8.69282 86.106 6.71364 83.6318C4.48706 81.6525 3.74486 78.4362 3.99225 75.7146C4.23965 69.0345 9.1876 63.8388 13.8882 59.8802C14.6303 59.138 14.3829 57.9009 13.8882 57.4061C8.9402 52.9527 2.50788 47.0148 4.23967 39.8399C5.47665 33.4072 13.3934 31.4278 18.8361 31.4278C29.969 31.4278 40.6071 39.0975 44.0707 49.4889C44.5655 51.2207 47.0395 50.4786 46.5447 48.9942Z" fill="black"/>
<path d="M48.7691 48.0029C43.3263 40.3332 31.2038 38.1064 24.0293 44.5391C23.2871 45.2813 23.2871 46.5184 24.0293 47.0132C25.5137 48.7451 27.9877 50.2297 30.4617 49.7348C30.9564 49.7348 31.2038 48.7451 30.709 48.2503C29.472 47.0132 27.7403 46.5184 26.7507 45.034C26.4208 45.6937 26.1734 46.436 26.0085 47.2607C32.4408 42.8073 41.5946 43.302 46.7899 49.4873C47.7795 50.7244 49.7586 49.24 48.7691 48.0029Z" fill="black"/>
<path d="M48.7698 52.7038C45.0588 52.7038 41.3478 53.1985 37.6369 54.4355C34.6681 55.6726 30.215 56.9097 28.4832 59.8786C27.9884 60.6209 28.4832 61.6105 29.4728 61.6105C30.9571 61.3631 32.4415 60.6209 33.6785 59.8786C35.4103 59.1364 37.1421 58.3942 38.8739 57.652C42.09 56.4149 45.5536 55.4253 49.0172 54.683C50.5016 54.683 50.0068 52.4563 48.7698 52.7038Z" fill="black"/>
<path d="M37.3845 63.5897C36.3949 64.2494 35.4878 64.9092 34.6631 65.5689C33.6735 66.0637 32.6839 66.806 32.4365 67.7957C32.1891 68.2905 32.4365 69.0327 33.1787 69.0327C34.4157 69.2802 35.1579 68.5379 35.9001 68.043C36.8897 67.3833 37.8793 66.7235 38.8689 66.0638C40.3533 65.0741 38.8689 62.6 37.3845 63.5897Z" fill="black"/>
<path d="M75.2354 31.9224C76.4723 32.6646 77.4619 31.675 77.4619 30.1905C77.2145 28.706 75.2353 28.4586 74.2457 29.4483C73.5035 30.1905 73.2561 30.9328 73.0087 31.9224C72.6789 33.7368 72.349 35.4686 72.0191 37.118C71.5244 40.2519 71.0295 43.3859 70.5347 46.5198C70.04 49.6537 69.6276 52.7875 69.2978 55.9214C69.1328 57.5708 68.9679 59.2202 68.803 60.8696C68.5556 62.3541 68.3082 63.8386 68.5556 65.0757C68.803 66.8076 69.7926 68.7868 71.5244 69.5291C73.0088 70.2713 74.2457 69.7764 74.7405 68.0445C74.9879 67.3023 73.7509 66.5601 73.0087 67.3023C72.7613 67.5497 72.0191 65.5705 72.0191 65.0757C71.7717 63.8386 72.2666 62.6015 72.2666 61.117C72.5964 57.8182 73.0088 54.4369 73.5035 50.9732C73.8334 47.5094 74.2457 44.128 74.7405 40.8292C74.9879 39.5921 76.9671 30.1906 75.9775 29.9431C74.7405 29.4483 73.9984 31.4276 75.2354 31.9224Z" fill="black"/>
<path d="M86.6135 27.9637C83.1499 34.3964 80.676 41.3238 79.1916 48.2514C77.9546 54.9315 76.7176 63.0962 79.439 69.5289C79.6864 70.2711 80.676 70.5185 80.9234 69.5289C81.4182 66.3125 81.4182 63.0962 81.6656 59.6324C81.913 56.1686 82.1603 52.7048 82.9025 49.2411C84.0571 42.3135 86.2012 35.7983 89.3349 29.6955C90.3245 27.7162 87.6031 26.2318 86.6135 27.9637Z" fill="black"/>
<path d="M124.716 27.4682C124.964 25.9837 125.211 24.7466 125.706 23.2621C126.201 21.5302 123.232 20.788 122.985 22.5199C121.748 30.4371 120.263 38.1068 118.037 45.5292C116.882 49.1579 115.645 52.7041 114.326 56.1679C112.841 59.6317 110.862 63.3429 110.367 67.0541C110.12 68.0437 111.604 68.5385 112.347 68.0436C114.821 65.3221 116.305 61.1162 117.542 57.8998C119.026 54.1062 120.346 50.3126 121.5 46.5189C123.479 38.8491 125.211 30.932 125.706 23.0148C124.716 23.0148 123.727 23.0148 122.737 23.0148C122.985 24.4992 122.985 25.7362 122.985 27.2207C122.737 28.2103 124.469 28.4578 124.716 27.4682Z" fill="black"/>
<path d="M133.869 22.2717C132.632 29.4466 130.9 36.6217 128.673 43.5492C127.519 47.013 126.282 50.3942 124.962 53.693C123.478 57.1568 121.499 60.6205 121.004 64.3317C120.757 65.3214 122.241 66.5584 122.983 65.5688C125.457 62.8472 126.694 59.1362 128.179 55.9198C129.498 52.456 130.735 48.9098 131.89 45.2811C134.363 38.1062 135.848 30.4364 137.085 23.014C137.332 21.0347 134.363 20.045 133.869 22.2717Z" fill="black"/>
<path d="M102.945 32.4159C98.7396 35.1374 96.2656 39.3434 95.5234 44.2917C95.5234 45.2813 96.5131 46.0236 97.2553 46.0236C101.214 45.7762 105.419 42.3124 105.419 38.1064C105.419 36.1271 102.451 35.8796 101.956 37.6115C101.461 40.333 99.9766 42.3124 97.2553 42.8072C97.75 43.3021 98.2449 43.7968 98.7397 44.2917C98.987 40.3331 100.966 36.8692 104.182 34.6425C105.419 33.6529 104.43 31.4263 102.945 32.4159Z" fill="black"/>
<path d="M148.218 36.87C144.754 39.3441 142.775 43.0553 142.527 47.2613C142.527 48.0036 143.022 48.7458 143.764 48.9932C146.238 49.7355 148.712 48.9932 150.444 47.2613C151.928 45.5294 152.918 42.5605 151.434 40.5812C150.691 39.3441 148.465 39.5915 148.465 41.3234C148.465 42.5604 148.712 43.5501 147.723 44.5397C146.981 45.5294 145.743 46.0242 144.754 45.5294C145.084 46.1892 145.496 46.7665 145.991 47.2613C145.991 44.045 147.475 41.0761 149.949 39.0968C151.186 38.1071 149.455 35.8803 148.218 36.87Z" fill="black"/>
<path d="M151.686 37.3639C152.676 35.8794 153.665 34.395 154.407 32.9105C154.902 31.426 153.418 29.9415 152.428 31.1786C150.944 32.4157 149.954 34.1475 148.965 35.632C147.728 37.3639 150.696 39.0958 151.686 37.3639Z" fill="black"/>
</svg>
